<?xml version="1.0" standalone="no"?>
<!DOCTYPE svg PUBLIC "-//W3C//DTD SVG 1.1//EN" "http://www.w3.org/Graphics/SVG/1.1/DTD/svg11.dtd" >
<svg xmlns="http://www.w3.org/2000/svg">
<defs>
<font id="Aquiline" horiz-adv-x="680" >
<font-face  font-family="Aquiline" font-weight="400" font-stretch="normal" units-per-em="1000" panose-1="0 0 4 0 0 0 0 0 0 0" ascent="800" descent="-200" x-height="392" cap-height="800" bbox="-712 -833 3175.67 2109" underline-thickness="20" underline-position="-123" unicode-range="U+0020-U+2122"/>
<missing-glyph horiz-adv-x="256" />
<glyph glyph-name=".notdef" horiz-adv-x="256" />
<glyph glyph-name=".null" horiz-adv-x="0" />
<glyph glyph-name="nonmarkingreturn" horiz-adv-x="333" />
<glyph glyph-name="space" unicode=" "  horiz-adv-x="256" />
<glyph glyph-bame="tab" unicode="&#x09;" horiz-adv-x="256" />
<glyph glyph-bame="uni00A0" unicode="&#xa0;" horiz-adv-x="256" />
<glyph glyph-name="exclam" unicode="!" horiz-adv-x="470" d="M486 795h-1q1 -6 -5.5 -15.5t-7.5 -14.5q1 -9 1 -27q-2 -8 -11 -19t-11 -16q-21 -46 -25 -90q1 -16 -3 -48l-2 -6l-3 1l-12 -24q-3 -19 -27 -97l1 -44q-8 -10 -17 -34.5t-16 -34.5l-7 -2q-23 -23 -28 -34q-2 -4 -11 -41q-1 -4 -4 -12l-7 -2l-29 -30q-2 -1 -47 -9 q-11 26 -9 33q0 -4 30.5 40.5t38.5 82.5q2 10 0 24q-2 15 -1 21q2 10 14.5 26.5t14.5 25.5q-1 11 1 33q4 9 10 27v2q3 14 9 55q-4 0 8 27t29 43q3 2 2 8q-2 8 -1 10q0 2 14 20l2 4q1 5 1 14q-1 9 0 13l3 8q13 12 18 33q7 30 10 36t24 19t36 13q17 0 18 -19zM167 119v-1 q-26 -10 -34.5 -21t-15.5 -22q-11 -12 -30 -39l-4 -3q1 -10 -1 -27q-3 -8 4 -22q4 -13 29 -13q3 0 6 1q35 14 43 21q3 5 7.5 10t13.5 11q11 11 10 24q-3 19 -1 23q3 7 11 18q3 5 1 24l-3 2l1 -2q-7 19 -25 19q-5 0 -12 -3z" />
<glyph glyph-name="quotedbl" unicode="&#x22;" horiz-adv-x="422" d="M117 686l-1 1q9 8 21 21l-1 19q5 10 16 29q7 11 15 22t35 22q6 2 12 2q17 0 24 -17v1l3 -1q2 -19 0 -24q-9 -13 -11 -19q-1 -4 0 -23q1 -13 -10 -24q-5 -3 -14 -10q-8 -13 -26 -34q-19 -14 -47 -25q-5 1 -14 0q-6 -2 -18.5 -13.5t-31.5 -17.5l-8 4l3 9q1 6 21 26t32 52z M276 687l-1 1q9 8 21 21l-1 19q5 10 16 29q7 11 15 22t35 22q6 2 12 2q17 0 24 -17v1l3 -1q2 -19 0 -24q-9 -13 -11 -19q-1 -4 0 -23q1 -13 -10 -24q-5 -3 -14 -10q-8 -13 -26 -34q-19 -14 -47 -25q-5 1 -14 0q-6 -2 -18.5 -13.5t-31.5 -17.5l-8 4l3 9q1 6 21 26t32 52z" />
<glyph glyph-name="numbersign" unicode="#" horiz-adv-x="400" d="M255 328v-1q0 1 -1 3v1q-3 4 -1 10l8 8q5 28 5 27q1 5 4 9l2 1q7 6 7.5 15t0.5 18q-3 0 -6 3q-8 -5 -15 -5q-5 0 -13 3l-1 1l-9 -3l-5 -15q-1 -7 -11 -22l-2 -1l-1 -1q4 -8 -7 -16l-2 -1q-4 -2 -3 -6l1 -1q0 -14 -2 -31q20 2 36 11q7 -1 11 -7h4zM337 455h-1q17 2 36 10 q6 -1 11 -6v-1q3 0 7 1.5t6 1.5q-6 0 14 -4q2 0 7.5 3.5t9.5 4.5q6 0 8 -8l1 -2l1 -1q1 0 5 2t7 2q4 0 14.5 -8.5t9.5 -11.5q-2 -7 -16.5 -17t-20.5 -9q-5 0 -9.5 3t-6.5 3q-4 1 -11 -0.5t-10 -1.5q-6 0 -11 5v1l-3 -2l-6 -3q-6 0 -8 8l-1 2h-1q-1 0 -7 -4t-10 -3q-3 0 -5 2 l-1 2h-1q-11 -6 -19 -3q-3 0 -5 -3.5t-4 -5.5v-6q-2 -4 -8 -10q4 -9 -6 -25l-3 -1v-2q0 -11 -4 -19l-1 -1q2 -7 -1 -15q5 0 9 -8l1 -1l1 -1q1 0 5 2t7 2q4 0 14.5 -8.5t9.5 -11.5q-2 -7 -16.5 -17t-20.5 -10q-5 0 -9.5 3t-6.5 3h-6l-15 -67q2 -4 2 -10q0 -11 -9 -38t-8 -36 q2 -18 -53 -26l-10 12q8 24 18 50q6 8 16 48q3 23 18 72l-3 3v2h-1q-1 0 -7 -4t-10 -4q-3 0 -6 3v2h-1q-11 -6 -19 -3q-3 0 -5 -3.5t-4 -5.5l-1 -7q-2 -4 -7 -9q4 -9 -6 -26l-3 -1v-2q0 -11 -4 -18l-1 -1q2 -6 -3 -21v-3q8 -15 4 -25q-7 -20 -54 -27l-11 11q2 4 5.5 8 t4.5 11q2 12 12 23q2 2 1 4l-1 1q-3 4 -1 9l8 8q5 29 5 28q1 6 5 8l1 2q7 6 8 19q0 9 1 14q-3 0 -6 3q-8 -5 -15 -5h-28q-1 0 -3 1h-4l-3 -2q-5 -2 -18 -2h-2l-3 -2q-18 -12 -29 -13q-9 0 -13 19q-3 16 0 28l13 11q5 0 7 -1l2 -1l1 -1q2 0 8.5 1.5t9.5 0.5q6 0 10 -4l2 -2 q1 0 6.5 3.5t10.5 3.5l6 -5q12 2 28 7q6 0 10 -4l1 -1l3 -3q29 0 23 32q3 7 8 12l2 1q3 1 3 6q-1 6 0 8q1 3 4.5 7.5t4.5 6.5q0 1 -1 4l-1 2v6q-8 -5 -16 -5q-9 0 -13 19q-3 16 0 27l13 12q5 0 8 -2h1l1 -2q3 0 9 1.5t9 1.5q1 0 3 -1q25 76 32 80l2 2q4 3 4 6q-1 6 0 9 q1 4 12.5 16t16.5 12q7 0 13.5 -12t3.5 -18l-35 -96q10 2 12 4q6 0 9 -4l2 -1q1 0 1.5 -1t0.5 -2q29 0 23 32q4 8 9 12l2 2q3 2 3 6q-1 7 -1 8q1 3 4.5 7.5t4.5 6.5q0 1 -1 4l-1 2q-3 9 10 17l2 2q4 3 4 6q-1 6 0 9q1 4 12.5 16t16.5 12q7 0 13.5 -12t3.5 -19q-6 -5 -16 -27 q-1 -7 -11 -22l-2 -2v-1q4 -9 -8 -16h-2q-4 -2 -3 -6l1 -2q5 -10 -2 -15h-1l-3 -3l1 -1h1v-2q6 -4 3 -9z" />
<glyph glyph-name="percent" unicode="%" horiz-adv-x="482" d="M392 693l11 -3q-11 -20 -34 -40t-27 -26q-2 -9 -9 -24q-7 -8 -17 -26q1 -6 -1 -19l-1 -5q-9 -9 -14 -27q-4 -6 -12 -17q-22 -39 -34 -97q-1 -16 -5 -47q-1 -4 -5.5 -12t-5.5 -12q1 -7 1 -22q-6 -9 -17 -28q-7 -17 -19 -65q0 -16 -4 -45l-1 -4h-2q-2 -3 -10 -19 q-2 -16 -23 -78l1 -35q-7 -8 -13.5 -27.5t-12.5 -27.5l-6 -2q-19 -18 -23 -27q-1 -3 -8 -34q-2 -6 -3 -8l-6 -2l-23 -25q-2 -1 -38 -6q-8 21 -7 26q0 -3 25 32.5t32 65.5q-2 13 -2 37q10 13 24 41q-1 9 -1 26q4 8 9 22v1q3 12 8 45q-3 0 6 21.5t23 34.5q-1 5 0 14q1 5 12 16 l1 4q-1 7 1 21l2 6q12 12 22 56q3 12 13.5 32t12.5 34l6 40q20 63 42 91q1 5 6 13q9 1 20 13q0 6 1 18q4 19 18 29l28 20q4 8 12 21zM225 781q5 0 15 -2t16 -2q12 0 15 -19q2 -14 3 -28l5 -6q1 -5 1 -16q0 -10 -4 -27.5t-4 -32.5t-15 -38q-3 -8 -11 -23q-4 -3 -10 -11 q-1 -8 -6 -23q-8 -7 -22 -22q-51 -74 -94 -74q-13 0 -36.5 19.5t-23.5 32.5q0 2 6 27t8.5 28t7.5 11q1 3 1 8.5t1 7.5l11 17q1 7 4 19q5 7 13 21q0 6 4 18l16 16q13 18 37 46q7 4 19 15l16 25q11 13 27 13zM213 698q-22 0 -30 -10l-14 -26q-11 -11 -34 -39l-4 -2 q-2 -15 -9 -41q-22 -49 -22 -48q0 -8 11 -20.5t18 -11.5q28 0 36 15q5 11 9 22q2 2 6.5 4t5.5 4q12 9 15 30q5 29 8 35.5t12 18.5q4 5 8 35l-1 3l-1 -1q0 22 0 21q-2 11 -14 11zM391 364q5 0 15 -2t16 -2q12 0 15 -19q2 -15 3 -29l4 -6q1 -5 1 -16q0 -10 -3.5 -27.5 t-3.5 -30.5q0 -16 -15 -40q-3 -8 -11 -23q-4 -3 -10 -10q-1 -8 -6 -24q-8 -6 -22 -21q-52 -74 -94 -74q-13 0 -36.5 19.5t-23.5 31.5q0 2 6 27t8.5 28t7.5 11q1 3 1 8.5t2.5 9t9.5 16.5l3 18q5 7 14 22q1 6 4 17q6 6 16 17q13 18 37 45q8 4 17 16l18.5 25t26.5 13zM379 280 q-22 0 -30 -10l-14 -26q-11 -11 -34 -38l-4 -3q-2 -15 -9 -40l-12 -25q-10 -18 -10 -23q0 -8 11 -20.5t18 -12.5q28 0 36 15q5 12 9 23q5 2 12 7q12 9 15 30q5 29 8 35.5t12 18.5q4 5 8 35l-2 4v-2q0 22 0 21q-2 11 -14 11z" />
<glyph glyph-name="ampersand" unicode="&#x26;" horiz-adv-x="484" d="M466 189q5 -5 5 -13q0 -28 -21 -49l-2 -2q-4 -7 -13 -20q-5 -5 -35 -28l-4 -3q-3 -3 -9 -3q-15 0 -15 12q0 6 5 12q10 0 18 12l2 3q2 3 7 7t7 8.5t8 7.5l2 2q4 8 13 22l2 1q5 11 2 23q-3 13 -3 15q1 11 13 11t18 -18zM253 401h-1l3 3l1 2q4 8 13 15q14 10 16 12q6 8 12 9 l3 1q6 7 23 16l2 1q1 0 3 2l2 2q19 19 67 20q14 0 52 -10v-20q-23 -16 -42 -16q-9 0 -23 5t-20 5q-11 0 -22 -9l-5 -4q-7 -6 -12 -7q-7 -4 -16.5 -16t-8.5 -19q3 -9 29 -9q4 0 11.5 2t14.5 2h9q4 0 11.5 1t10.5 1q19 0 19 -13q0 -6 -5 -14q-6 0 -16 -4l-4 -2q-6 -4 -13 -4 q-2 0 -5 1h-6q2 0 -10 -4h-18q-21 0 -39 -4l-4 -2q-5 -2 -16.5 -4.5t-27.5 -10.5l-2 -1q-4 -4 -14 -8l-5 -2l-26 -16l-2 -1q-2 -1 -3 -1q-10 -7 -30 -24l-1 -2q-4 -6 -7 -8l-2 -2q-8 -11 -23 -28l-3 -2q-18 -16 -30 -46q-3 -7 -7 -19q-2 -10 0 -19q2 -12 2 -16q1 -18 2 -24 q2 -17 9 -22l3 -2q10 -14 30 -29l4 -1q6 -1 20.5 -6.5t24.5 -5.5h19h30q11 0 16 1h4q7 4 19 4q5 0 16.5 4t17.5 4q2 1 9 6q4 3 11 3h1q7 5 12 5h4q10 -13 7 -23q-6 -2 -27 -11q-17 -8 -28 -8q-2 -2 -8 -5q-17 -3 -42 -10l-2 -1q-6 -3 -35 -5q-56 -4 -46 -4q-5 0 -13.5 2 t-14.5 2q-12 0 -31 8q-22 9 -26 17v2q-7 2 -13 11l-1 2q-6 5 -16 16q-13 14 -11 32l1 3q-1 0 -2 -1q-1 5 -1 11v2q0 4 -2.5 12t-2.5 13q0 8 5 17q0 1 13 32q7 19 20 30q6 4 8 7l1 4q5 9 12 14l2 1q0 1 1 2l2 3q6 6 17 20l2 3l21 18v2q2 6 10 8l1 1q5 5 14 13q8 4 22 14l3 2 q10 4 27 15q9 8 17 10h1q3 3 11 8q14 6 14 9q0 1 -4 4.5t-4 7.5q0 8 11 20z" />
<glyph glyph-name="quotesingle" unicode="'" horiz-adv-x="262" d="M117 686l-1 1q9 8 21 21l-1 19q5 10 16 29q7 11 15 22t35 22q6 2 12 2q17 0 24 -17v1l3 -1q2 -19 0 -24q-9 -13 -11 -19q-1 -4 0 -23q1 -13 -10 -24q-5 -3 -14 -10q-8 -13 -26 -34q-19 -14 -47 -25q-5 1 -14 0q-6 -2 -18.5 -13.5t-31.5 -17.5l-8 4l3 9q1 6 21 26t32 52z " />
<glyph glyph-name="parenleft" unicode="(" horiz-adv-x="419" d="M471 857q-4 -6 -12 -17q-15 -7 -42 -24l-55 -56l-44 -40l-68 -88q-6 -3 -18 -11q-5 -5 -9.5 -19.5t-8.5 -19.5q-10 -9 -27 -28q-6 -18 -22 -55q-8 -8 -19 -25q1 -8 -1 -24q-11 -15 -29 -47q-8 -20 -26 -87q-19 -71 -19 -89q0 -30 9 -74l16 -74q2 0 7 -5q10 -11 19 -29 l-7 -3q2 -3 12.5 -12t10.5 -13q0 -1 -1.5 -4t-1.5 -6q0 -6 10 -17q8 -17 38 -59q17 -18 26 -25t32 -18l22 -25q8 -8 23 -12.5t20.5 -11t5.5 -15.5q0 -13 -9.5 -28t-19.5 -20q-10 0 -16 -3q-26 12 -62 35q-6 11 -22 34q-18 13 -49 40q-11 12 -19 31q-12 28 -14 32 q-13 12 -33 39l7 3l-9 9l-2 3l9 16q-6 12 -14 35l4 6q-5 10 -14 31l3 6q-1 6 -6 24q-4 15 -4 24q0 4 2.5 12.5t1.5 13.5q-4 10 -9 30q0 12 12 69.5t17 70.5q5 6 12 18q3 20 13 58q1 3 9.5 14.5t8.5 14.5l-1 11q2 3 8 7.5t7 7.5q2 4 0.5 13t-0.5 13q7 6 19 20q1 12 8 33 q7 5 19 15q3 10 12 31l27 28q23 39 78 114q23 19 66 58q6 11 20 29q12 5 32 18q17 18 54 52l44 24q77 53 191 114q29 6 93.5 11.5t92.5 11.5q1 -3 5 -6l14 -13l-24 -10l-10 -6l5 -5l-22 -9l-5 -4l5 -5l-14 -6q-20 -9 -32 -9q-4 0 -16.5 2.5t-24.5 1.5q-24 -1 -181 -71 q-42 -18 -108 -56z" />
<glyph glyph-name="parenright" unicode=")" horiz-adv-x="507" d="M178 11q2 7 9 19q14 9 38 31q10 11 22 32q13 25 19 33q14 16 37 48l49 100l15 15q4 6 7 20.5t5 19.5q8 11 20 33q2 20 10 58q7 9 16 29q-3 8 -5 24q1 9 10 25.5t11 25.5q4 21 8 90q4 73 1 91q-5 29 -23 71q-27 67 -28 71q-2 0 -8 3q-10 7 -25 24l6 5q-2 2 -21 13 q-6 4 -6 8q0 1 1 3v3q0 8 -14 18q-10 16 -49 53q-27 19 -64 29l-26 20q-9 7 -25 8.5t-24 7t-8 20.5q0 30 20 46q10 2 16 6q28 -7 67 -22q8 -10 28 -30q8 -6 28 -15t29 -15q13 -9 25 -27q16 -25 20 -29q15 -9 38 -31l-6 -5q4 -2 10 -7l3 -2l-5 -17q8 -10 19 -32l-3 -7 q8 -9 20 -27l-2 -8q8 -14 20 -44q-1 -9 0 -28q6 -8 15 -27q2 -12 1 -71q-1 -58 -4 -71q-4 -6 -8 -19q1 -20 -1 -62q0 -3 -6 -15.5t-5 -14.5l3 -11q-5 -5 -12 -18q3 -8 4 -25q-6 -7 -15 -23q1 -11 -1 -34q-6 -7 -15 -20q-1 -10 -6 -31l-21 -34q-16 -43 -55 -125 q-19 -23 -54 -70q-4 -11 -15 -33q-10 -7 -28 -23q-12 -22 -42 -63q-14 -10 -39 -32q-60 -62 -165 -147q-27 -12 -89.5 -30t-89.5 -29l-6 6l-16 10l21 14l9 8l-7 4q4 3 21 13l5 4l-7 5l13 9q20 14 49 15q11 0 22 3q20 5 85 49l78 54.5t96 76.5z" />
<glyph glyph-name="asterisk" unicode="*" horiz-adv-x="236" d="M151 561v1q3 2 8 5q1 1 2 6t5 5h3q2 -1 3 -1h1q2 3 3.5 6.5t13.5 3.5q7 0 7 -7q0 -17 -5 -22q-4 -1 -11 -5q-3 -4 -7 -8.5t-9 -3.5l-1 -1q0 -6 -5 -6q-1 1 -3 1h-2q-1 -1 -1 -5q8 2 11 4q6 0 7 -4v-1q2 0 5 1t4 1q2 0 4 -1t3 -1t4.5 2t6.5 2q1 0 6 -5v-2q1 0 4 2t4 2 q3 0 9 -5.5t6 -8.5t-9.5 -9t-12.5 -6t-6.5 1.5t-5.5 1.5h-2h-5q-4 -1 -5 -1q-4 0 -7 3v0q-1 -1 -4 -1h-2q-3 0 -5 4v1h-1q-1 0 -4.5 -2.5t-5.5 -2.5t-4 2v1q-6 -3 -10 -2v-1l3 -2q1 -3 1 -8q6 -3 8 -14l-1 -2h1q8 -8 7 -12q4 -2 7 -10l1 -1v-1q15 -4 15 -13q0 -14 -13 -32 h-10q1 5 -5 13q-1 8 -5 18h-2q-3 1 -4 4v7q-3 7 -10 14q-1 2 -1 6l1 2q0 5 -5 10q-1 -3 -5 -9l-2 -1v-7q0 -2 -2 -6h-1q0 -1 1 -2v-2t-3 -10l-1 -1q4 -8 4 -12q0 -18 -34 -21l-6 6q0 2 2 7.5t11 20.5q1 0 1 1q-2 8 -2 7l5 5q0 2 2 8l-2 -1q-2 -6 -8 -12q0 -22 -12 -22 q-11 0 -22 16l1 11q2 2 6 2l5 8q4 5 6 5q1 -1 3 -1q1 1 2 5t3 6h4q5 6 11 15q3 3 8 3q1 1 1.5 2l0.5 1q-4 -3 -9 -3q-3 0 -9 2q-8 -3 -13 -1q-9 -3 -17 -3q-16 -8 -19 -8q-8 0 -8 20q0 5 1 8l8 8q5 0 6 -2v-1q2 0 6.5 1.5t5.5 1.5q4 0 6 -4h1l1 -1q3 2 10 5l4 -4q7 1 18 4h2 v3q-1 1 -1 2t1 2v1h-1q-1 -2 -4 8q0 4 -3 10l-3.5 2t-3.5 7q0 3 1 5v4q0 2 -2.5 3.5t-3.5 4t-1 14.5q0 11 8 11q17 0 17 -16q0 -4 3.5 -11t4.5 -16q5 -2 5 -7v-2q-1 -1 -1 -2h-1q0 -1 3 -6h2q2 3 5 5t3 8q0 -3 6 12l-3 7q0 3 6 6t6 4v3q-1 1 -1 3q0 3 7.5 10.5t10.5 7.5 q12 0 12 -16q0 -3 -5 -9.5t-6 -10.5t-7 -13l-1 -1v-1h1z" />
<glyph glyph-name="plus" unicode="+" horiz-adv-x="370" d="M237 252q22 2 44 12q10 -1 14 -7v-2q3 0 8.5 2t8.5 2t8 -2t8 -1q2 0 9 4t11 4q8 0 12 -10l2 -1v-2q2 0 7 2.5t9 2.5q5 0 18 -11t12 -15q-3 -8 -21 -20.5t-26 -12.5q-6 0 -11 4q-8 5 -9 5q-4 1 -13 -1t-13 -2q-33 0 -35 12l-1 2v1q-1 0 -9 -5t-13 -5t-7 3l-1 1q0 1 -1 2 q-15 -8 -25 -4q-5 0 -6 -4t-4 -7v-8q-4 -7 -11 -12q5 -12 -7 -32l-3 -2v-2q0 -14 -5 -23l-2 -1q2 -9 -4 -26v-5q9 -19 5 -31q-4 -11 -30 -22q-20 -9 -37 -12l-13 15q5 4 12 24q2 14 15 27q2 2 1 6l-1 2q-2 5 -1 11l10 9q8 29 5 35q3 7 7 11l3 2q8 7 8 20q1 20 2 23l5 6 q3 -2 1 -5q4 1 5 -2l-1 1q-11 -5 -17 2q-12 -6 -20 -6q-5 0 -16 3v1q-15 -5 -18 -5q-4 0 -10 2l-4 -3q-4 -2 -22 -2h-2l-4 -2q-25 -16 -37 -16q-11 0 -15 23q-4 20 0 35l17 14q5 0 8 -2l1 -1h1q0 -1 1 -1q4 0 11.5 1.5t10.5 1.5q7 0 14 -5l1 -2h1q2 0 8.5 4t12.5 4l7 -6 q16 2 37 7q7 0 11 -4l1 -2q2 -2 4 -2q30 0 30 23q0 7 -2 18q5 9 12 13l1 2q4 2 4 8v9q4 6 10 18q1 1 0 5l-2 2q-4 11 13 22l3 2q5 4 5 8q-2 8 -1 11q2 5 16 20t20 15q10 0 18 -15t5 -24q-8 -6 -19 -34q-3 -18 -16 -27l-2 -2l1 -1q5 -12 -11 -20l-3 -1q-5 -4 -3 -7l2 -2 q6 -12 -4 -20h-2q-2 -2 -2 -3v-1l3 -3q6 -4 2 -11z" />
<glyph glyph-name="comma" unicode="," horiz-adv-x="176" d="M28 5v1q9 8 20 21v19q5 10 16 29l15 22.5t34 21.5q6 3 12 3q16 0 24 -18l1 1l2 -2q2 -19 0 -24q-9 -13 -11 -18q-2 -4 0 -23q1 -13 -10 -24q-5 -3 -14 -10q-8 -13 -26 -34q-19 -14 -47 -25q-5 0 -12.5 -1.5t-19.5 -13t-31 -16.5l-8 4l3 9q1 6 21 26t31 52z" />
<glyph glyph-name="uni2010" unicode="-" horiz-adv-x="414" d="M363 194v1q-5 0 -13 4t-12 4q-5 1 -15 -1t-14 -2q-6 0 -17 9q-2 0 -6 -3t-7 -3h-9q-5 -1 -9 -1t-33 3q-18 2 -32 -2q-7 1 -12 8q-9 -9 -19 -9q-6 0 -14 2l-2 4q-3 0 -10.5 -3.5t-12.5 -3.5q-1 0 -3 1h-3l-1 3q-11 -7 -30 -8q-3 0 -9 -3q-19 -17 -33 -17q-11 0 -21 23 q-9 18 -11 33l11 14q3 0 7 -2.5t6 -2.5q3 0 11.5 2t12.5 1q5 0 11 -4t8 -4q4 0 9.5 4.5t8.5 4.5l11 -6q18 2 42 7q4 0 13.5 -1.5t12.5 -1.5q26 0 46.5 3.5t42.5 3.5q3 0 10 1h9q4 0 10.5 -2t9.5 -2q4 0 9.5 4.5t8.5 4.5q5 0 11 -7.5t10 -7.5q3 0 8 3t7 3q5 0 20.5 -8.5 t15.5 -12.5q0 -7 -13.5 -20t-20.5 -13z" />
<glyph glyph-name="period" unicode="." horiz-adv-x="180" d="M113 119v-1q-26 -10 -34 -21t-15 -22q-11 -12 -31 -39l-4 -3q1 -10 0 -27q-5 -14 6 -24.5t26 -10.5q3 0 6 1q35 14 43 21q3 5 7.5 10t13.5 11q11 11 10 24q-3 19 -1 23q3 7 11 18q3 5 1 24l-2 2v-2q-7 19 -25 19q-5 0 -12 -3z" />
<glyph glyph-name="slash" unicode="/" horiz-adv-x="416" d="M462 833l12 -3q-14 -24 -42 -49t-32 -34.5t-12 -30.5q-9 -10 -21 -32q1 -8 -1 -23l-2 -6q-13 -12 -14 -16q-2 -10 -4 -19l-15 -21q-26 -48 -43 -121q0 -20 -6 -58q-5 -10 -13 -31q1 -9 1 -27q-2 -8 -11 -19t-11 -16q-23 -51 -26 -93q1 -15 -2 -45l-2 -5h-3l-12 -23 q-4 -31 -11 -49q-8 -25 -17 -49l2 -43q-8 -10 -17 -35t-16 -35l-7 -2q-23 -23 -28 -34q-2 -4 -11 -41q-1 -4 -4 -11l-7 -3l-29 -30q-2 -1 -47 -9q-11 27 -10 34q0 -4 30.5 40.5t39.5 81.5q2 9 0 24t-1 22q2 10 14.5 26t14.5 25q-1 11 1 33q4 9 10 28v2q3 14 9 55q-4 0 8 27 t29 42q3 2 2 8q-2 8 -1 10q0 2 14 20l2 5q0 9 1 26l2 8q14 14 19.5 32.5t9.5 37.5q3 14 16 39.5t15 43t8 49.5q25 77 53 115q1 5 6 15q3 3 13 6t11 10.5l3 23.5q5 23 24 37l33 25q5 9 16 25zM596 915h-1q-3 -15 -21.5 -23.5l-34.5 -16.5q-7 -17 -52 -34l-5 6q0 6 1 9 q2 9 14 29.5t19 21.5l-1 11q-22 2 -64 10q-24 6 -21 11q4 5 44 21h8q4 -1 13.5 -6t17.5 -5t23.5 3.5t23.5 3.5q17 0 28.5 -12t7.5 -29z" />
<glyph glyph-name="zero" unicode="0" horiz-adv-x="258" d="M228 398q-21 0 -35 -17q-1 -2 -19 -31l-24 -18l-45 -56q-8 -6 -22 -22q-1 -7 -5 -21q-6 -8 -16 -26q-1 -8 -5 -25q-5 -7 -13 -21q0 -7 -3 -22q-4 -4 -11 -13q-2 -4 -9 -35t-7 -34q0 -15 29.5 -39.5t46.5 -24.5q54 -1 117 92q10 8 26 28q2 10 8 29q5 4 14 13q3 10 12 29 q7 11 15 22q4 9 4 27t5 40t5 35q0 12 -2 18l-5 8q-1 18 -3 35q-4 24 -19 24q-7 0 -20 2.5t-19 2.5zM213 294q15 0 18 -14q0 -3 -1 -26l1 1l2 -4q-5 -38 -10 -44q-12 -15 -16 -25q-2 -6 -8 -42q-4 -26 -19 -37q-6 -2 -16 -9l-10 -29q-10 -19 -46 -19q-9 0 -23 16t-14 25 q0 6 12 29l17 31q3 22 10 51l5 3q17 17 44 48q8 16 17 32q9 13 37 13z" />
<glyph glyph-name="one" unicode="1" horiz-adv-x="160" d="M106 375h1q2 0 26.5 4.5t39.5 4.5q32 0 38 -18q2 -7 -6 -23q-11 -22 -12 -27q-5 -20 -11 -34l-10 -22q-1 -14 -18 -44l-23 -39q-4 -7 -19.5 -51.5t-15.5 -49.5q3 -24 32 -24q22 0 33 8q1 1 4.5 8t7.5 7q3 0 9 -3q0 -8 -4 -25q-4 -7 -18 -12q-19 -6 -22.5 -8t-21.5 -21 q-12 -14 -25 -14q-5 0 -10.5 4.5t-6.5 5.5q-10 3 -20 6.5t-15 11.5q-15 26 -17 38q-1 7 1 44q4 2 11 8q3 10 12 30l26 39q2 3 21 24q14 16 15 27q-1 7 1 21q1 5 8 18q4 9 3 24q0 -3 7 21q2 6 2 11q0 12 -17.5 23.5t-17.5 15.5q0 5 12 11z" />
<glyph glyph-name="two" unicode="2" horiz-adv-x="398" d="M241 -10v1q3 -4 15 -7q3 0 3.5 -4.5t1.5 -5.5q-1 1 13 1q8 0 17 -9q11 -13 15.5 -14t14.5 -3q2 -5 6 -10q26 -12 72 -16q42 4 104 8q6 -1 31 16q22 18 32 18q6 0 6 -9q0 -10 -9 -25.5t-17 -17.5q-17 -4 -34 -15.5t-35 -15.5h-47h-38q-27 1 -31 1q-3 0 -10 -2t-10 -2 q-23 0 -48 11q-7 8 -26 19q-11 1 -23 4l-6 6q-8 13 -21 21q-19 9 -38 19q-31 17 -57 17q-23 0 -48 -14q-3 -4 -9 -10q-6 -2 -19 -7q-25 -11 -36 -11q-8 0 -8 7q0 10 19.5 40.5l38.5 59.5q7 6 18 21q5 9 16 26q14 11 41 35q5 7 16 19q10 5 30 17q19 18 58 50q9 4 25 14t50 48 q6 5 14 13q5 7 12 26q2 7 3.5 17.5t0.5 17.5q-2 9 -6 9t-7 0.5t-7.5 2t-7.5 1.5q-8 0 -26 -1.5t-27 -1.5q-25 0 -44 4v16q3 4 11 10q20 13 46 13q17 0 47.5 -7.5t40.5 -15.5q5 -12 20 -31q3 -3 17 -12q6 -3 6 -9t-6 -32q0 -7 -3 -21q-3 -10 -17 -20q-19 -13 -22 -17 q-12 -20 -40 -50q-4 -2 -11.5 -3.5t-11.5 -3.5q-6 -8 -20 -20q-8 -3 -24 -11q-9 -6 -25 -20q-5 -7 -17 -20q-15 -10 -32 -27l-3 -6q-5 -3 -15.5 -12t-10.5 -16q0 -11 36 -24q42 -14 56 -30z" />
<glyph glyph-name="three" unicode="3" horiz-adv-x="344" d="M167 390v-1q6 -1 15 -1q3 4 8 4q11 -2 10 -2v-1l8 5.5t12 4.5q2 0 6 10q27 7 44 4q21 -4 34 -4q6 0 19 1.5t19 1.5q32 -1 32 -23q0 -4 -2 -8q-1 -17 -26 -23q-8 0 -23 -2q-2 -1 6 -1q-1 0 -4 1h-4.5h-5.5q-3 -1 -5 -2t-28 -12q-20 -27 -47 -56l-11 -6q-1 0 -1 -2v1 q24 3 23 3q17 0 37 -10q4 -3 7 -7v-1q5 -2 16 -15q2 -3 8 -9q3 -9 3 -28q0 -1 -3 -13v-1l2 -3q2 -4 2 -11q0 -6 -4.5 -12t-4.5 -8q-8 -10 -18 -25q-6 -22 -16 -30l-1 -1q-4 -8 -18 -21l-2 -1q-4 -5 -11 -15l-1 -1q-3 -11 -15 -18t-13 -8q-6 -8 -15 -11q-3 -6 -17 -14l-7 -6 q-4 -11 -14 -13l-13 -4q-13 -7 -23 -7q-3 0 -8.5 -1.5t-8.5 -0.5h-6q-4 -2 -8 -2t-11.5 2t-10.5 2q-7 0 -11 4q-11 1 -23.5 12.5t-14.5 21.5v1q-6 5 -8 20q0 2 1 6v8l-1 2q6 16 7 18q5 7 17 7q23 0 30 -39q1 -9 3 -10t12 -1q8 1 20 0q3 0 9 -1t9 -1l1 3q9 7 19 6v1 q11 5 31 18l4 4q4 6 16 12.5t15.5 18.5t15.5 19q2 5 7 14q2 10 12 19q5 5 11 10l6 12v5q-1 3 -1 4q0 3 1.5 7.5t1.5 5.5v11q-2 11 -2 18q0 2 -5 1q-1 0 -13 4l-1 2h-5q-10 -11 -29 -23q-1 -8 -9 -13l-2 -3q-10 -9 -28 -9q-21 0 -26 12l-3 9q0 5 3 8l1 1v4q0 12 11 16 q3 7 10 15q3 3 3 10t7 13.5t8 10.5q1 8 9 15q12 12 13 15.5t10.5 10.5t11.5 9l12 26q3 5 -4 5q-11 0 -35 -11t-30 -17t-19 -21q-5 0 -8 5t-9 8t-4 10q1 4 4 9q2 14 5 21q2 3 13 12t16 10z" />
<glyph glyph-name="four" unicode="4" horiz-adv-x="382" d="M217 -24q-2 7 1.5 23.5l10.5 50.5q1 4 17 32q14 25 14 32q5 3 12 12q0 12 6 32q6 10 24 32l8 6q3 2 2 9q-2 24 17 50t19 27q-1 10 16 39t16 31q-1 11 -16.5 27t-26.5 16q-9 0 -25 -30q-11 -19 -21 -39q-6 -4 -16 -16q-2 -7 -2 -23q2 -17 2 -26q0 -11 -6 -17 q-8 -10 -14 -23q1 -14 -5 -41l-27 -27q-3 -7 -10 -20q-19 -9 -55 -48h-4q-3 0 -10 2.5t-11 2.5q-3 0 -9 -2.5t-10 -2.5l-6 2h-1q-4 10 -4 16q-1 10 15 26v10q-2 17 -1 21q2 6 13 15t14 15q2 12 9 36q1 1 13 20q8 11 7 24q-3 27 20.5 44t21.5 39t-20 37q-2 -1 -6.5 -1.5 t-6.5 -1.5l-8 -11l-89 -93q-12 -22 -12 -33q1 -12 22 -26l1 -9q-6 -3 -10 -19q1 -15 -8 -29t-9 -18q2 -18 -23 -65t-25 -51q2 -19 17 -27q4 1 11.5 0.5t11.5 -0.5q20 0 32 10q17 13 23 15q11 0 29 5q5 19 30 27l20 6q-1 -6 -5 -18q-1 -3 -6 -8.5t-5 -12.5q0 -10 -3 -14 q-8 -9 -8 -10q-4 -16 -15 -49q-5 -7 -12 -22q-3 -17 -19.5 -53t-19.5 -51q-1 -9 -4 -27q-3 -14 -14 -34q-17 -30 -18 -33q-6 -21 -23 -61q-11 -13 -32 -40q-5 -14 -19 -41q-5 -9 -20 -20t-19 -16q-6 -12 -22 -33q-12 -12 -35 -24l-38 -21q-11 -10 -33 -28q-20 -7 -57 -24 q-6 -6 -19 -16q-36 -20 -89 -20q-43 0 -77.5 17t-67.5 35q-1 -10 7 -28q9 -2 27 -9q9 -11 32 -28q28 -13 70 -13q60 0 110 21q14 6 36 22.5t33 22.5q11 3 34 11q30 16 71 51q58 48 69 56q9 4 27 16q13 12 26 33l23 36q16 22 32 57q0 1 6.5 10.5t6.5 11.5q7 8 17 23 q5 16 17 48q11 24 14 45q2 3 5 15.5t11 37.5q3 16 12 49z" />
<glyph glyph-name="five" unicode="5" horiz-adv-x="344" d="M230 401h-1q9 2 25 9q10 4 16 3q21 -4 34 -4q6 0 19 1.5t19 1.5q32 -1 32 -23q0 -4 -2 -8q-1 -17 -26 -23q-8 0 -24 -2q-6 -3 -11 -3q-1 0 -4 1h-4.5h-5.5q-3 -1 -5 -1q-5 -5 -28 -12l-6 -8q-2 -7 -15 -18.5t-13 -12.5v-4q0 -8 -4 -16l-2 -1q-1 -1 -1 -3v1q24 3 23 3 q17 0 37 -10q4 -3 7 -7v-1q5 -2 16 -15q2 -3 8 -9q3 -9 3 -28q0 -1 -3 -13v-1l2 -3q2 -4 2 -11t-5 -13l-5 -6q-1 -8 -8 -23q-1 -6 -4 -7.5t-5 -5.5q-6 -22 -16 -30l-1 -1q-9 -12 -31 -28.5t-28.5 -25t-15.5 -11.5q-3 -6 -17 -14l-7 -6q-4 -11 -14 -13l-13 -4q-13 -7 -23 -7 q-3 0 -8.5 -1.5t-8.5 -0.5h-6q-4 -2 -8 -2t-11.5 2t-10.5 2q-7 0 -11 4q-11 1 -23.5 12.5t-14.5 21.5v1q-6 5 -8 20q0 2 1 6v8l-1 2q6 16 7 18q5 7 17 7q23 0 30 -39q1 -9 3 -10t12 -1q8 1 20 0q3 0 9 -1t9 -1l1 3q9 7 19 6v2q16 11 31 23q24 18 26 27q1 6 24 17q2 2 8 7 q1 7 7 13v1l-1 2q0 18 6 19q10 2 12 6.5t5 10.5v5q-1 3 -1 4q0 3 1.5 7.5t1.5 5.5v11q-2 11 -2 18q0 2 -5 1q-1 0 -13 4l-1 2h-5q-10 -11 -29 -23q-1 -8 -9 -13l-2 -3q-10 -9 -28 -9q-21 0 -26 12l-3 9q0 5 3 8l1 1v4q0 12 11 16q3 7 10 15q3 3 3 10.5t3.5 14t4.5 9.5 q6 32 19 50l15 34q6 6 21 34z" />
<glyph glyph-name="six" unicode="6" horiz-adv-x="330" d="M35 81l-6 -1q0 2 -5 10q-3 5 -2 10q2 15 23 56v1q0 18 4 27q8 11 15 22l12 30q5 4 14 13q2 10 8 29q2 2 2 3q5 25 16 68q9 15 21 49q1 7 2 21l15 39q3 17 11 49q6 10 15 37l3 24q5 11 14 37q4 16 14 49q6 8 14 23v10q1 7 17 29q19 27 21 31q11 25 40 70q7 4 21 15 q35 39 112 106q10 3 29 12q17 17 54 44q41 21 88 21q34 0 56 -13q8 -10 26 -28q8 -1 21 -8q4 -4 4 -13q1 -12 2 -15l-54.5 35t-62.5 17q-42 0 -70 -20q-5 -6 -15 -17q-16 -7 -46 -24q-8 -10 -27 -27q-21 -13 -58 -46q-5 -11 -18 -33q-12 -10 -31 -35q-4 -14 -16 -42 q-9 -12 -24 -40q-5 -21 -19 -61q-12 -21 -27 -67q0 -9 -2 -28q-2 -14 -15.5 -48t-15.5 -51q-5 -34 -7 -62q18 8 33 7q17 0 46.5 -24t29.5 -39q0 -3 -7 -34t-10 -35l-9 -12q0 -7 -3 -23q-6 -6 -14 -20q-1 -8 -6 -25q-6 -9 -15 -26q-1 -7 -6 -21q-8 -7 -21 -21 q-15 -22 -45 -58q-9 -5 -24 -18q-18 -29 -19 -31q-15 -17 -36 -17q-6 0 -18.5 2.5t-19.5 2.5q-15 0 -19 24q-2 17 -3 35l-6 8q-1 6 -1 17zM120 93q28 0 37 13l17 33q15 14 43 47l6 3q3 19 11 51l16 31q12 23 12 29q0 9 -14 25t-23 16q-36 0 -46 -19l-10 -28q-5 -2 -15 -9 q-15 -11 -19 -38q-5 -36 -8 -42q-5 -10 -17 -26q-5 -5 -10 -43l2 -4v1v-26q3 -14 18 -14z" />
<glyph glyph-name="seven" unicode="7" horiz-adv-x="454" d="M222 -90v-1q0 -6 -3 -18q-6 -12 -17 -36q-3 -15 -11 -43q-8 -9 -18 -34l-3 -21q-6 -10 -18 -33q-4 -15 -15 -45q-1 -2 -7 -9.5t-6 -10t-0.5 -5.5t-1.5 -4q-1 -6 -19 -27q-22 -25 -24 -28q-13 -22 -44 -61l-24 -15q-40 -35 -127 -96q-11 -2 -31 -10q-20 -15 -62 -40 q-46 -19 -99 -19q-39 0 -63 12q-9 9 -28 25q-9 1 -24 8q-5 4 -5 11q-1 13 -2 15l61 -32t70 -16q48 0 79 18q5 6 18 15q17 6 51 20q9 10 30 27q24 11 66 39l19 31q14 9 36 32q5 12 18 37q11 11 28 36q6 19 20 55q13 19 30 61q0 8 2 22.5t21.5 47t23.5 47.5q9 39 9 60 q0 5 -1 11v7q0 6 16 27q12 16 19 33q0 14 5 39q6 14 6 24q0 3 2 7t2 8t12 21q2 6 7 18l20 23q8 9 8 33q0 7 10.5 14.5t12.5 10.5q3 10 12 26q20 28 61 53v4q23 23 22 31q0 1 -1 4v5l-10.5 10t-13.5 9q-15 0 -29 -11q-19 -15 -25 -16.5t-20 -5.5q-5 -6 -17 -16 q-12 -6 -35 -19q-10 -7 -30.5 -35.5t-30.5 -34.5q-2 -4 -4 -14.5t-5 -15.5q-29 -22 -29 -47q0 -7 2 -22t2 -23v-9q-9 -10 -9 -17q1 23 1 -18q0 -23 -19 -23q-1 0 -19 9q-3 5 -3 24q0 9 -2.5 27t-2.5 26q0 25 9 38q15 21 18 27q4 12 15 32q10 9 26 32q2 10 10 27q12 7 16 23 q5 20 8 24.5t14 9t15 10.5q0 9 8.5 24t8.5 29q0 43 26 43q20 0 50 -24q6 1 23 -17h4q3 0 9 2.5t9 1.5q5 0 11 -4l5 -1q5 0 14.5 3.5t14.5 3.5q19 0 29 -6l3 -5q12 -9 12 -18q0 -17 2.5 -32.5t2.5 -17.5q0 -9 -14 -21q-27 -31 -62 -77q-14 -20 -35 -55q-10 -6 -11 -24 q-1 -23 -4 -29q-11 -8 -27 -47q-20 -49 -28 -77q-11 -26 -26 -67z" />
<glyph glyph-name="eight" unicode="8" horiz-adv-x="321" d="M370 367v-1q0 -8 -4.5 -21t-4.5 -23t-4 -16l-15 -13q-3 -6 -12 -18q-5 -2 -15 -8q-1 -6 -7 -17q-1 -1 -22 -13q6 -4 10 -33l6 -4q1 -4 1 -12q0 -7 -4.5 -20.5t-4.5 -24t-4 -16.5l-15 -13q-3 -6 -13 -18q-6 -2 -14 -7q-2 -6 -8 -17q-9 -5 -26 -17q-61 -55 -117 -55 q-17 0 -46.5 14.5t-29.5 23.5q0 2 7.5 21t10 21t9.5 7q1 5 2 13q6 4 15 13q1 5 5 15q6 5 15 15q1 4 6 13q2 2 10 6.5t12.5 8l20.5 15.5q-44 16 -46 30q0 2 7.5 21t10 21t9.5 7q1 5 2 14q6 4 15 12q1 5 5 15q6 5 16 16q1 5 5 13q8 4 21 12q16 14 45 34q9 3 24 11q10 9 20 19 q14 10 35 10q6 0 18.5 -1.5t19.5 -1.5q15 0 18 -12.5t4 -22.5l6 -5q1 -4 1 -11zM299 327l-2 2v-1q0 15 0 14q-2 8 -16 8q-24 0 -32.5 -8t-16.5 -17q-13 -7 -38 -25l-5 -2q-2 -10 -9 -27q-26 -31 -26 -32q0 -5 12.5 -14t20.5 -9q32 0 41 10q4 8 9 15q2 2 9 6t9 5q13 6 15 18 q2 16 6 21t14 13q4 3 9 23zM237 155l-2 3l-1 -2q0 16 0 15q-2 8 -16 8q-24 0 -32.5 -8t-16.5 -17q-13 -7 -38 -26l-4 -2q-2 -10 -10 -27q-25 -30 -25 -32q0 -5 12.5 -14t20.5 -8q32 0 41 10q4 8 8 15l16.5 6.5t14.5 18.5q5 20 8.5 24t14.5 13q4 3 9 23z" />
<glyph glyph-name="nine" unicode="9" horiz-adv-x="271" d="M296 309l6 1q0 -2 4 -8.5t3 -11.5q-1 -11 -17.5 -53.5t-23.5 -52.5q-3 -10 -13 -29q-5 -4 -14 -13q-1 -10 -7 -30l-3 -3q-5 -25 -16 -68q-9 -15 -20 -49q0 -7 -4 -20t-14 -40q-2 -8 -5 -24.5t-5 -24.5q-7 -10 -16 -37q0 -8 -4 -21.5t-13 -39.5q-4 -16 -14 -48 q-6 -8 -13 -24v-10q-1 -7 -17 -29l-21 -30q-12 -25 -41 -70q-7 -5 -21 -16q-35 -39 -112 -106q-10 -3 -29 -12q-17 -17 -54 -44q-41 -21 -88 -21q-34 0 -56 13q-7 11 -26 29q-8 1 -21 7q-4 4 -4.5 14.5t-1.5 13.5l54.5 -35t62.5 -17q42 0 70 20q5 6 15 17q16 7 46 24 q9 10 27 28q21 13 58 45q5 11 18 33q11 11 31 36q5 14 16 41q9 12 25 40q5 20 18 61q12 21 27 67q0 9 2 28q2 14 15.5 48t15.5 51q5 35 7 63q-18 -8 -33 -8q-17 0 -46.5 24t-29.5 39q0 3 7 34t10 35l10 13q1 8 2 22q6 6 14 20q1 8 6 25q6 9 15 26q1 7 6 21q8 7 22 21 q16 23 44 58q9 5 24 18q18 29 19 31q15 17 36 17q6 0 18.5 -2.5t19.5 -2.5q15 0 19 -24q2 -17 3 -35l6 -7q1 -6 1 -18zM213 294q-28 0 -37 -13l-17 -33q-15 -14 -43 -47l-6 -3q-3 -19 -11 -51l-16 -31q-12 -23 -12 -29q0 -9 14 -25t23 -16q36 0 46 19l10 28q5 3 16 9 q15 11 18 38q5 36 8 42q5 11 17 25q5 6 10 44l-2 4v-1v26q-3 14 -18 14z" />
<glyph glyph-name="colon" unicode=":" horiz-adv-x="321" d="M113 119v-1q-26 -10 -34 -21t-15 -22q-11 -12 -31 -39l-4 -3q1 -10 0 -27q-5 -14 6 -24.5t26 -10.5q3 0 6 1q35 14 43 21q3 5 7.5 10t13.5 11q11 11 10 24q-3 19 -1 23q3 7 11 18q3 5 1 24l-2 2v-2q-7 19 -25 19q-5 0 -12 -3zM251 385h-1q-26 -10 -34 -21.5l-15 -22.5 q-11 -12 -30 -39l-5 -3q1 -10 0 -26q-2 -6 4 -23q2 -5 14.5 -10t19.5 -2q35 14 43 21q4 5 8.5 10t13.5 12q11 11 10 24q-2 18 -1 22q2 6 11 19q3 4 1 24l-3 1v-1q-7 18 -23 18q-6 0 -13 -3z" />
<glyph glyph-name="semicolon" unicode=";" horiz-adv-x="321" d="M28 5v1q9 8 20 21v19q5 10 16 29l15 22.5t34 21.5q6 3 12 3q16 0 24 -18l1 1l2 -2q2 -19 0 -24q-9 -13 -11 -18q-2 -4 0 -23q1 -13 -10 -24q-5 -3 -14 -10q-8 -13 -26 -34q-19 -14 -47 -25q-5 0 -12.5 -1.5t-19.5 -13t-31 -16.5l-8 4l3 9q1 6 21 26t31 52zM251 387h-1 q-26 -10 -34 -21.5l-15 -22.5q-11 -12 -30 -39l-5 -3q1 -10 0 -26q-2 -6 4 -23q2 -5 14.5 -10t19.5 -2q35 14 43 21q4 5 8.5 10t13.5 12q11 11 10 24q-2 18 -1 22q2 6 11 19q3 4 1 24l-3 1v-1q-7 18 -23 18q-6 0 -13 -3z" />
<glyph glyph-name="less" unicode="&#x3c;" horiz-adv-x="479" d="M64 347q-3 -2 -20 -19h1q2 -2 3.5 -7t3.5 -7q6 -1 16 -6t23 -13q27 -18 47 -26q16 -3 45 -12q9 -9 29 -24q18 -5 49 -20l14 -14q6 -6 27 -14q26 -10 32 -13q2 -1 40 -27q23 -16 43 -21q6 -2 11 -2q24 0 24 34q0 38 -13.5 46.5t-22.5 10.5t-13 4q-14 7 -35.5 27.5 t-36.5 27.5q-13 0 -37 12q-4 6 -13 15q-5 5 -31.5 11t-38.5 19q-17 18 -17 22q0 2 9.5 4.5t16.5 7.5q22 16 101 30q5 1 32 9q21 6 31 6q14 0 53.5 8.5t50.5 15.5q4 3 6.5 13t5.5 13q-2 1 -7 8q-2 2 -11 0l-13 -3q-24 1 -72 -4q-11 -4 -34 -11q-15 0 -44 -6q-12 -7 -38 -19 l-12 -1q-33 -20 -99 -53q-14 -5 -52 -7q-33 -1 -54 -15z" />
<glyph glyph-name="equal" unicode="=" horiz-adv-x="453" d="M363 164v1q-5 0 -13 4t-12 4q-5 1 -15 -1t-14 -2q-6 0 -17 9q-2 0 -6 -3t-7 -3h-9q-5 -1 -9 -1t-33 3q-18 2 -32 -2q-7 1 -12 8q-9 -9 -19 -9q-6 0 -14 2l-2 4q-3 0 -10.5 -3.5t-12.5 -3.5q-1 0 -3 1h-3l-1 3q-11 -7 -30 -8q-3 0 -9 -3q-19 -17 -33 -17q-11 0 -21 23 q-9 18 -11 33l11 14q3 0 7 -2.5t6 -2.5q3 0 11.5 2t12.5 1q5 0 11 -4t8 -4q4 0 9.5 4.5t8.5 4.5l11 -6q18 2 42 7q4 0 13.5 -1.5t12.5 -1.5q26 0 46.5 3.5t42.5 3.5q3 0 10 1h9q4 0 10.5 -2t9.5 -2q4 0 9.5 4.5t8.5 4.5q5 0 11 -7.5t10 -7.5q3 0 8 3.5t7 3.5q5 0 20.5 -9 t15.5 -13q0 -7 -13.5 -20t-20.5 -13zM412 302q-5 0 -13 4t-12 5q-6 1 -15 -1t-13 -2q-6 0 -17 9q-2 0 -6 -3t-7 -3h-9q-5 -1 -10 -1q-4 0 -33 3q-18 2 -32 -2q-6 1 -12 7q-9 -9 -18 -9q-7 0 -15 3l-2 4q-4 0 -11 -3.5t-11 -3.5q-1 0 -3 1h-3l-2 3q-11 -7 -30 -8q-5 0 -8 -3 q-19 -17 -33 -17q-11 0 -21 23q-9 18 -11 33l10 14q3 0 7 -3t6 -3q4 0 12 2t13 2q6 0 11 -4t7 -4q4 0 9.5 4.5t9.5 4.5l10 -6q18 2 42 7q4 0 13.5 -1.5t12.5 -1.5q26 0 46.5 3.5t42.5 3.5q3 0 10 1h10q4 0 10 -2t9 -2q4 0 10 4.5t9 4.5q5 0 10.5 -7.5t9.5 -7.5q3 0 8 3t8 3 q5 0 20.5 -8.5t15.5 -12.5q0 -7 -13.5 -20t-21.5 -13z" />
<glyph glyph-name="greater" unicode="&#x3e;" horiz-adv-x="479" d="M512 347h-1q3 -6 8 -19h-2q-5 -5 -17 -14q-6 -1 -20 -6t-33 -13q-39 -18 -67 -26q-18 -3 -53 -12q-15 -9 -46 -24q-22 -6 -65 -20q-6 -2 -22 -14q-28 -9 -79 -27q-39 -20 -118 -48q-7 -2 -12 -2q-11 0 -11 9q0 13 23.5 40t36 31.5t44.5 14.5q18 7 55 27.5t58 27.5 q13 0 44 12q9 6 26 15q9 5 39 11t52 19q34 20 34 24q0 1 -8 3t-11.5 7.5t-35.5 16.5q-28 10 -41 13q-5 1 -26 9q-17 6 -27 6q-15 0 -48.5 8t-39.5 16q-2 3 3 13t4 13l14 8q4 2 11 0l10 -3q25 1 70 -4q8 -4 26 -11q14 0 38 -6q8 -7 25 -19l11 -1q11 -7 29.5 -26.5t31.5 -26.5 q10 -5 48 -6q31 -1 42 -16z" />
<glyph glyph-name="question" unicode="?" horiz-adv-x="603" d="M73 640q0 10 10 20t10 32q0 10 9 21t16 21.5t20 33.5q6 9 23 17.5t23.5 15.5t12.5 15q5 4 17.5 8t29.5 22.5t38.5 21.5t43.5 4q11 4 37 11q6 0 17.5 -3.5t17.5 -3.5q4 0 12 1.5t12 1.5q6 0 12.5 -4t8.5 -5q17 -3 34.5 -6.5t25.5 -18.5t22 -23q17 -11 23 -41q2 -10 7 -16 l4 -4q8 -16 29 -48q0 -8 -10 -46q-2 -6 0 -12v-3l4 -7q2 -13 0 -23q-2 -13 -2 -15q0 -5 2.5 -16.5t2.5 -17.5q0 -8 -5 -23t-5 -28q0 -3 -7 -22.5t-9 -22.5q-5 -6 -10 -11t-3 -20q2 -16 2 -22q0 -3 -19 -43t-22 -43q-6 -3 -15 -12q-4 -15 -16 -44q-16 -13 -41 -47 q-3 -9 -11 -27q-21 -25 -42 -37q-6 0 -20 -11q-16 -25 -35 -36l-15 4l-1 13q-1 11 18 23l29 18q9 8 33 44t30 50q1 3 5 21q2 8 15 21q10 23 33 68q6 3 12 21q0 11 1 22t10 19q5 5 5 12.5t2 11.5q9 9 9 20q0 7 -2 20t-2 19q0 11 5 33t5 32t3 29t3 29q0 9 -4 27t-4 29 q0 6 -5 14q-8 11 -9 13q-2 9 -7 28q-8 18 -32 35l-42 26q-4 2 -5 3l-4 4q-6 6 -27 6q-17 0 -41 10q-8 5 -17 5q-2 0 -29 -12t-33 -16q-1 -1 -15 -14q-8 -8 -19 -9q-5 0 -15 -2v-2q-7 -4 -28 -20.5t-22 -18.5q-1 -11 -6 -32q-3 -9 -26 -42q-5 -7 -5 -11q0 -1 1 -4v-5 q0 -9 -9 -18l-4 -4q-11 -11 -11 -21q0 -7 8.5 -21t8.5 -25v-39q-3 -9 -2 -12q6 -9 6 -24q0 -3 2 -7q8 -10 9.5 -15.5t14 -9t17.5 -9t15 -13.5q8 -3 28 -3q14 0 22 4l18 9q14 4 33 14q5 5 16 35l4 4l1 6q0 24 -17 24q-8 0 -23 -10t-25 -10q5 0 -27 7q0 14 -9 25l-4 5 q-8 10 -8 18q0 6 3.5 17t3.5 19l1 6q9 9 18 23q12 19 47 20q75 1 75 -71q0 -9 3.5 -26.5t3.5 -25.5q0 -10 -8.5 -24t-8.5 -19q0 -13 -28.5 -38t-42.5 -29q-8 -1 -21 -8q-8 -8 -18 -8q-8 0 -22 3t-21 3q-17 0 -25 12q-3 8 -17 20q-8 3 -23 10q-24 21 -24 64q0 5 -9 20t-8 29 q2 44 -1 67zM302 91l4 -2q3 -24 -1 -28.5t-11 -19.5q-1 -3 1 -22q1 -14 -12 -26q-1 -1 -4 -3l-4 -2q-8 -11 -57 -39q-3 -1 -8 -1q-27 0 -33.5 17.5t-3.5 24.5q-2 11 1 29l4 3q5 8 25 30q6 11 20 31q12 13 38 24q7 3 14 3q18 0 27 -19z" />
<glyph glyph-name="at" unicode="@" horiz-adv-x="566" d="M54 551q13 8 19 30q2 10 14 18.5t21 17l28 27.5q9 8 27 12.5t25.5 9t15.5 10.5q6 3 19 4t33 14t39 13q1 0 48 -8q6 -1 24 2q11 2 25 -5q18 -8 21 -9q10 -1 19.5 -2.5t16.5 -8.5t18 -12q20 -8 25 -12q12 -8 16 -22.5t16 -26.5q14 -15 13 -46q-1 -10 2 -16l3 -5 q5 -8 8.5 -27t7.5 -27q-2 -9 -20 -42q-3 -5 -3 -12l-1 -3l3 -7q-4 -12 -12 -38q-2 -6 -2 -15q-1 -20 -12 -39q-7 -12 -11 -27l-26 -40l-13 -8q-6 -4 -8 -19q0 -7 -2 -20q-1 -3 -29.5 -37.5t-33.5 -37l-15 -7.5q-7 -14 -26 -39q-19 -9 -51 -36q-5 -9 -19 -24q-22 -19 -49 -25 q-6 2 -23 -6q-8 -10 -42 -27l-14 8l4 12q2 11 23 19l31 10q11 5 43 34t41 41q4 12 23 34l6 3q15 20 49 58q6 1 17 17l6 21.5t13 16.5q7 4 9 11t4 10q12 7 14 19l6 37q10 20 25 62q10 21 22 66q0 14 4 44q2 6 -2 15l-5 14q1 10 0 29q-4 25 -28 47q-29 27 -33 35l-3 4 q-6 8 -24.5 13t-36.5 20q-8 7 -17 8q-2 1 -31 -4.5t-35 -7.5l-18.5 -10t-20.5 -3q-2 0 -7 1h-8v-2q-7 -1 -31.5 -12.5t-26.5 -13.5q-4 -10 -14 -29q-7 -10 -36 -34q-2 -2 -6 -10q-3 -18 -15 -25l-5 -3q-16 -10 -16 -23q0 -5 4 -19t2 -23q-3 -12 -9 -38q-2 -3 -6 -11 q4 -12 1 -27q-1 -3 0 -6q5 -11 2 -19q2 -4 14 -10t17 -14q2 -6 10 -16q25 -18 48 -12q7 2 21 4t35 6q4 3 24 31l5 3l1 5q3 14 -2.5 22t-17.5 6q-5 -1 -16.5 -5t-17.5 -4q-10 0 -19 7q-5 4 -12 7q3 12 -3.5 26.5t-6.5 19.5q0 7 4 14.5t12 24.5l2 6q10 6 23 18q17 15 49 7 q60 -15 60 -65q0 -11 -3 -22q0 -17 -6 -52q-2 -11 -15 -22l-4 -4q-7 -7 -8 -12q-3 -12 -38 -30q-31 -16 -46 -18q-8 2 -23 -2q-10 -6 -20 -3q-13 6 -40 16q-16 3 -21 18q-1 8 -12 23q-7 5 -18 16q-19 26 -9 67q1 6 -3 19t-4 21q0 7 2 13q19 75 28 80z" />
<glyph glyph-name="A" unicode="A" horiz-adv-x="1423" d="M2731 2109q84 0 145 -9q20 -6 65 -12q11 0 37 -11q37 -15 39 -16q12 -1 37 -7q10 -4 24.5 -17t20.5 -17q10 -3 27 -15l47 -78q4 -10 2 -18q-3 -8 -5 -16q-9 -43 -47 -71q-10 -6 -79 -42q-11 -9 -37 -22q-27 -2 -81 -8l-45 -10q-26 -5 -46 -5l-7 19q1 0 85 15q9 5 29 11 q77 13 85 16q22 9 61 51q24 26 24 35q0 10 -7 31q-13 38 -22 45l-35 25q-13 17 -46 45q-4 2 -73 23t-74 21h-39q-10 0 -32 5.5t-34 5.5q-19 0 -54 -3t-52 -3q-7 0 -20 2t-19 2h-7q-9 -5 -27 -12q-15 0 -43 -4q-12 -6 -36 -16q-38 -6 -110 -28q-7 -7 -23 -19q-17 -5 -49 -19 q-8 -8 -27 -22q-18 -6 -52 -23q-10 -7 -25.5 -25t-24.5 -22.5l-27 -13.5q-9 -11 -29 -32l-21 -12t-13 -18q-6 -2 -17 -8q-11 -18 -39 -50q-10 -3 -28 -14q-1 -6 -6 -15q-9 -4 -25 -15q-8 -14 -28 -38q-12 -6 -34 -22q-11 -10 -26.5 -33.5t-24.5 -33.5q-13 -8 -35 -26 q-10 -20 -37 -57q-21 -11 -57 -42q-1 -10 -8 -29l-10 -4q-4 -2 -8 -15q-5 -17 -6 -19q-9 -7 -26 -26q-1 -10 -9 -27q-7 -4 -17 -15q-6 -16 -22 -44q-8 -6 -22 -23q-4 -7 -7.5 -22.5t-6.5 -22.5q-14 -17 -37 -56q-2 -13 -9 -37q-9 -19 -38 -53t-37 -56q1 -6 0 -19 q-8 -8 -21 -26q-1 -8 -4 -23q-3 -9 -16.5 -22.5t-16.5 -23.5q0 -17 -6 -44q-3 -1 -9 -4t-8.5 -15t-4.5 -15q-7 -3 -18 -15q0 -9 -2 -27q-8 -10 -22 -32q-3 -14 -12 -42q-12 -15 -32 -48q-3 -17 -13 -49q-8 -19 -34 -50.5t-34 -50.5q0 -8 -4 -24q-14 -22 -34 -74l17 -15 q8 -3 25 -3q19 0 28 3q9 16 31.5 34.5t40.5 25.5q5 -7 12 -23q-1 -11 1 -33q6 -17 49 -22l57 -4q28 -6 85.5 -26.5t86.5 -26.5q0 -4 2 -9l7 -18l-25 1l-12 -1l2 -6h-23l-7 -1l3 -8h-15q-25 0 -38 8q-23 16 -31 19q-46 18 -116 19q-61 0 -61 -32v-10q1 -7 1 -11 q0 -23 -16 -37q-1 -4 -0.5 -14.5t-2.5 -15t-9 -16.5q1 -9 2 -27q-5 -10 -11 -33q0 -4 4.5 -37t5.5 -37q5 -14 17.5 -21t14.5 -13q0 -1 3 -8q-19 -10 -28 -11q15 1 -35 1q-14 0 -23.5 -10t-15.5 -10h-11l-11 7q0 6 -2 20.5t-1 21.5q6 9 13 30q-5 22 -4 63q2 9 20 41 q14 26 13 46q0 3 -2 10.5t-2 11.5l9 8q-1 9 -2 26q0 6 5 17t5 18t-9 24l-36 13t-32 7q-22 0 -35 -13l-25 -24q-6 -1 -16 -9q3 -19 -7 -28q-12 -13 -13 -20q1 -4 0 -11q-4 -7 -19 -17q-18 -12 -22 -17q-3 -9 -14 -26q-10 -5 -27 -19q-6 -12 -22 -30q-5 0 -14 -3 q-5 -10 -17 -26q-12 -4 -33 -16q-4 -11 -15 -30q-19 -19 -57 -36l-64 -28q-8 -9 -29 -23q-10 -4 -37 -4q-77 0 -164 42l-2 7l-5 12q7 3 19 12q3 3 13 26q7 16 23 16q14 0 31 -10q24 -15 29 -17q51 -20 116 -21q50 -1 92 28q6 9 22 23q10 1 27 6q6 5 11 19t10 19q9 4 25 15 q6 11 19 30q11 8 32 27q3 10 14 25q6 2 16 8q6 6 12.5 23t11.5 22l21.5 15.5t9.5 18.5l-1 5q-5 5 -16 18q-138 0 -254 -12q-36 1 -102 -7q-5 -4 -18 -12q-16 0 -47 -3q-15 -3 -37 -14q-28 -13 -37 -16q-19 -4 -54 -15q-17 -11 -53 -30q-9 0 -25 -3q-6 -9 -23 -24 q-7 0 -21 -3q-7 -2 -16.5 -13t-14.5 -14q-13 -3 -37 -14q-12 -15 -40 -42q-11 -4 -30 -15q-3 -8 -11 -22q-16 -9 -45 -30q-15 -14 -60 -70t-52 -72q-12 -27 -22 -72l-16 -75q1 -1 4 -7q4 -11 6 -34h-8q1 -5 6 -15t5 -15q0 -2 -3.5 -6t-3.5 -9q0 -6 3 -15q-1 -19 10 -71 q11 -31 36 -60l10 -33q3 -9 17 -22.5t14 -23.5q0 -15 -17 -28t-31 -13q-5 2 -17 4q-19 21 -42 55q0 13 -5 42q-11 18 -29 56q-5 14 -5 35q0 29 -1 35.5t-8 25.5q-6 16 -5 24h7l-4 12l-1 3l15 11q-1 13 2 38l6 4q-1 11 -1 33l6 4q2 17 10 49q6 7 15 22q0 10 4 30q5 11 39 59 t44 58q7 3 19 11q10 17 35 49q13 7 27 18l3 12q3 2 10.5 3.5t10.5 3.5q2 9 10 23q10 3 27 10q6 10 21 27q8 2 22 8q7 8 24 22q12 5 34 15q38 26 119 71q29 8 84 26q5 2 19 13q10 8 24 9q8 -1 24 1q23 10 70 26q18 1 51 5q79 15 220 25q38 1 77 1q48 2 68 15q6 4 18.5 24 t14.5 27q-1 7 1 19q6 4 16 12q4 6 7 19.5t5 17.5q10 9 24 31q0 13 6 37q8 5 19 18q0 11 5 31q10 9 26 29q7 21 25 62q8 8 20 25q1 15 8 45q8 7 17 22q-2 6 -2 15q2 6 14.5 17t15.5 17q2 19 12 53q11 8 24 26q-1 5 -1 14q1 7 13 17.5t13 16.5q-1 6 -2 16q2 7 12.5 17t13.5 17 q0 9 2 25q3 8 16.5 22t16.5 24q-1 12 3 34q3 7 17 16t17 17q-1 8 -2 22q6 5 18 16q8 9 17 32t18 32q13 8 30 29q-1 7 2 20t20 31.5t22 27.5q9 24 36 67q12 7 33 22q6 15 25 39q14 2 36 15q0 10 5 26q7 11 26.5 27t26.5 26q2 10 10 25q7 9 26.5 19t25.5 16q9 14 31 41 q19 11 53 36q7 14 25 39q22 12 58 41q1 5 6 15q4 4 17 10q8 3 13 20q10 3 26 12q10 16 37 45q11 9 37 19.5t35 17.5q6 7 21 18q9 2 23 8l1 7q17 4 48 15q13 10 43 27q22 4 66 15q8 6 25 15q18 2 53 8q17 7 53 18q58 10 167 10zM2755 1743h1q26 0 29 -6q-2 -13 -68 -20 l-83 -8l-6 15l63 12q39 7 64 7zM2517 1709l1 1q15 0 18 -6q4 -9 6 -10q-23 -13 -74 -19q-58 -8 -78 -15q-29 -13 -89 -36q-24 -6 -67 -24q-4 -5 -14 -15q-18 -7 -52 -22q-8 -9 -29 -23q-9 0 -26 -3q-19 -7 -67 -41q-12 -14 -39 -38q-21 -10 -60 -34q-12 -9 -26 -29 q-18 -24 -25 -31q-14 -9 -38 -30q-5 -12 -18 -33l-38 -42q-1 -1 -4.5 -11.5t-6.5 -10.5h-7q-8 -11 -20 -38t-21 -38q-8 -4 -22 -15q-6 -15 -22 -41q-37 -46 -110 -157q-5 -13 -18 -35q-5 -1 -13 -6q-2 -11 -11 -30q-9 -7 -23 -23q-3 -15 -17 -37q-6 0 -17 -5q-2 5 -7 16 q-2 6 20 47.5t30.5 50t23.5 25.5q4 17 16 49q10 9 24 30q0 6 2 19q10 9 26 29q5 15 19 42q16 14 45 45q3 12 14 34q12 9 34 30q3 10 13 30q14 13 36 45q1 9 8 23q6 2 16 7q7 11 23 30q11 6 31 19q5 11 19 30q11 4 29 14q10 14 32 38q17 9 49 31q3 6 10 14q12 3 34 12 q16 14 51 36q6 3 18.5 6.5t17 6t14.5 9.5q5 4 19 4q5 0 13.5 9.5t10.5 10.5q17 6 49 19q8 8 23 18h12q7 0 24.5 11t23.5 13q16 1 46 7q5 4 15 11q6 2 18.5 2t24.5 5q17 7 23 8q-5 -1 36 -1q9 0 21 6t20 6z" />
<glyph glyph-name="B" unicode="B" horiz-adv-x="1828" d="M1104 878q-9 0 71 -9q49 -1 146 -8q39 -5 72 -18q6 -7 20 -17q14 -1 39 -7q4 -5 13 -12q16 -2 46 -9q14 -10 43 -27q107 -49 145 -76q79 -56 89 -129q4 -26 2 -34q-2 -12 -13 -23q-16 -16 -18 -20q-6 -12 -23 -35q-23 -25 -89 -59q-32 -12 -63 -25q-44 -17 -54 -34 q-3 -12 -12 -36l85 -52q46 -35 46 -81q0 -9 -2 -19q-12 -70 -86 -104q-46 -23 -141 -61q-15 -4 -38 -5q-28 0 -37 -1.5t-30 -10.5q-17 -6 -32 -6q-11 0 -31.5 2.5t-31.5 2.5q-10 0 -30.5 -2.5t-31.5 -2.5q-17 0 -45 8q-31 9 -45 10q-21 -1 -64 2q-6 1 -17.5 7t-22.5 6 q-5 0 -16 -1t-17 -1q-11 0 -18 5q-10 6 -15 7q-25 3 -73 8q0 3 -8 9q2 7 8 19q12 5 29 13q9 7 28 19q20 8 43 8q29 0 81.5 -14t80.5 -14q31 0 69 9q44 10 65 26q8 11 25 32q5 3 13 9q14 9 25 27q8 15 17.5 30t20.5 29.5t14 32.5q2 10 -10 14q-16 6 -19 9q-1 2 0 8q1 5 -1 7 q27 15 63 41q3 4 17 50l30 116q25 80 59 98q6 0 17 5.5t23 12.5q6 4 28 9q8 -21 6 -30q-13 -25 -32 -68q-5 -29 -18 -88q-6 -16 -14 -49l-1 -10q40 -4 30 -4q12 0 25 8q21 12 23 13q67 29 80 38q32 24 41 74l9 93q-3 5 -8.5 10t-22.5 7t-22 7t-14 16q-15 7 -44 24 q-6 7 -20 20q-14 5 -40 19q-5 9 -20 23q-7 3 -28 3q-14 0 -24 7q-14 9 -19 11q5 -1 -16 -1q-8 0 -42 25q-37 27 -50 31q-17 5 -52 4t-51 3q-10 7 -33 16q-49 8 -141 8q-4 0 -13.5 -2t-14.5 -2q-8 0 -25 1t-26 1q-18 0 -40 -10q-8 -2 -36 -2q-13 0 -39 1.5t-39 1.5t-210 -16 q-20 0 -61 -5q-10 -4 -29 -11q-16 -1 -48 -4q-19 -4 -47 -14l-45 -18q-18 -3 -54 -11q-14 -8 -43 -21q3 1 -13 1q-5 0 -14 -7q-12 -9 -15 -10q-9 0 -28 -4q-7 -6 -22 -15q-19 -6 -56 -21q-10 -7 -32 -19q-15 -4 -45 -15q-12 -6 -34 -22t-34.5 -21t-37.5 -17q-7 -9 -24 -24 q-21 -7 -60 -27q-12 -11 -38 -32q-32 -20 -93 -62q-26 -19 -111 -112q-10 -7 -27 -23q-11 -20 -35 -60q-8 -5 -19 -20q-1 -2 -1 -14q-6 -7 -17 -22q-1 -6 -3 -17q0 -4 -1 -6l-8 -7l-26 -56q-13 -31 -18 -57q-4 -21 -3 -43q0 -4 3.5 -15t1.5 -18q-2 -8 -5 -24q-2 -11 5 -22 t5 -20q-3 -14 -28.5 -30.5t-40.5 -16.5h-23q-15 52 -13 64q10 20 20 67q0 14 2 42q3 17 13 34q12 24 15 31q5 23 24 63q8 5 22 16q4 11 17 32l9 3l34 56q22 22 63 67q6 11 22 32q15 11 44 35q19 21 62 56q9 3 26 12q3 3 9 9.5t9 9.5q9 3 26 12q21 18 65 52q14 6 39 20 q3 5 11 11q8 1 25 8q7 9 23 23l34 13q14 12 45 31q7 0 21 4q17 12 52 32q29 10 85 32l6 7q4 3 12.5 3t41.5 17q40 21 48 24l104 28q15 9 46 20q-6 -1 19 -1q9 0 50 14q45 16 56 18q18 1 56 4q43 5 88 13q8 3 17 8q6 2 101 2q14 0 39 2q47 4 225 15h13zM1437 253l-1 -1 q-29 -17 -45.5 -40l-32.5 -46q-12 -14 -35 -30l-38 -25q-13 -15 -43 -40q-11 -2 -29 -11q-1 -7 -7 -21q4 -2 10 -7q11 -3 69 -4q17 0 30 -5q17 -7 25 -8q17 -3 53 -3q80 0 116 19q10 5 17 19q10 18 14 20.5t13 7.5q9 11 13 34q5 31 -3 50q-6 15 -32 33l-40 26l-24 20 q-15 12 -28 12h-2z" />
<glyph glyph-name="C" unicode="C" horiz-adv-x="922" d="M739 192h-1q-20 0 -43 -21l-38 -34q-23 -11 -68 -37q-10 -11 -32 -29q-15 -4 -44 -17q-12 -10 -37 -27q-21 -11 -54 -22q-51 -17 -55 -18.5t-48 -23.5q-23 -12 -53 -12q-15 0 -26.5 -6t-19.5 -7q-11 -3 -38 -4q-61 -2 -82 11q-3 4 -10 12q-34 29 -37 31q-12 15 -19 47 q1 14 0 40q-2 8 -14.5 23t-13.5 27q-1 19 3 43q12 73 37 119q11 13 28 40q2 13 9 37q10 8 26 24q4 12 12 29q5 2 14 8q16 27 52 77q6 5 18 16q8 17 28 49q6 7 23 16.5t24 16.5q13 17 41 48q14 8 41 25q27 27 86 73q7 2 22 8q5 6 15 16q26 13 76 41q6 6 19 16q23 12 60 21 q30 8 60 15q28 11 86 25q15 2 48 2q48 0 56 -6q4 -3 5.5 -10.5t3.5 -10.5q-58 -34 -93 -34q-9 0 -27.5 3t-28.5 3q-76 0 -136 -25q-14 -6 -35 -21q-25 -19 -34 -24q-22 -9 -63 -31q-4 -7 -15 -17l-8 -1q-9 -11 -29 -31q-25 -17 -72 -57q-11 -16 -36 -46q-7 -4 -18 -11 q-1 -5 -7 -16q-11 -7 -28 -25q-2 -5 -8 -15q-11 -9 -29 -29q-3 -10 -13 -28q-6 -4 -14.5 -14t-16.5 -32q-10 -32 -12 -36q-8 -12 -21 -47q-2 -11 -5 -33q-8 -28 -20 -84q-5 -29 -3 -42q1 -4 5.5 -12t3.5 -14q-2 -4 -4 -12q-1 -5 4 -11t5 -8q2 -18 10 -54q6 -12 24 -31 t28 -22q4 -1 15 -1q4 0 17 1h17q60 -2 54 -2q59 0 95 15l32 20q27 8 79 33q12 12 38 32q14 6 40 20q20 21 63 57q6 1 16 5q5 7 16 19q12 5 33 20q10 16 31 46q34 40 62 40q14 0 21 -10t5 -24q-3 -18 -18.5 -35t-15.5 -18q0 2 -2 2q-4 0 -30 -17t-32 -17z" />
<glyph glyph-name="D" unicode="D" horiz-adv-x="1828" d="M1050 813q-1 0 41 -9q11 -1 103 0q64 1 109 -18l6 -8q16 0 44 -8q3 -4 9 -11q12 -3 37 -11q4 -4 12 -10q15 -2 44 -9q6 -6 20 -15q26 -8 73 -34q6 -10 23 -26q8 -2 23 -7q10 -12 33 -34q12 -5 34 -19l27 -38q12 -7 30 -26q1 -6 3 -19q10 -8 27 -27q1 -9 5 -26 q7 -5 16 -18q0 -14 4 -42q7 -6 16 -19q15 -37 5 -95q-12 -66 -101 -135q-10 -11 -33 -30q-19 -8 -57 -27l-17 -14q-19 -7 -57 -23q-7 -6 -22 -15q-18 -3 -56 -11q-9 -5 -27 -11h-30q-9 0 -17 -5q-12 -6 -15 -7q-25 -8 -62 -7q-12 0 -36 5t-37 5q-7 0 -22.5 -4t-24.5 -4 q-16 0 -33 5l-6 8q-5 1 -58 0q-22 0 -51 12q-36 14 -49 17l-111 16q-68 11 -101 34q0 3 1 8t32.5 24.5t42.5 19.5q7 0 18 -5t14 -6q34 -4 99 -15q6 -1 20 -7q10 -5 23 -5q29 0 84.5 11.5t79.5 23.5q9 8 28 22q6 2 19 8q17 10 68 83q9 10 24 29q6 20 22 61q10 11 22 34 q1 4 -0.5 12t-1.5 11q7 8 17 26q4 8 15 69q3 17 13 48q5 10 41.5 35t47.5 25q8 -1 23 -4q-14 -81 -47 -158l-32 -52q-1 -4 -2 -14q-6 -7 -16 -21q-7 -17 -24 -52q-80 -125 -253 -200q1 -7 -1 -23q17 -5 51 -14q20 0 60 -4q10 -5 31 -13q14 -2 42 -2q30 0 114 11q23 1 69 7 q36 9 78 38q9 9 28 26q10 4 29 15q23 18 43.5 58t25.5 69q3 16 0 25q-5 12 -5 18q0 1 2 22q2 14 -3 19l2 8q5 9 11 28q3 19 -20 38q-34 27 -34 28q-1 5 -5 15q-11 7 -26 26q0 8 -3 23q-4 7 -19 15t-18.5 13.5l-11.5 17.5q-11 5 -31 18q-2 6 -9 15q-5 1 -14 4q-10 14 -35 37 q-12 6 -38.5 11t-37.5 9q-16 11 -51 30q-15 3 -44 12q-3 4 -13 10q-39 19 -78 27q5 -1 -22 -1q-14 0 -44 10t-47 10q-9 0 -25 -2.5t-23 -2.5q-4 0 -27 8q-11 4 -63 4q-39 0 -80 -4q-14 -4 -43 -8q-7 0 -21 2.5t-21 2.5q-11 0 -24 -7t-19 -9q-19 -1 -57 -7q-4 -1 -12 -4 l-1 -8q5 1 -28 1q-7 0 -16 -5q-12 -6 -16 -7q-10 0 -27.5 -3.5t-48.5 -19t-47 -19.5q4 1 -12 1q-5 0 -21 -10q-19 -11 -24 -13q-9 0 -28 -3q-14 -4 -38 -19t-36 -20q-11 -1 -31 -6q-2 -1 -5 -5.5t-5 -6.5q-14 -5 -41 -19q-4 -5 -14 -15q-18 -8 -53 -26q-25 -15 -62 -46 q-48 -40 -60 -49q-24 -14 -66 -48l-10 -20q-25 -21 -66 -71q-3 -12 -13 -34q-19 -26 -52 -79q-1 -4 -2 -12q-13 -20 -32 -56q-1 -4 -5 -24q-10 -26 -26 -81q-4 -20 -3 -58q1 -37 6 -55q1 -3 4.5 -8t3.5 -8q-2 -14 1 -41q3 -7 16 -18q17 -14 19 -16v-8q-1 -7 -27 -18t-36 -11 q-9 0 -18 3l-6 8q-2 0 -5 -1h-4q-4 0 -19.5 20.5t-16.5 25.5q0 6 2 9q4 32 4 25q2 10 -4.5 19.5t-4.5 21.5l6 27q-3 8 -3 28q4 6 12 21q1 4 2 12t3 12v6q9 16 24 48q2 11 9 31q7 7 19 22q6 10 14.5 32.5t15.5 32.5q7 6 19 19q5 14 19 40q5 5 13 16q6 17 24 50q12 9 35 29 q9 14 31 41l47 38q21 22 67 61q9 3 26 10q20 20 65 54q9 3 28 11q10 10 31 27q12 4 37 15q9 9 30 22q11 1 32 8q5 7 18 19q12 8 37.5 15t35 12.5l29.5 16.5q17 3 48 15q4 5 13.5 11t27.5 10q22 4 28 6q24 11 73 30q26 3 74 15q3 2 10 9t13 7h5q4 -1 5 -1q6 0 24.5 8.5 t32.5 8.5q7 0 20 -1.5t19 -1.5q20 0 59 8.5t57 8.5q8 0 22 -2.5t21 -2.5t18.5 4.5t17.5 4.5z" />
<glyph glyph-name="E" unicode="E" horiz-adv-x="1145" d="M949 998q33 0 57 -4l48 -15l1 -16q-9 -3 -27 -12t-42 -38q1 0 0 -1h-1q-3 -1 -9 -1h-1q1 3 1 1q-6 5 -2 13q0 4 6 23q-3 2 -8 7q-14 0 -37 1q-29 1 -37 1q-42 1 -73 -9q-13 -4 -30 -17q-21 -18 -27 -20t-16 -7q-22 -13 -43.5 -42t-25.5 -51q-2 -12 1 -22q5 -15 41 -28 q33 -12 54 -12q12 0 25 4.5t20 5.5h42q9 0 27.5 2.5t27.5 2.5q25 0 24 -11q0 -1 -1.5 -4l-2.5 -5q-9 -1 -29 -6q-3 -1 -18 -10q-9 -5 -20 -5l-27 1q-8 0 -16.5 -4.5t-12.5 -5.5h-42q-67 0 -104 -11q-8 -6 -27 -13q6 1 -21 1q-8 0 -14 -5q-9 -7 -12 -8q-16 -3 -48 -15 q-5 -5 -17 -14l-46 -19q-15 -12 -48 -34q-9 -3 -27 -12q-3 -4 -10 -12q-24 -15 -66 -50q-3 -6 -13 -18q-6 -3 -18 -13l-47 -63l-21 -21q-54 -70 -72 -114q0 -6 -2 -18q-7 -8 -16 -36q-4 -20 -5 -42q0 -9 4 -25t4 -23q3 -82 26 -121q9 -7 26 -24q3 -8 11 -21q5 -2 14 -7 q13 -16 44 -42l26 -6q80 -29 112 -28q7 0 23.5 1t25.5 1q13 0 37.5 -2t36.5 -2q27 0 43 4q10 5 29 11h27q15 0 43.5 10.5t42.5 10.5q1 0 3 1q10 7 33 18q7 0 22 3q3 1 9 6.5t12 5.5h14l-5 -13l-60 -26q-8 -1 -24 -6q-3 -1 -16 -9q-5 -3 -20 -3q-3 0 -13 -5.5t-13 -6.5 q-34 -7 -101 -25q-9 -5 -29 -11q-20 -1 -60 -4q-116 -10 -113 -10q-19 0 -35 6q-9 3 -34.5 4t-36.5 6q-4 2 -9 7q-2 2 -14 2q-22 0 -56 24q-4 7 -15 22q-5 2 -16 9q-5 10 -18 27q-18 18 -37 35q-19 22 -22 46q2 9 2 27l-5 5q0 10 -1 31q-1 7 -7 26q-4 14 -4 24q0 6 1 13 l16 40t21 57q12 33 28 54q14 11 38 36q6 13 21 36q6 3 17 12q5 9 17.5 23l36.5 43q4 8 12 22q17 9 46 33q1 4 5 11q4 2 12 7q13 13 41 36q17 9 50 31q8 7 25 20q13 4 38 15q11 10 35 27q7 2 23 7q8 7 27 18l55 20v3l4 8q1 4 -13 16t-10 35q2 14 8.5 21.5t12.5 15.5 q3 8 10 21q3 5 45 34q10 11 32 30q6 2 17 5q12 12 39 33q9 3 25 9l21 20q44 27 85 32q31 4 60 4zM1077 308q11 0 14.5 -11l6.5 -21q3 -3 8 -10q3 -10 0 -27q-7 -43 -30 -76q-8 -7 -22 -23q-9 -16 -30 -46q-17 -19 -83 -66l-10 -10q-6 -6 -11 -5h-12v1q0 3 1 9q0 -2 1 5 q17 -1 45 27q6 10 19 27q11 7 28 23q2 4 6 13q8 7 22 22q8 15 25 44q7 6 16 19q7 17 7 38q0 18 -5 41l-5 20q1 6 9 6z" />
<glyph glyph-name="F" unicode="F" horiz-adv-x="1294" d="M1238 972q3 0 25 -10l-2 -10q-11 -7 -57 -26q-36 -15 -54 -33q-11 -11 -23 -31q-17 -29 -21 -34q-21 -27 -58 -83q-7 -13 -47 -116q-11 -22 -26 -69q-3 -14 0 -23q3 -16 65 -16q48 0 120 9v-13q-71 -27 -132 -27q-7 0 -19 1.5t-18 1.5q-16 0 -22.5 -5l-14.5 -11l-3 -1 q-4 -5 -7 -27q-2 -14 -15 -36q-20 -35 -20 -36q-2 -5 -4 -16t-4 -17l-32 -64q-3 -12 -13 -36q-7 -7 -21 -23q-3 -11 -12 -34q-11 -14 -31 -42q-3 -9 -11 -28l-7 -3q-4 -5 -9.5 -15t-8.5 -14q-11 -8 -31 -24q-24 -27 -79 -73q-15 -5 -41 -20q-4 -5 -12 -13q-10 -3 -28 -10 q-23 -15 -72 -40q-10 -2 -30 -7q-8 -7 -26 -17q-25 -5 -74 -20q-5 -4 -14 -10q-12 -5 -31 -6q-27 -2 -31 -3q-14 -6 -42 -14h-9q-11 0 -27 4q-19 5 -25 6q-24 3 -49 5q-28 4 -46 12q-9 4 -18 15l-15 17q-12 10 -31 34q-3 13 -10 40q-6 7 -13 23q-3 14 2 40q6 35 29 74 q2 0 23 3q0 -1 -1 -5q0 -2 4 -2q-7 -20 -11 -46q-5 -29 -5 -54q0 -40 13 -63q11 -9 28 -27q3 -8 14 -20q37 -26 120 -26q103 0 205 40q10 6 29 16q12 2 36 10q12 10 37 28q4 1 11.5 2t10.5 3q6 8 21 21q12 5 35 17q10 12 33 33q7 2 17 10.5t20 29.5q12 25 19 33q13 11 33 36 q3 14 13 40q5 11 22.5 30.5t23 33.5t12 45.5t13.5 46.5q8 10 22 31q6 14 12.5 42t12.5 41q1 2 7 10t6 10v7q-1 4 -1 3l1 6q-15 5 -42 7q-36 2 -43 3v17l34 18q7 3 36 3q20 0 27 6q2 5 6 13q10 11 24 36q1 13 5 38q2 12 11 26q13 20 15 24q6 19 23 56q8 7 24 23q10 16 29 49 q19 27 51 83q-5 5 -9.5 10t-17.5 5q-8 0 -24 -2t-24 -2q-11 0 -33 4.5t-34 4.5q-15 -4 -42.5 -8t-115.5 -4h-22q-15 -1 -23 -1t-21.5 2t-20.5 2q-10 0 -20 -4q-13 -6 -18 -7q-3 -1 -33 2q-11 0 -24 -6q-16 -8 -23 -9q-21 -2 -41 -5q-26 -3 -41 -12q-28 -16 -37 -42 q0 -2 -2 -5q0 -7 -2 -20q0 -3 -2 -7.5t-35.5 -21.5t-38.5 -17h-16q0 3 -1 9q-1 5 0 9t10 11.5t11 20.5q2 9 9 14t14 9q6 9 21 24q13 11 36 20l40 14q14 8 44 22q68 25 115 25q6 0 19.5 -1t20.5 -1q9 0 25.5 4t23.5 4q4 0 11.5 -2t11.5 -2h3q19 10 57 10q16 0 46 -2t45 -2 q9 0 26 2t25 2q80 0 116 -3q4 0 15 -2q8 -2 14 -2q19 0 45 15q31 19 41 22q9 0 26 3l8 4t11 3z" />
<glyph glyph-name="G" unicode="G" horiz-adv-x="1057" d="M862 890q48 0 57 -6q4 -3 5.5 -10.5t3.5 -10.5q-58 -34 -93 -34q-9 0 -27.5 3t-28.5 3q-76 0 -137 -25q-14 -6 -35 -21q-25 -19 -33 -24q-22 -9 -63 -31q-4 -7 -15 -17l-8 -1q-10 -11 -30 -31q-25 -17 -71 -57q-11 -16 -36 -46q-7 -4 -18 -11q-1 -5 -7 -16 q-11 -8 -29 -25q-2 -5 -7 -15q-11 -9 -29 -29q-4 -10 -14 -28q-6 -4 -14.5 -14t-16.5 -32q-10 -32 -12 -36q-8 -12 -21 -47q-2 -11 -5 -33q-7 -28 -19 -84q-5 -31 -3 -42q1 -4 5.5 -12t3.5 -14q-2 -4 -4 -12q-1 -5 4 -11t5 -8q2 -18 10 -54q6 -12 24 -31t28 -22q4 -1 15 -1 q4 0 33 1q10 0 28.5 -1t26.5 -1q59 0 94 15l33 20q27 8 79 33q12 12 37 32q14 5 41 20q20 21 63 57q6 1 16 5q5 7 16 19q11 5 33 21q9 16 32 44q14 4 37 21q4 14 14 40q11 16 29 49q2 10 9 29q10 9 22 30q1 6 3 17q0 4 1 5q8 19 36 45q32 30 88 37q1 -2 5.5 -9t3.5 -12 q-2 -14 -27 -53q-22 -34 -37 -52l-10 -5q-10 -18 -23 -67q-18 -62 -21 -71q-11 -15 -25 -49q0 -7 -2 -20q-2 -8 -9 -20q-10 -15 -12 -20q-3 -16 -12 -49q-8 -10 -20 -37q0 -8 -2 -24q-2 -9 -8 -19q-9 -14 -11 -18q-4 -17 -16 -48q-8 -8 -17 -24q0 -1 -1.5 -9t-21.5 -30 q-24 -27 -26 -30q-14 -25 -50 -71l-26 -15l-69 -55q-41 -35 -72 -51q-12 -3 -35 -12q-22 -17 -68 -44q-52 -21 -110 -21q-42 0 -70 13q-7 3 -16.5 14t-15.5 14q-10 1 -27 8q-5 4 -6 13q0 13 -1 15q33 -18 67.5 -35t77.5 -17q53 0 89 20q6 6 19 17q20 7 56 24q11 9 35 27 q25 12 72 46q6 11 22 33q14 11 39 36q6 14 20 41q12 13 31 40q6 21 22 61q14 21 34 67l3 28q2 14 19 48t20 51q4 20 -19 20q-20 0 -43 -21l-38 -34q-23 -11 -68 -37q-10 -11 -32 -29q-15 -4 -44 -17q-12 -10 -37 -27q-21 -11 -54 -22q-51 -17 -55 -18.5t-48 -23.5 q-23 -12 -53 -12q-15 0 -26.5 -6t-19.5 -7q-11 -3 -38 -4q-61 -2 -82 11q-3 4 -11 12q-34 29 -36 32q-13 14 -19 46q1 14 0 40q-2 8 -15 23t-14 27q-1 15 4 43q15 77 37 119q11 13 28 40q2 13 9 37q10 8 26 24q4 12 12 29q5 2 14 8q10 11 25.5 38.5t25.5 38.5q6 5 18 16 q8 17 29 49q7 7 23.5 16.5t23.5 16.5q13 17 41 48q14 7 40 25q16 10 43.5 36.5t43.5 36.5q8 2 21 8q5 6 16 16q26 13 76 41q6 6 19 16q23 12 60 21q30 8 60 15q28 11 85 25q15 2 48 2z" />
<glyph glyph-name="H" unicode="H" horiz-adv-x="2329" d="M2244 1299h1q60 0 60 -50q0 -56 -60 -130q-49 -61 -107 -101q-10 -4 -29 -14q-12 -12 -36 -30q-6 0 -18 -4q-15 -14 -47 -40q-28 -14 -81 -44q-11 -9 -36 -25q-15 -5 -42 -18q-6 -7 -21 -18q-5 -2 -15.5 -2t-15.5 -2l-6 -9q-69 -40 -149 -78q-16 -4 -43 -18 q-3 -8 -12 -22q-14 -13 -38 -43q-8 -14 -18.5 -42t-18.5 -41q-14 -15 -39 -48q-9 -13 -19 -40t-17 -39q-19 -22 -51 -70q-7 -22 -25 -65q-3 -6 -15 -23q-7 -11 -10 -27q-15 -17 -35 -46q-3 -5 -5.5 -15t-4.5 -15q-10 -13 -28 -40q-4 -15 -17 -44q-4 -8 -18 -24 q-6 -6 -10 -31q-7 -11 -18 -32q-6 -15 -11 -42q-5 -30 -8 -41q12 -10 19.5 -14.5t20.5 -7.5l-2 -11t-52 -27q-46 -15 -62 -15q-11 0 -19 7.5l-16 14.5q2 9 10 26q12 7 31 26q12 27 40 79q10 10 27 31q10 16 20 47.5t17 44.5q4 8 12 14q5 3 8 22q1 6 12 19.5t15 37.5 q1 6 13.5 17.5t15.5 16.5q10 19 21 55.5t19 52.5q6 6 17 18q6 10 42 87l10 9q2 9 5 29q2 10 12.5 26.5t13.5 23.5q6 20 13 40.5t22 33.5q3 2 3 5q2 10 -14 26q-51 -13 -118 -35q-91 -31 -106.5 -47t-30.5 -47l-22 -51q-11 -20 -36 -56t-35 -53l-16 -34q-3 -4 -25 -31 q-15 -20 -18 -34q-2 -9 -12 -17q-16 -12 -18 -15q-17 -25 -53 -73q-18 -15 -52 -49q-3 -8 -12 -20.5t-30 -28.5q-24 -17 -32 -25q-9 -14 -33 -40q-8 -3 -24 -13l-2 -8h-4l-21 -21q-27 -25 -83 -71q-15 -8 -43 -26q-7 -8 -23 -22q-14 -6 -42 -22q-8 -10 -27 -25 q-11 -4 -32 -14q-13 -11 -41 -31l-48 -21q-14 -13 -44 -36q-17 -10 -47 -19q-37 -12 -47 -16q-39 -18 -78 -34t-84 -16h-34q-23 1 -34 1q-19 0 -51 38q-31 35 -34 56q1 11 0 34q0 5 -6 28q-4 15 -1 31t13 39q14 34 15 37q3 10 9 41q11 64 66 116l29 18q12 13 38 35 q11 4 32 13q11 12 36 31q10 2 28 8q13 12 40 31q18 6 52 22q14 13 45 35l135 65q30 21 92 52q9 1 27 6q11 4 65 40q47 31 70 34q-7 -1 18 -1q5 0 17.5 8.5t15.5 9.5q19 8 73 17q2 -6 2 -10q-2 -10 -38 -21l-46 -12q-3 -1 -156 -66q-15 -7 -39 -23q-28 -19 -40 -25 q-36 -14 -107 -48q-15 -13 -46 -35q-12 -4 -38 -14q-18 -14 -54 -38q-9 -2 -28 -9q-20 -10 -48 -32q-38 -28 -47 -34q-25 -10 -68 -39q-6 -6 -34.5 -48t-30.5 -48q-2 -14 -7 -44q-2 -9 -10.5 -23t-10.5 -20q-7 -20 -8 -37q-4 -23 -4 -44q0 -61 32 -97q35 -39 99 -39 q52 0 108 20q25 14 77 40q13 3 37 12q8 9 26 23q10 2 28 8q34 16 79 48q16 16 50 45q17 7 48 25q16 11 40.5 38t38.5 37q25 15 70 52q18 21 55 61q15 10 41 34q24 38 76 109q10 7 25 23q4 13 17 39q6 4 15 13q4 10 14 31q4 7 38 49q21 25 26 56q3 18 22 49q27 46 28 47 q2 12 5 35q2 15 24 42.5t26 53.5q2 10 6 17l10 4q4 10 14 31q11 9 26 31q4 21 13 60q5 11 7 19q1 5 -4.5 10t-6.5 7q-18 -4 -54 -14q0 1 1 1q-1 -1 -4 -1q-15 0 -14 2q2 1 4 3q7 3 14 11t11 11q9 7 47 26q30 15 43 30q5 12 19 36q11 13 48 37t50 24q23 0 17 -1q1 -2 7 -11 q3 -6 1 -15l-23.5 -39t-32.5 -76q-17 -53 -30 -76q-8 -8 -21 -27q-24 -37 -50 -105q3 -1 10 -5t14 -4q11 0 25 9q19 11 23 13q18 4 55 14q13 8 39 21q17 1 50 9q21 13 62 35h5q13 15 25.5 50.5t22.5 49.5q4 5 27 25q18 14 20 29q2 10 18 24l23 22q9 20 31 57q11 8 32 26 q5 5 39 44q25 29 41 39q6 1 18 5q13 13 42 34q7 3 22 10q16 14 51 39q17 5 51 18q19 14 59 39q16 8 44 16q34 10 45 14q19 14 66 31q15 2 27 2zM1651 782h7q2 0 1 -4q14 1 41 9q9 8 29 21q20 5 57 22q5 7 16 18q12 8 38.5 18t37.5 16q11 11 37 31q14 5 41 17q10 9 32 26 q20 7 57 26q15 16 47 45l55 40q37 28 47 46q3 9 10 27q8 14 17 28q6 10 10 36q2 11 2 19q0 36 -32 36q-11 0 -16 -1q-7 -6 -20 -14l-61 -22q-39 -15 -57 -29q-3 -5 -11 -14q-14 -10 -46 -23t-45 -21q-75 -48 -106 -83q-7 -14 -24 -39q-15 -12 -42 -39q-10 -18 -32 -53 l-51 -63.5t-39 -75.5zM1148 799l-2 -9q-36 -24 -110 -60q-17 -2 -51 -10l-28 -11q-16 -7 -30 -7q1 0 -44 6q1 2 1.5 5t0.5 4q0 9 4 3q5 7 17 18q10 1 32 5q12 5 37 13q25 0 75 4q15 3 49 22q29 18 49 17zM1037 520q9 0 9 -6q-1 -4 -7 -12q-35 -13 -107 -35l2 14 q82 39 103 39z" />
<glyph glyph-name="I" unicode="I" horiz-adv-x="746" d="M679 800q26 0 23 -17q-3 -15 -29 -46q-14 -11 -38 -35q-7 -8 -11 -23q-7 -21 -9 -24t-29 -53q-18 -33 -22 -54q-1 -12 -5.5 -36t-21.5 -63q-25 -55 -28 -63q-43 -116 -69 -165q-51 -96 -117 -139q-10 -3 -29 -11q-11 -11 -36 -28q-11 -2 -33 -8l-54 -23q-30 -12 -58 -12 q-44 0 -96 23q-7 3 -22 16.5t-16 19.5v4q1 2 1 3q14 62 21 71q5 2 13 9q9 -3 22 -13q3 -5 2 -17q-1 -15 -1 -18q6 -63 69 -63q42 0 101 20q65 21 89 50q5 12 18 36q6 3 18 12q7 7 26.5 42.5t21 44.5l4.5 27.5t26 59.5t27 63q0 2 3 34q2 11 11 24.5t10.5 22.5l4.5 28 q2 9 10.5 23t10 22.5l4.5 26.5q2 13 13 26.5t12 21l3 22.5q-2 1 -6 8q-2 3 -13 3q-18 0 -65 -13q-50 -13 -61 -22q-6 -5 -12 -19.5t-11 -20.5l-69 -39h-7q-14 0 -12 12q4 20 29 43q6 0 8.5 0.5t22 18.5t23.5 20q15 8 99 32q32 6 86 23q29 15 60 55q3 7 12 18q3 3 38 24 q9 7 30 16h8z" />
<glyph glyph-name="J" unicode="J" horiz-adv-x="712" d="M670 829q27 0 23 -24q-1 -2 -4.5 -7l-5 -7t-6 -15.5t-4.5 -16.5q-11 -31 -25 -57q-10 -14 -27 -43q-3 -14 -11 -42q-11 -17 -28 -55q-1 -2 -4 -21q-2 -10 -14 -33q-16 -28 -18 -34q-13 -35 -41 -104q-8 -17 -25 -41q-27 -38 -29 -40q-8 -18 -28 -54q-9 -10 -25 -30 q-12 -31 -43 -90q-7 -6 -18 -18q-2 -7 -8 -20q-5 -2 -13 -8q-6 -14 -21 -38q-15 -11 -38 -34q-1 -6 -6 -16q-13 -9 -36 -27q-20 -23 -65 -65q-12 -6 -35 -20q-13 -14 -41 -38l-28 -12l-44 -31q-17 -5 -50 -19q-16 -12 -48 -32q-2 -1 -9 2q-6 0 -18 -9q-15 -10 -19 -11 q-9 0 -28 -4q-12 -7 -38 -19q-57 -21 -111 -22q-19 0 -36 6q-23 9 -31 11h-11q-7 0 -13 10q-9 14 -10 15q-17 8 -41 30q1 6 -1 16q-9 8 -23 26q-4 8 -3 23q1 19 0 23q-1 6 -6.5 19t-5.5 21q0 13 3 30q14 78 42 115q42 56 140 97q-1 -4 2 -11q-27 -16 -75 -54 q-27 -27 -44 -78q-3 -11 -9 -30q-6 -8 -13 -24q-3 -17 -1 -59q2 -43 8 -56q5 -5 13 -16q36 -65 78 -76q21 -6 52 -6q33 0 57 5q9 5 28 12q-5 -1 14 -1q6 0 17 7.5t15 8.5q15 3 44 12q10 7 30 18q17 6 49 21q8 7 24 19q9 3 29 11q15 8 38.5 31t34.5 31q15 7 43 26q1 11 12 18 l20 13q6 10 20 28q10 6 28 23q3 9 12 27q11 8 28 26q5 9 10 27.5t11 27.5q4 6 21 19q9 7 14 33q3 18 22 39q29 33 31 36q13 28 42 85q9 9 25 30q3 12 13 35q7 7 19 23q5 9 9 35q3 18 10.5 26.5t9.5 12.5q7 17 14 52t15 52q10 8 24 36q0 8 2 24q1 8 18.5 31.5t21.5 45.5 q2 12 0 36q-3 0 -9 2t-10 2q-10 0 -55 -13t-54 -18t-18 -18q-12 -17 -16 -21q-10 -10 -41 -28t-41 -18q-4 0 -11 2t-10 2q1 2 1 13q0 1 18 14q17 17 56 45l28 13q11 9 35 22q12 2 36 8l9 8q32 3 96 16q12 4 40 29q24 21 45 21z" />
<glyph glyph-name="K" unicode="K" horiz-adv-x="881" d="M1929 1667q9 0 22 -2q17 -2 21 -2l-3 -15q-15 -5 -29 -11q-3 -1 -30 -1q-10 0 -18 -6q-12 -8 -16 -9q-18 -4 -53 -16q-6 -6 -19 -16l-43 -24q-25 -14 -39 -30q-5 -12 -17 -34q-11 -18 -36 -47q-18 -14 -51 -45q-3 -7 -11 -20q-10 -6 -26 -19q-2 -6 -7 -16 q-20 -23 -56 -73q-8 -21 -29 -58q-6 -5 -18 -16q-8 -16 -27 -42q-5 -2 -13 -8q-13 -14 -33.5 -45t-31.5 -44q-21 -18 -61 -58l-27 -42q-21 -18 -57 -58q-1 -6 -7 -18t-24 -27q-21 -17 -25.5 -24l-12.5 -20l-36 -28q-27 -26 -78 -69q-11 -12 -32 -30q-5 0 -17 -5 q-5 -3 -29.5 -26.5t-32.5 -23.5q-16 0 -12 1q1 4 2 12v3q3 7 22 18q25 14 28 17q19 16 54 50q5 8 17 23q15 11 44 35q35 35 43 49q2 7 9 21q11 8 31 27q9 16 30 46q8 6 23 19q19 27 61 77q10 7 27 23q13 24 43 69q12 9 31 29q8 9 18.5 29.5t15.5 28.5q11 9 29 30 q1 4 2.5 13.5t19 30t19.5 32.5q1 9 18 23l23 21q9 15 31 42q24 19 60 57q2 8 8 25q11 10 30 30q1 5 6 15q9 5 26 16q26 21 80 57q27 9 79 32q4 5 13 11q28 16 71 16zM721 852l21 -8q-8 -51 -27 -88q-6 -7 -14 -24q-10 -35 -39 -104q-6 -10 -21 -26q-7 -7 -12 -34 q-1 -7 -14 -22t-13.5 -22t-3.5 -19q2 -2 8 -9q2 -4 14 -4q37 0 133.5 50.5t98.5 50.5t3.5 -2t4.5 -1q-66 -68 -178 -112q-2 -1 -38 -10q-19 -5 -37 -21q-2 -5 -5 -15q-2 -10 2 -24q4 -18 4 -23q1 -20 -3 -56q-5 -39 -5 -57q0 -7 3.5 -20.5t3.5 -20.5q-1 -22 -24 -141 q-5 -26 -5 -48q0 -6 2.5 -17.5t2.5 -17.5q-4 -17 -10 -50q-2 -13 2.5 -23t4.5 -16t-11 -48q2 -18 3 -57q-1 -23 -11 -79q-9 -51 -9 -79q0 -9 4 -20q2 -7 -3 -36q-2 -13 1 -37q3 -27 2 -38q-4 -38 -9 -76q-5 -46 -3 -75q4 -8 8 -22q0 -15 -5 -41q-5 -30 -6 -42q0 -9 4 -21 q7 -17 8 -20q0 -7 1 -19q5 -15 31 -15q19 0 38 6l8 9q4 0 6 -1h18l2 -11l-46 -21q-18 -8 -52 -8q-84 0 -87 50q1 8 -1 25q-1 6 -7 22q-2 6 2 29q-3 14 -5 41q1 29 14 101q4 10 9 31q2 9 -2 14.5t-5 8.5q-1 7 6 51q2 13 -3.5 33.5t-3.5 32.5q6 16 15 47q3 14 1 36 q-1 28 -1 36q3 14 8 43q6 36 4 65q-4 8 -8 22q0 14 11 75q3 16 1 39q-1 29 -1 38q2 12 7 36q2 9 -1.5 23.5t-3.5 21.5q0 8 4.5 25t4.5 26q0 10 -4.5 28t-4.5 29q0 -6 6 27q1 7 -3 16t-4 14q0 -8 7 34q2 10 -4 18.5t-6 14.5q1 -6 5 26q1 8 -4 12.5t-6 7.5q-8 0 -23 -4 q-8 -14 -21 -34q-21 -16 -60 -51q-4 -8 -15 -23l-53 -40q-14 -15 -47 -42q-9 -3 -25 -11q-14 -15 -46 -42q-13 -5 -37 -16q-10 -8 -27 -19h-10q-6 0 -20 -10q-18 -13 -20 -14q-19 -5 -58 -18q-46 -23 -141 -59q-49 -14 -119 -23q-60 -8 -120 -15q0 3 2 8v3l17 8l3 15h21h2 l2 9q33 0 87 10.5t83 10.5q9 0 25.5 8t23.5 9q-6 -1 18 -1q6 0 17 8t14 9q17 4 53 14l30 20q13 2 37 11q7 8 22 20q13 4 37 15q11 11 34 31q14 7 43 24q14 16 44 42q8 2 20 9t24 24q15 24 19 28q15 12 42 39q3 8 11 23q10 5 27 20q7 8 14.5 27t13.5 27q7 3 18 12q5 13 17 38 q15 13 39 42q4 9 13 27q12 8 28 28q1 10 4 29q1 9 12 25.5t15 37.5q7 15 16 46q1 6 1 11q0 8 -5 13t-6 7q-45 -18 -121 -36q-9 0 -28 -2q-8 -2 -29 -12q-13 -6 -37 -6q-13 0 -35 -4q-26 -5 -35 -6q-1 4 -11 8q2 7 5 16q2 2 2 0l5 8q6 0 21 4q16 10 32 18.5t38 8.5 q12 0 35.5 -3t35.5 -3q52 0 86 21l5 8q13 2 37 11q6 8 19 23q37 43 79 58z" />
<glyph glyph-name="L" unicode="L" horiz-adv-x="841" d="M799 802q22 0 19 -19q-3 -15 -20 -38t-21 -34q-1 -3 -4 -33q-2 -9 -9.5 -20t-9.5 -17q-3 -13 -12 -40l-10 -8l-48 -91q-5 -12 -20 -36q-16 -12 -44 -41q-5 -10 -16 -28q-11 -13 -34 -27q-31 -20 -36 -24q-22 -23 -73 -61q-1 -1 -27 -10q-19 -6 -22 -13q-1 -1 -1 -4 t-2 -12q11 -8 88 -53q54 -33 85 -59q9 -13 30 -36q22 -15 62 -49q3 -8 12 -21q11 -4 30 -16q13 -11 31.5 -41t31.5 -41q10 -5 30 -16q10 -12 31 -33q15 -7 40 -24q4 -8 14 -21q7 -2 18 -8q12 -10 31.5 -35t30.5 -35q15 -9 43 -28q14 -18 45 -50q15 -12 47 -29t44 -27 q3 -2 7 -10q2 -3 14 -3q12 -11 35 -25q11 0 32 -4q6 -5 19 -11q19 -7 58 -8q16 -1 35 3q12 2 29 12q24 15 29 17q31 10 93 37q19 14 60 41q20 10 55 37q3 7 12 19q3 3 12 8t12 9q10 14 22 88q2 11 4 19q2 0 7 -1h8h5q11 -37 6 -64q-7 -39 -62 -91l-12 -14.5t-15 -6.5 q-5 -6 -15 -15q-12 -3 -35 -12q-21 -16 -65 -41q-15 -3 -43 -13q-6 -6 -19 -17q-27 -15 -63 -28h-13q-4 0 -13.5 -5.5t-12.5 -6.5q-8 -3 -34 -3q-14 0 -29 -7t-19 -7q-8 0 -22 5.5t-19 6.5q-15 0 -44 4q-14 10 -44 25q-10 0 -29 4q-6 7 -20 21q-9 1 -24 8q-4 9 -15 25 q-12 4 -34 16q-5 12 -20 32q-17 7 -48 25q-9 7 -21.5 25t-20.5 25q-6 2 -18 7q-5 11 -20 30q-7 1 -18 7q-7 13 -27 33q-8 2 -23 8q-7 12 -24 33q-8 4 -20 16q-1 6 -6 16q-12 7 -33 21q-10 13 -30 36q-23 16 -66 50q-13 20 -47 53q-21 9 -61 32q-11 8 -27 31t-26 31t-28 14 q-24 7 -30 10l-57 32q-21 11 -72 11q-18 0 -34 6q-19 8 -27 9q-9 1 -69 0q-52 -1 -79 21q-21 14 -21 19v4l3 13q44 28 93 28q42 0 93 -16q9 -5 26 -12q8 -2 37 -2q17 0 34 -7.5t27 -7.5q43 0 102 48q20 17 86 83q12 7 30 25q2 8 8 25q5 9 21 26t21 27l5 27l18 34 q12 29 16 49q5 29 -12 29q-15 0 -59 -24.5t-45 -24.5q-17 0 -17 9q0 7 12 15q10 2 31 9q2 1 45 24q50 27 70 53q5 13 18 37q12 16 66 45q8 7 28 16q3 1 9 1z" />
<glyph glyph-name="M" unicode="M" horiz-adv-x="1230" d="M889 827l18 -12q-5 -24 -21 -71q-6 -8 -16 -25q-8 -30 -32 -89q-7 -7 -16 -24q0 -5 -2 -16.5t-17.5 -38.5t-18.5 -40q0 -8 -2 -24q-2 -9 -8 -19q-9 -14 -11 -18q-4 -9 -9 -27.5t-9 -27.5q-7 -16 -20 -42q-23 -46 -29 -59q-16 -36 -20 -59.5t-1 -32.5l3 -2t3 -5h3 q3 0 6.5 -1.5t5.5 -1.5q12 0 27 24l21 34q19 19 54 61q7 15 23 44q9 8 25 24q7 13 22 36q3 3 10.5 8t9.5 7q1 7 7 21q9 6 24 20q5 11 16 32q6 7 21.5 14.5t20.5 10.5l29 30q13 7 33 25q5 14 19 40q14 8 36 27q5 10 18 29q35 42 103 59q0 -2 3.5 -5t1.5 -13l-20 -40 q-2 -15 -12 -45q-8 -8 -21 -25q-14 -27 -45 -79q-10 -10 -26 -32q-14 -26 -22 -71l-15 -74q-5 -19 -27 -62q-21 -38 -25 -62q-2 -19 -8 -59q-4 -21 -14 -37q-13 -19 -16.5 -28.5t-5.5 -30.5t-2 -24q0 -4 6.5 -11.5t5.5 -14.5q-3 -15 -3 -14q-96 -41 -111 -41q-5 0 -9 4t-7 5 q1 1 1.5 3t1 7t0.5 8t2 5l19 13q47 37 59 67q3 7 7 24q1 20 6 59q2 13 16 33q5 27 20 73q11 13 28 39q9 23 16 62q8 46 13 63q21 39 44 90q0 3 -4 9.5t-4 7.5q-14 -1 -39 -12q-3 -8 -11 -24q-12 -7 -34 -23q-6 -12 -21 -32q-5 -2 -14 -9q-16 -27 -49 -76q-16 -13 -44 -44 q-9 -18 -33 -51q-7 -3 -19 -12q-3 -8 -11 -25q-12 -8 -34 -27l-31 -49q-18 -16 -50 -51q-23 -28 -32 -49q-4 -10 -7 -24q-5 -26 -35 -48q-4 -3 -53 -32l-5 -8h-3h-14q0 4 -4 18q-3 11 -2 18q7 13 20 40q10 39 41 116q13 19 33 57q6 29 24 87q18 29 42 90q2 12 -4 18.5 t-13 12.5q-7 0 -20 -4q-9 -4 -30.5 -31t-29.5 -33q-13 -7 -37 -24q-12 -17 -40 -48l-121 -93q-12 -13 -37 -35q-20 -8 -57 -29q-7 -10 -26 -27q-21 -8 -61 -29q-7 -9 -24 -24q-10 -2 -28 -7q-26 -19 -68 -38h-5q-3 1 -5 1q-7 0 -20 -9q-17 -10 -21 -11l-28 -3 q-21 -13 -67 -33q-18 -5 -46 -5q-88 0 -82 34q2 10 18 20q24 15 25.5 16t17.5 23q10 14 22 16q3 1 9 1q-2 0 30 -9q21 -6 69 -6q63 0 95 10l36 20q16 3 46 12q8 6 23 16q16 5 47 20q13 14 44 36q9 3 25 12q20 14 48 39q43 39 46 42q25 17 70 56q16 22 51 64q12 8 33 27 q9 17 29 49q17 16 46 52l6 20q9 9 26 28q9 17 29 52q14 11 34 35q4 8 11 46q2 15 11 29t11 21q3 19 13 49h4q3 2 28.5 24t27 25.5t6.5 9.5q3 3 39 17z" />
<glyph glyph-name="N" unicode="N" horiz-adv-x="1016" d="M640 811h-1q8 -4 22 -12v-71q-4 -8 -10 -25q-1 -30 -8 -89q-1 -3 -5.5 -10.5t-3.5 -13.5q0 -1 1 -16q1 -12 -7 -39t-7 -40q2 -8 4 -24q1 -9 -3 -19q-5 -13 -6 -18q0 -19 -2 -55q-1 -9 -9 -42q-20 -84 -17 -120q2 -21 7 -31q4 -1 9 -7h3q3 0 7 -1.5t6 -1.5q12 0 21 24 l10 34q15 19 39 61q3 15 12 44q7 8 16 24q4 12 14 36q6 6 13 15q0 7 3 21q7 6 18 20q2 11 10 32q4 6 16.5 13.5t16.5 11.5l21 30q11 8 26 25q1 14 7 40q3 7 15.5 15t15.5 12q2 10 9 29q23 41 86 59q5 -1 12 -18q1 -9 -4 -21q-5 -15 -6 -19v-27q2 -10 0 -18q-6 -8 -14 -24 q-6 -27 -23 -80q-5 -12 -19 -19q-9 -5 -12 -5q-6 0 -13 18q-5 7 -14 17q-14 -1 -35 -12q-1 -8 -6 -24q-9 -7 -25 -23q-3 -12 -13 -32q-4 -2 -12 -9q-9 -27 -29 -76q-12 -13 -32 -44q-5 -18 -19 -51q-6 -3 -14 -12q-1 -9 -6 -25q-10 -9 -25 -27q-6 -17 -20 -49 q-13 -16 -35 -51q-8 -16 -19 -49q-2 -8 0 -24q3 -26 -22 -48l-44 -32l-4 -8h-2h-14q-7 12 -16 36q-1 9 3 20q5 15 6 20q-1 40 9 116q8 19 18 57q-2 29 0 87q1 4 12 44q7 27 5 46q-1 12 -8.5 18.5t-16.5 12.5q-7 0 -19 -4q-8 -4 -22 -31t-20 -33q-11 -7 -30 -24 q-7 -17 -27 -48l-96 -93q-8 -13 -28 -35q-19 -7 -50 -29q-4 -10 -18 -27q-18 -8 -52 -29q-5 -10 -17 -24q-9 -2 -28 -7q-21 -19 -57 -38h-4q-4 1 -5 1q-7 0 -19.5 -9t-17.5 -11l-27 -3q-18 -13 -58 -33q-16 -5 -45 -5q-87 0 -91 34q-1 10 13 20q21 15 23 17t10 21 q6 15 16 17q3 1 9 1q-2 0 33 -9q23 -6 71 -6q63 0 92 10q9 8 30 20q15 3 43 12q6 6 19 16q14 6 41 20q11 13 33 36q8 4 22 12q17 14 38 39q32 39 35 42q20 17 55 56q10 22 35 64q9 8 24 27q5 16 17 49q12 17 29 52q0 7 3 20q6 9 17 28l16 52q10 11 24 35q2 6 -1 46 q-1 15 3.5 29t4.5 21q1 8 -2 29q-2 12 1 20h4q3 1 23 23.5t20.5 26t3.5 9.5q3 3 34 17z" />
<glyph glyph-name="O" unicode="O" horiz-adv-x="624" d="M494 760q-6 0 24 -7q6 1 16 0q32 0 51 -73q14 -54 4 -111q-5 -27 -10 -42q-7 -10 -19 -31q-9 -29 -34 -87l-38 -49q-6 -11 -21 -31q-4 -2 -11 -6q-2 -7 -10 -21q-12 -8 -33 -27q-1 -5 -6 -14q-12 -14 -37 -33q-39 -29 -40 -30q-15 -16 -50 -44q-26 -12 -76 -39l-63 -47 q-40 -28 -68 -28q-12 0 -14 4t-5 9q-10 12 -11 21q-2 22 -2.5 24t-7.5 18q-4 10 -2 21q1 8 4 23q1 6 -3 20q-2 5 1.5 18t8.5 39q1 14 4 43q8 12 19 40q0 8 2 22.5t18 40t19 41.5q2 12 9 20q11 10 13 14q2 12 13 36q9 6 24 20q5 11 20 32q9 4 24 16q9 10 18 33.5t18.5 31.5 t31.5 22q6 9 21 24q9 3 27 11q6 8 20 21q15 5 45 17q9 7 31 18q8 0 25 2q1 0 25 11q14 7 25 7zM163 371v-3q-1 -2 -1 -4q-9 -26 -23 -80q-4 -21 -2 -50q1 -25 3 -50q1 -34 2 -42q6 -22 28 -21q5 0 14 1l25 17q30 18 84 62q10 14 30 39q10 6 24 16q1 5 7 14q6 5 16 15 q6 11 19 31q15 17 40 52q10 33 35 98q1 2 16 27q11 18 11.5 27t3.5 27q6 10 13 30q1 4 -3 9.5t-4 7.5q0 9 -3 27q-5 7 -13 20q0 8 -4 23q-15 35 -66 34q-53 -1 -84 -41q-3 -6 -10 -18q-9 -5 -27 -18q-7 -6 -38 -58q-15 -18 -42 -56q-9 -16 -17 -42q-11 -36 -14 -42 q-6 -7 -15 -24q-1 -9 -5 -28z" />
<glyph glyph-name="P" unicode="P" horiz-adv-x="1179" d="M116 902h-1q6 -3 18 -3q-1 -4 -2 -13q-1 -4 -12.5 -14.5t-13.5 -24.5q-4 -26 10.5 -48t38.5 -32q46 -19 118 -19q29 0 59 3q10 5 30 12q46 2 138 15q8 5 25 9.5t48 3.5q36 -1 50 1q9 1 26 6.5t31 5.5h23q15 -1 23 -1q16 0 52 2t54 2q23 0 67 -3l23 -12q21 -2 61 -10 q5 -2 20 -12q9 -5 27 -5q13 0 16.5 -4l7.5 -9q11 -4 31 -14q6 -9 21 -26q6 -2 17 -8q17 -16 28 -61q11 -41 11 -80q0 -35 -12 -59q-13 -10 -36 -33q-6 -11 -21 -33q-10 -6 -29 -22q-9 -14 -32 -37q-10 -3 -31 -11q-9 -9 -30 -25q-11 -3 -34 -11q-9 -8 -30 -22 q-10 -3 -31 -11q-48 -24 -49 -24q-27 -12 -50 -12t-44 11l5 14q21 -1 64 3q12 9 36 23q4 1 8 -1q8 0 23 11q19 14 22 15q18 6 54 22q13 8 25 24q16 22 21 27q4 2 13 8q4 11 15 29l17 14q12 15 26 47t14 49q0 8 -4.5 16.5t-5.5 15.5q2 12 -2 34q-7 5 -19 18q-1 12 -8 32 q-6 2 -17 7q-8 11 -28 30q-18 12 -50 19l-54 10q-10 2 -34 15q-16 8 -45 8q-68 -1 -65 -1q-11 0 -33.5 3.5t-33.5 3.5q-17 0 -52 -7.5t-52 -7.5q-8 0 -24.5 1.5t-23.5 1.5q-17 0 -28 -5q-14 -7 -20 -8t-34 -1q-19 0 -36 -8q-21 -11 -31 -13q-16 -3 -47.5 -3.5t-47.5 -4.5 q-9 -5 -28 -10t-100 -5q-63 0 -78 5q-26 9 -47 37t-21 57q0 14 5 26q13 31 105 77zM793 565h1q-2 -12 -10 -32q-8 -28 -26 -84q-8 -14 -17 -36q0 -10 -2 -30q-2 -12 -13 -34q-11 -25 -14 -35q-22 -82 -81 -232q-35 -63 -72 -137q-6 -6 -15 -17q23 -3 55 -2q83 1 126 13 q-1 -1 -1 -4q1 -3 0 -7q-1 -9 -44 -24q-39 -13 -52 -13q-8 0 -19 3q-14 4 -21 5t-29 1q-12 0 -37 -1t-38 -1q-9 0 -27.5 2.5t-28.5 2.5t-19.5 -6t-14.5 -6h-8q-6 1 -8 2t-10 9q1 2 1.5 6t2.5 12l18.5 11t23.5 5q6 0 21 -1t23 -1q6 0 17 2t27 18.5t22 27.5q2 10 9 30 q26 52 56 123q-2 9 -2 29q2 9 22 27t24 24q25 43 42 142q2 15 -4 31.5t-6 27.5q0 12 19 73q8 26 14 38q9 21 22 35q32 33 56 34q12 0 16 -8.5t1 -22.5z" />
<glyph glyph-name="Q" unicode="Q" horiz-adv-x="716" d="M607 744q50 0 77 -64q21 -48 13 -92q-8 -15 -19 -47q-1 -11 -4.5 -32.5t-20.5 -49.5q-27 -43 -28 -45q-3 -12 -13 -34q-7 -3 -19 -30l-37 -45q-7 -12 -23 -35q-8 -5 -22 -16q-5 -9 -18 -26q-8 -5 -22 -17q-6 -12 -22 -33q-10 -6 -27 -19q-19 -22 -63 -63q-24 -13 -70 -41 q-12 -11 -37 -30q-3 -1 -9 -2.5t-9 -3.5l-28 -27l-62 -39q-17 -9 -51 -30q-7 -3 -10 -6q1 -1 1.5 -2.5l0.5 -1.5q-1 -5 -6 -9q11 -5 85 -23q8 -4 25 -10q-5 1 23 1q8 0 19.5 -6t17.5 -7h28q7 0 14.5 -5t10.5 -6q-5 1 32 1q20 0 51 -9q41 -12 50 -14q16 0 45 -3q8 -4 24 -10 q81 -12 198 -16h87q3 0 10.5 -2t11.5 -2q141 0 219 55q11 10 35 30q10 4 25 17q22 26 29 68q1 9 0 13q-5 9 -5 10l-10 32q-7 11 -35 11q-12 0 -54 -7v3h-6l2 10q34 17 63 17q23 0 58 -18.5t39 -36.5q-1 -7 0 -21q0 -3 5 -17q4 -9 2 -18l-2 -4q-6 -27 -92 -81 q-74 -48 -115 -63q-8 -1 -24 -2q-19 -10 -60 -24q-38 -1 -116 -10q-6 -1 -26 -8q-16 -5 -26 -5q-11 0 -32 7t-33 7q-7 0 -22.5 -2t-23.5 -2q-58 0 -130 10q-29 8 -88 19q-28 0 -62 4q-16 7 -22 7t-21 -1t-23 -1q-20 0 -31 12.5t-31 12.5q-47 -1 -41 -1q-19 0 -53 14t-55 14 q-9 0 -25 -1.5t-23 -1.5q-12 0 -32.5 6t-30.5 6l-48 -10q-14 -1 -41 -8l-15 -9q-12 -2 -37 -7q-73 -17 -92 -17q-10 0 -15 1q1 4 2.5 14t58.5 36q51 25 70 29q-8 -1 24 -1q9 0 26 7.5t25 8.5q32 -1 96 7q14 9 43 23q8 0 24 3q10 3 36 19q22 15 35 15q8 0 30 19q27 24 30 26 q9 2 24 9q10 10 32 29q35 20 97 69q12 18 38 53q12 8 34 26q5 10 18 29q2 2 7.5 4.5t8.5 5.5q6 12 19 36q12 11 32 36q1 1 3 17q5 6 13 19q2 8 8 23q13 14 31 45q1 4 1.5 10.5t1.5 9.5q1 8 12.5 21.5t14.5 28.5q1 11 4 34q5 12 13 37q3 19 0 49q-3 33 -12 46l-12 6 q-5 9 -19 23q-18 13 -48 13q-50 0 -83 -32q-13 -19 -43 -56q-7 -4 -18 -13q-4 -8 -14 -23q-11 -9 -29.5 -30t-29.5 -45q-1 -9 -7 -27q-8 -7 -21 -23q-4 -14 -13 -41q-9 -19 -24 -57q-2 -10 -5 -30q-5 -10 -12 -32q3 -10 3 -35q-3 -10 -7 -30q-2 -11 1 -16q4 -11 5 -13 q3 -17 7 -33t26 -16q1 0 31 3l2 -9l-58 -36q-42 -25 -58 -25q-20 0 -26.5 18t-11.5 36q-6 7 -13 23q-4 21 7 84q4 24 17 70q7 7 17 22q4 9 6 36q3 16 12 24q13 10 15 15q3 16 14 47q12 11 33 35q1 5 6 13q7 4 18 14.5t27 36.5t25 37q16 11 46 36q24 22 72 59q7 7 24 20 q12 6 35 11q27 5 36 8q3 1 40 19q21 11 44 11z" />
<glyph glyph-name="R" unicode="R" horiz-adv-x="868" d="M240 865l12 -7q-17 -32 -26 -56t-7 -35q1 -7 11 -13q7 -5 15 -10q39 -30 117 -39q42 -5 138 -5q14 0 57 1h58h34q18 -6 56 -15q28 -3 55 -5q32 -5 47 -18q11 -10 17 -59q2 -6 3 -13q1 -5 -2 -14q-10 -28 -50.5 -75t-67.5 -63q-10 -3 -30 -11q-23 -21 -74 -55 q-36 -10 -81 -29q-2 -3 -4.5 -9t-5.5 -9q12 -12 35 -37q11 -13 26 -42.5t25 -42.5q10 -9 26 -29q11 -22 40.5 -64.5t41.5 -66.5q3 -5 13 -37q8 -22 18 -33q20 -15 56 -49q5 -9 17 -25q9 -3 25 -10q8 -8 15 -16t25 -8q48 0 128 38q6 4 18 11h4q3 0 8 -2t9 -2q-3 -7 -16 -18 t-46 -20q-43 -11 -49 -13q-12 -7 -36 -19q-19 -6 -54 -6q-33 0 -45 6q-3 5 -12 15q-9 1 -24 8q-7 12 -25 33q-9 2 -25 11q-4 5 -6 18t-8 16t-17.5 10t-22.5 32q-3 15 -14 45q-10 10 -24 33q1 11 -1 29q-5 3 -15 10q0 8 -4 23q-3 6 -13 12q-13 6 -16 10q-3 12 -14 32 q-10 7 -28 24q-18 21 -26 39q0 12 -7 29q-11 3 -31 11q-2 6 -9 15q-15 9 -50 12q-29 2 -57 3l-16 1q-2 -2 -12 -10q-5 -3 -9 -15t-10 -34q-12 -36 -53 -126q-47 -102 -64 -121q-8 -5 -20 -15q-3 -9 -12 -25q94 -11 103 -11q20 0 41 3q17 10 49 26q10 1 31 4q-2 -2 -2 -4 q-2 -8 -2 -11q-60 -25 -66 -27q-36 -15 -66 -20q-19 -1 -60 -4q-5 -1 -19 -4.5t-21 -3.5q-25 0 -47 12q-2 1 -5.5 6t-8.5 5t-14 -2t-13 -2q-11 0 -33.5 2.5t-33.5 2.5q-12 0 -24 -4.5t-15 -4.5q-6 0 -8.5 5t-4.5 6q9 11 36 26q17 4 73 4q63 0 107 81l58 134q21 31 54 97 q5 15 3 23q-3 11 -2 17q2 13 13 45q10 28 18 43q7 12 31 41q19 23 31 56q4 11 4 20q0 8 -3.5 17t-3.5 12q0 11 22 31q8 5 39.5 20.5t35.5 15.5q6 0 9.5 -3.5t6.5 -3.5q-2 -11 -6 -20q-7 -23 -32 -63q-26 -43 -33 -64q-5 -17 -17 -52q-2 -6 -6 -17q-9 -11 -22 -35 q-4 -9 -1 -13q6 -5 6 -7q45 0 85 3t58 9q15 5 54 27q15 7 46 24.5t90 85.5l21 22t15.5 26t5.5 30q0 53 -39 66q-6 2 -29 2q-15 0 -36 12.5t-36 12.5q-13 0 -40 -5t-39 -5t-22 5t-20 5q-8 0 -24.5 -2.5t-24.5 -2.5q-10 0 -32.5 2t-35.5 2h-20q-4 -1 -15 -4.5t-17 -3.5 q-28 0 -51 12q-1 0 -9 9q-3 3 -22 3h-16q-11 -1 -17 -1q-20 0 -26 5l-13 12q-8 2 -24 7q-12 10 -12 32q0 14 5 29q22 60 127 101z" />
<glyph glyph-name="S" unicode="S" horiz-adv-x="770" d="M729 668q-2 -2 -10 -16q-32 -3 -57 -4q-12 0 -32 1q-23 2 -32 2q-3 0 -10 -1.5t-11 -1t-7 -0.5q-10 0 -20 -18q-7 -14 -9 -27q-3 -17 1 -26q4 -4 11 -14q10 -17 35 -46q9 -4 24 -13q14 -18 45 -51q10 -4 27 -17q3 -7 11 -20q12 -10 30 -34q1 -9 6 -26q6 -6 12 -22 q2 -7 -2 -54q-8 -42 -15 -53q-6 -4 -17 -14.5t-29 -32.5q-2 -8 -12 -24q-9 -11 -49.5 -32.5t-53.5 -21.5q-2 0 -6 1h-6q-6 0 -19 -7q-16 -9 -20 -10q-60 -21 -82 -21q-6 0 -18 1h-19q-13 0 -39 -7t-39 -7q-6 0 -15 4t-13 5q-12 1 -36 5q-18 9 -57 20h-31q-21 0 -33 10 q-19 18 -23 20q-13 2 -35 10q-5 3 -29.5 35t-24.5 36q2 17 1 51q-1 5 -7 14.5t-6 16.5q0 4 1 8q2 11 13 23q15 15 18 21q3 11 11 32q2 2 34 25t36 24.5t11 2t10 1.5q0 -3 2.5 -7.5t1.5 -8.5q-1 -7 -9 -15l-13 -13q-21 -30 -21 -65q0 -7 14 -52q26 -85 95 -113q7 0 19 -2 q4 -4 11 -12q12 -1 34 -6q7 -5 21 -13q48 -19 110 -18q47 1 136 18l5 14q-5 2 -9 5q-7 3 -6 7q2 7 2 8q6 4 19 10q10 0 30 3q9 4 17.5 14.5l15.5 19.5q8 5 21 18.5t19 51.5q3 18 1 28l-15 27q-3 14 -14 41q-5 3 -14 10q0 1 1 3v3q1 4 -11.5 15t-13.5 12q-2 7 -10 20 q-12 15 -21 21q-9 2 -25 9q-3 9 -13 20q-9 1 -25 8q-9 6 -14 23q-6 24 -8 27t-17 16q-12 10 -10 19q3 8 6 22q9 34 15 38l35 16q14 11 43 30q17 8 61 16q41 8 62 8q34 0 51 -14q2 -1 4.5 -4.5t3.5 -5.5z" />
<glyph glyph-name="T" unicode="T" horiz-adv-x="745" d="M982 824v-1q83 0 99 -10q5 -4 6 -13q1 -12 2 -15q-75 -32 -114 -32q-8 0 -25 1.5t-26 1.5q-19 0 -28 -6q-13 -8 -17.5 -9t-57.5 -1q-13 0 -28 -3q-3 -2 -14 -10q-15 -33 -29 -67q-17 -39 -21 -66.5t-12 -78.5q-2 -12 -9 -35q-8 -7 -20 -35l-3 -30q-2 -12 -13 -28 q-13 -19 -15 -27t-4 -25q-1 -9 -12.5 -22t-14.5 -19q-2 -13 -10 -39q-6 -14 -22 -34q-25 -32 -26 -33q-13 -25 -43 -70q-15 -9 -41 -31q-7 -12 -24 -35q-29 -31 -90 -65l-98 -52q-13 -10 -40 -25q-17 -2 -50 -9q-4 -1 -14.5 -7.5t-14.5 -6.5h-10q-7 0 -33 -11 q-30 -13 -38 -15q-46 -11 -96 -11q-54 0 -85 10q-9 3 -41 19.5t-36 21.5q-16 20 -16 77q0 32 5 60q6 35 18 53l35 44q2 7 11 18q7 1 24 4q0 -4 3 -9.5t2 -12.5q-2 -8 -11 -20q-12 -15 -15 -20q-12 -25 -20 -71q-5 -31 -5 -51q0 -40 24 -56q21 -15 81 -21q29 -3 58 -3 q94 0 168 29q7 5 20 13q30 7 90 32q10 10 31 27q27 13 76 48q10 19 35 53q11 6 31 22q11 12 18 43q9 36 14 45.5t25 31.5q16 18 19 35q1 10 4 30q2 10 11.5 24.5t11 23.5t3.5 27q2 11 15 28.5t14.5 29.5l4.5 36q2 14 15.5 29.5t16.5 32.5q0 20 3 59q3 20 21 57.5t22 55.5 l-10 12t-27 6q-13 0 -39.5 -4.5t-39.5 -4.5q-10 0 -27 7t-27 7q-8 0 -25.5 -2.5t-26.5 -2.5h-44q-14 0 -35.5 5t-33.5 5q-7 0 -20.5 -5t-21.5 -5q-6 0 -18 1t-18 1q-36 1 -55 -21l-32 -52q-10 -16 -38 -40q-31 -27 -46 -30q-2 -1 -6 -1q-27 0 -20 1l2 16q4 33 21 45 q21 16 43 31q19 21 63 58l51 18q20 13 62 31q59 16 176 17q40 0 93 -4q17 -1 76 -10q47 -7 77 -7q27 0 48 4q15 11 43 10q17 0 24 4q13 10 17 12q39 17 119 17z" />
<glyph glyph-name="U" unicode="U" horiz-adv-x="1084" d="M830 800q25 0 22 -16l-6 -18q-22 -13 -38 -17q-36 -8 -38 -9q-8 -5 -24 -12q-16 0 -50 -11q-6 -3 -37.5 -31.5t-35 -35t-10.5 -17.5q-11 -5 -31 -18q-13 -10 -31.5 -33t-28.5 -32q-5 -2 -15 -8q-8 -15 -27 -43q-22 -20 -57 -65q-3 -5 -9 -30q-4 -15 -15 -29 q-16 -20 -20 -27q-11 -29 -35 -86q-11 -15 -30 -47q-18 -43 -18 -79q0 -30 14 -50q3 -8 13 -18q5 -2 22 -2q40 0 117 29q73 28 115 56q10 12 31 35q19 11 52 38q4 9 16 25q11 6 32 23q8 9 19 34t20 34q8 4 21 13q4 9 15 26l62 69q17 14 40 42q3 7 8 21q9 35 10 61l-5 13l1 5 q2 10 13.5 28t13 28t3.5 32l3 6q5 10 47.5 39.5t52.5 29.5h17q6 -6 13 -18q5 -17 -5 -56t-27 -63q-12 -11 -31 -35q-13 -31 -45 -91l-44 -66q-18 -29 -29.5 -72.5t-21.5 -140.5q-1 -6 -5 -34q-4 -22 -4 -34q0 -16 5 -27l7 -11.5t3 -11.5q-4 -15 -48 -29q-28 -9 -57 -17 l-1 -4l-2 -1q-3 0 -8.5 2.5t-9.5 2.5q0 9 -3 26q-3 10 -2 13q1 4 7 4l9 38q5 18 11 22q10 9 13 13q11 16 18 43q4 14 4 26q0 32 -29 33q-7 0 -15 -2q-12 -3 -47 -42q-39 -42 -49 -49q-12 -3 -34 -13q-14 -12 -44 -34l-38 -13q-18 -14 -56 -35q-22 -4 -65 -17 q-16 -10 -49 -25q-19 -2 -46 -10q-3 -1 -6 -8q-42 -23 -81 -23q-19 0 -27 7q-1 1 -2.5 5.5t-3.5 5.5q-8 13 -8 21q0 2 6 23q4 13 4 22t-5 17t-5 14q0 4 2 10q4 14 19 37t18.5 37.5l10.5 42.5q10 37 30 66q9 6 23 20q5 8 15 46q7 25 33 54q31 34 39 52q2 7 10 21q16 11 44 34 q15 20 49 56q17 8 47 31q6 10 20 30q9 6 24 21q4 12 13 35q-12 1 -36 1q-39 0 -68 -7q-6 -1 -21 -9t-23 -8q-3 0 -7 1h-7q-7 0 -15.5 -6.5t-12.5 -7.5q-17 -1 -50 -8q-37 -13 -88 -56t-71 -77q-3 -12 -14 -35q-18 -30 -58 -72q-7 -2 -10 -5q-6 -6 -18 -38q-14 -40 -16 -44 q-14 -29 -98 -60q-1 2 -6 11q-3 5 0 13q9 36 54 93q9 7 23 21q3 5 7.5 22t27.5 39t28 42q4 16 35 37l46 32q38 33 55 46q31 25 58 39q17 5 53 17q23 12 71 30q27 3 82 14q13 7 39 17q11 3 35 2q18 0 47 10.5t42 10.5q6 0 18 -1t18 -1q20 0 58 17.5t59 17.5z" />
<glyph glyph-name="V" unicode="V" horiz-adv-x="1267" d="M1208 857v1q49 0 54 -46q5 -48 0 -68q-10 -38 -50 -92l-27 -24q-10 -19 -35 -54q-12 -7 -35 -25q-4 -7 -14 -21l-48 -40q-23 -14 -64 -46q-10 -11 -28 -29q-9 -1 -28 -7q-12 -12 -37 -34q-22 -17 -56 -41q-6 0 -17 -3q-10 -9 -32 -26q-5 -3 -15 -7l-44 -22 q-24 -14 -30 -35q-3 -11 1 -22q6 -18 6 -20v-66q0 -11 3 -35.5t3 -37.5q0 -21 -5 -39q-10 -41 -36 -65q-9 -9 -25.5 -15.5l-30.5 -12.5q-82 -39 -122 -39q-28 0 -43 9q-6 3 -29 25q-7 6 -16 17q-3 8 -3 38q0 31 3 41v3l10 9q42 76 117 127l30 16q19 10 24 20q3 5 7 18 q4 17 6 50q1 35 -3 47q-1 2 -4.5 7t-3.5 6q-2 8 5 28q2 8 2 15q0 10 -6 23.5t-7 23.5q4 19 7 58q0 4 -3.5 12.5t-1.5 14.5q2 8 16 30q12 17 12 32q0 9 -6 28t-6 32q0 26 26 81q-7 5 -7 8h-4q-7 0 -26 1h-26q-10 0 -30 -1q-12 -1 -43 -10q-27 -7 -42 -7q-4 0 -13 1h-14 q-16 0 -43 -8q-38 -12 -44 -13q-12 0 -38 -4q-10 -6 -29 -16q-7 0 -22 -4q-4 -2 -28 -26.5t-28 -30.5q-12 -18 -28 -72q-14 -48 -32 -64q-26 -24 -52 -24q-22 0 -22 28q0 41 56 102l42 47q29 30 48 40q6 0 17 3q19 13 58 34q13 6 133 36q5 1 20 8q11 5 19 5h22q9 0 21.5 5.5 t17.5 6.5q28 5 84 4t83 4q16 3 60 23q39 19 62 19q29 0 25 -15q-2 -8 -15 -17.5t-21 -9.5q-2 0 -6 1h-7h-3q-14 -4 -34.5 -20t-28.5 -29q-12 -18 -23 -60q-4 -15 -8 -39q5 -15 4 -53q-13 -49 -13 -51q0 -10 7 -26.5t7 -28.5q0 -8 -3 -18q-4 -15 -1 -20q6 -10 6 -13v-54 q2 -34 20 -45l-1 -4h6q18 0 46 18q21 16 43 31q38 22 112 70q17 12 45.5 39.5t44.5 38.5q15 7 41 24q9 21 35 59q5 6 33 27q20 16 28 31q3 5 11 36q5 18 22 40.5t19 30t3 39.5q0 33 -2 37q-8 16 -32 21l3 12q3 1 22 8q13 5 22 5zM462 18l-1 -1q-6 -24 -6 -46q0 -34 16 -42 q6 -3 19 -3h21q4 0 19 -4q12 -2 20 -2q9 0 13 1q10 3 22 25q12 18 15 30.5t3 26.5q0 10 -3 35q-2 22 -1 36q1 6 5 23.5t4 25.5q0 7 -2 12q-5 17 -27 17q-17 0 -58 -41q-37 -37 -46 -56t-13 -37z" />
<glyph glyph-name="W" unicode="W" horiz-adv-x="1145" d="M1123 1200q-7 -3 -18 -12q-5 -4 -27 -28.5t-24 -28.5q-7 -12 -4 -43q-12 -7 -32.5 -15.5t-37.5 -8.5q-34 0 -34 22q0 14 17 35l26 18q10 11 32 32q19 14 55.5 31t51.5 17q6 0 6 -4t-11 -15zM1627 1153q5 -13 4 -26l-4 -32q3 -13 4 -39q-10 -57 -53 -115q-20 -27 -77 -87 q-13 -16 -42 -47l-70 -55q-16 -17 -50 -50q-9 -4 -25 -14q-25 -21 -77 -61q-12 -6 -30 -19l-3 -7q-38 -22 -111 -72l-81 -68q-13 -6 -34 -21q-9 -11 -30 -24l-28 -16l-38 -41l-16 -11q-11 -14 -20 -62q-6 -38 -7 -64q3 -13 4 -39q-2 -15 -13 -42q-13 -32 -17 -45 q0 -11 -10 -40l-22 -25q-4 -9 -17 -28q-4 -1 -8 -4l-40 -36q-22 -18 -44 -29q-50 -24 -104 -32q-8 -1 -17 -1q-27 0 -51.5 9t-26.5 20q-1 5 2 15t3 14q-4 11 -7 32q4 22 20 48q12 20 25 39q3 11 10 29q5 10 21 22l24 18q21 22 66 65q35 24 101 76q22 20 25 25q18 28 21 68 q1 27 1 54q0 4 1 14t1 16q0 26 -23 26q-6 0 -14 -2q-13 -3 -33 -20q-27 -25 -30 -27h-7q-12 -10 -33 -25q-7 -1 -21 -7q-7 -7 -22 -18l-42 -22l-139 -93q-18 -9 -47 -34q-13 -20 -17 -50q-3 -21 -5 -43q-8 -19 -22 -57q1 -9 1 -22q-7 -26 -26 -50l-10 -8q-3 -7 -10.5 -21 t-48.5 -48l-35 -30q-12 -7 -46 -13q3 17 6 22q17 17 42 47q11 18 41 83q1 0 2 4q0 3 2 0l7 14q-2 12 -1 32q7 11 15 33q2 12 -5 14q-1 1 -24 3q-2 -3 -6 -6q-24 -11 -54 -36l-50 -43q-15 -9 -38 -29q-10 -13 -21.5 -41t-19.5 -39q-13 -18 -23 -18t-8 15q2 17 39 64 q9 15 30 43q15 15 53 41q43 30 54 39q7 9 26 25q14 7 30 14t24 19q12 18 13 49q1 39 3 44q6 8 13 29q-4 10 -5 33q5 14 20 35q18 25 20 29q9 17 8 38q-1 25 2 35q9 29 37 68l11 7q9 14 21 39.5t10 26.5q-6 5 -34 5q-55 0 -166 -17q-103 -17 -122 -25q-31 -14 -55 -83 q-39 -21 -71 -32l-11 -6q-5 -1 -8 -1q-10 0 -10 10q0 16 18 36l36 25q4 7 15 20q9 8 49 32t51 28q24 10 55 14l62 8q12 5 29 11q15 -1 47 0q17 5 46 11q40 -2 120 3l10 7q9 3 42 18q18 9 37 9q9 0 22 -2l-6 -22q-22 -6 -58 -24q-7 -6 -14 -18t-12 -18q-9 -7 -23 -19 q-19 -21 -39 -57q-9 -16 -12 -35q-6 -28 -6 -30q-9 -20 -24 -61q-2 -22 -7 -61q-8 -15 -18 -47q-1 -7 11 -25q8 0 23 3q18 13 51 35q30 16 88 52q9 9 28 24q13 4 39 15q14 15 43 40q37 23 99 69l28 40l21 14q18 25 31 78q-1 10 3 34q5 9 37 44t40 39q31 17 64 17q10 0 17 -3 q4 -2 10 -11q3 -1 6 -3q0 -6 -6 -21q-7 -19 -13 -19q-5 -13 -19 -40l-45 -44q-11 -14 -36 -42q-9 -6 -23 -19q-3 -5 -9 -35q-10 -51 -6 -149q32 0 40 4q13 11 38 29q9 3 27 10q7 9 25 27q17 10 50 32q12 12 38 36q16 14 52.5 33.5t51.5 30.5l79 65q24 14 68 47q14 17 47 51 q13 7 35 22q6 11 24 32q17 11 46 36q4 8 14 25q17 13 44 43q11 17 19 45q13 41 13 42q10 19 22 54q-3 6 -5 18q2 14 2 39q0 2 -24 37q-7 9 -26 39q-2 4 1.5 9t8.5 6q26 4 52 -23q21 -20 29 -42zM550 82q-42 -68 -42 -122q0 -29 17 -33q10 -3 24 -3q35 0 72 13q24 8 29 10 q17 8 25 16q4 8 16 29l13 15q21 35 35 85l19 77q10 18 22 56q6 41 -14 41q-6 0 -14 -4q-19 0 -104 -78q-80 -74 -98 -102z" />
<glyph glyph-name="X" unicode="X" horiz-adv-x="685" d="M1337 1025q12 0 20 -5l16 -10q-1 -3 -5 -9v-3q-83 -45 -111 -45q-6 0 -18.5 1t-19.5 1q-17 0 -29 -5q-18 -7 -46 -30q-36 -29 -44 -34q-27 -15 -77 -48q-9 -10 -29 -30q-15 -13 -49.5 -33.5t-50.5 -33.5q-16 -18 -52 -53q-26 -16 -76 -52q-9 -11 -29 -32q-12 -6 -35 -20 q-8 -10 -24 -28l-39 -31q-17 -19 -54 -56q-12 -8 -30 -26q-16 -25 -16 -51q0 -12 6 -35t5 -37q-3 -9 -8 -26q-2 -14 3 -39t3 -39q-4 -10 -9 -30q-2 -16 4 -44.5t5 -44.5q-1 -6 -7 -25.5t-5 -27.5q1 -6 9.5 -9t9.5 -5q0 -5 2 -16q-91 -41 -122 -41q-16 0 -22 12q-3 8 5 30 q10 28 11 33q-4 20 0 59q6 9 17 27q2 5 1 8q0 3 -2.5 6t-2.5 4q-10 30 2 59q12 16 31 50q10 23 10 47q0 18 -7 46l-4 -1q-2 0 -5 1.5t-6 1.5t-8 -3q-14 -5 -40 -32q-33 -33 -38 -37q-10 -6 -31 -20q-26 -23 -82 -67q-16 -9 -46 -29q-8 -10 -26 -27q-14 -4 -41 -15 q-4 -2 -20 -16t-22 -14h-9l3 3q1 2 2 6.5t18 12.5q11 6 23 11l44 42q25 15 72 49l83 74q12 7 35 23q15 13 44.5 44.5t34.5 42.5q2 4 0 46q-2 41 -4.5 44l-7.5 9q-1 3 -1 8q0 8 4.5 29t4.5 31q0 7 -2 13q-4 11 -28 23l-36 18q4 8 5 12q1 1 1.5 2l0.5 1q52 28 79 28 q38 0 47 -45q0 -1 5 -83q2 -45 24 -45q20 0 35 11q12 16 39 44q32 21 92 69q9 13 31 37q13 8 38 25q24 25 78 68q14 6 40 21q6 8 20 23q39 26 114 81q12 12 38 34q29 14 86 45q14 11 42 30q18 6 53 19q7 5 21 11q5 -1 14 0q5 0 20 6t25 6zM49 67q9 0 6 -5q0 -1 -3.5 -5.5 t-3.5 -5.5q-37 -23 -114 -63q-18 -6 -54 -21l-57 -32.5t-61 -15.5q-52 0 -52 29q0 12 13 26q1 1 40 22q16 12 45 26q3 1 8 1q10 0 15 -6q8 -9 11 -10q13 -6 42 -6q33 0 67 15q6 2 67 35q8 7 25 16h6z" />
<glyph glyph-name="Y" unicode="Y" horiz-adv-x="754" d="M567 892h-1q17 0 17 -15q0 -7 -3.5 -16.5t-9.5 -16.5l-11 -9l-6 -9q-3 -7 -9 -23q-12 -27 -56 -91q-20 -23 -51 -70q-2 -11 -11 -34q-9 -9 -24 -28q-9 -16 -30 -49q-11 -12 -31 -37q-27 -37 -92 -164q-14 -21 -38 -64q-4 -9 -4 -16q0 -18 23 -17q4 0 12 1l1 4 q27 11 59 35l56 41q18 10 50 32q5 7 17 21q21 11 55 35q3 6 12 16l10 4l3 9q14 9 36 7l-2 -2q2 -2 2 -6q-3 -8 -16 -16q-18 -11 -20 -12q-17 -19 -56 -51q-11 -4 -35 -17q-3 -10 -10 -13q-13 -6 -14 -7q-9 -11 -31 -33q-14 -12 -38 -25l-39 -22q-6 -6 -19 -16 q-21 -7 -63 -24q-23 -13 -45 -27q-26 -15 -47 -15q-30 0 -30 22q0 27 52 96q19 19 50 65l9.5 25t17 25l21.5 17q12 18 39 53q8 7 20 20q5 9 9 14q4 16 16 51q8 19 34.5 55t34.5 55q7 23 24 68q6 14 15 23q13 13 17 19q22 31 38 65q1 3 -2 5.5t-3 5.5q-11 0 -34 -4 q-6 -2 -25 -15t-27 -13q-7 0 -9.5 4t-3.5 4q15 12 47 32q21 10 53 18q47 12 52 13.5t23 10.5q13 6 21 6zM928 876q4 -1 15 -12q7 -12 2 -25q-1 -3 -28 -36l-61 -84q-4 -6 -52 -61q-34 -40 -43 -59l-9 -26q-4 -9 -13 -18q-12 -11 -15 -15.5t-12 -25.5q-7 -17 -22 -49.5 l-43 -93.5q-12 -28 -16 -45q1 -9 0 -28q-9 -39 -32 -90q-46 -103 -163 -215q-47 -45 -118 -89q-25 -15 -128 -72q-16 -12 -51 -32q-12 -3 -37 -12q-22 -14 -68 -36q-22 -4 -67 -16q-23 -11 -69 -28q-13 -3 -45 -3q-22 0 -67.5 -7.5t-66.5 -7.5q-25 0 -39 7q-18 9 -27 11 l-31 3q-19 2 -28 9t-15 24q-7 24 -9 28l-16.5 28t-6.5 33q3 34 12 56q14 34 34 34q4 0 10 -3t9 -3l-23 -50q-6 -13 -6 -20q0 -4 2.5 -10t3.5 -13q5 -43 23.5 -65t61.5 -31q36 -8 77 -8q47 0 100 8q13 5 37 12q16 0 50 4q24 10 72 28q15 3 46 12l7 9q23 8 69 27l61 36 q24 12 69 41q9 11 29 31q13 9 37 29q6 9 21 28q16 11 44 36l26 41q19 16 46 50q1 9 5 29q7 25 26 61q25 48 30 59q9 21 12 37q1 8 -2 16.5t-3 13.5q0 8 6 19.5t16 34.5l2 4l-3 12l2 6q6 19 25 36q23 22 29 31q4 5 28 60q10 22 28 41q25 26 31 35q3 6 9 17q3 7 14.5 17.5 t14.5 13.5q4 8 14 24q8 6 20 16q8 10 13 28q7 15 18 25q16 14 21 20q4 10 16 28q11 7 30 23q16 19 61 57z" />
<glyph glyph-name="Z" unicode="Z" horiz-adv-x="742" d="M428 331q24 0 79 -2q51 -2 79 -2q10 0 29.5 1.5t29.5 1.5q20 0 26 -3q2 -4 10 -11q-6 -12 -22 -33q-10 -10 -34 -26.5t-33 -28.5t-30 -36q-16 -7 -47 -28q-6 -9 -21 -27q-20 -21 -69 -55.5t-70 -56.5q-6 -11 -21 -33q-2 -2 -17 -9q-8 -5 -10 -15q-1 -8 3.5 -14.5 t4.5 -9.5q30 0 90.5 9.5t91.5 9.5q34 0 41.5 -3l24.5 -10q8 -3 72 -3q29 0 45 -3q11 -7 36 -16q10 -2 82 -2q20 0 40 -4q8 -2 48 -13q29 -9 49 -9q8 0 23 1t22 1q27 0 65 -13q57 -18 64 -20q27 -1 78 -6q22 -3 93 -22q59 -16 89 -16q9 0 26 1.5t25 1.5q25 0 62 -15 q42 -17 59 -19q53 -1 155 -12q18 -6 55 -15q38 0 113 -5q10 -1 36 -10q22 -7 37 -7q7 0 22 1h22q20 0 32 -8t17 -9q14 -3 28 -1q13 0 45 1q29 1 45 1q39 -1 59 -6q8 -3 12 -22q-4 -1 -8.5 -7t-18.5 -6q-6 0 -17.5 1.5t-17.5 1.5l-5 -1q-23 -1 -92 -5q-58 -4 -92 -4 q-49 0 -90 4q-20 7 -62 16q-39 -1 -118 6q-11 2 -43 14q-23 9 -49 9q-10 0 -30 -1t-30 -1q-19 0 -51 8.5t-48 8.5q-9 0 -28.5 -3.5t-29.5 -3.5q-22 0 -54.5 17.5t-50.5 17.5q-6 0 -17 -1t-16 -1h-10q-62 11 -187 27h-13q-6 0 -24 -1h-24q-7 0 -21 1q-9 6 -29 17 q-22 7 -63 11q-45 5 -62 9q-12 7 -35 16q-26 5 -60 5q-20 0 -61.5 -2t-63.5 -2q-23 0 -67 5q-8 7 -24 17l-29 1q-11 0 -32.5 -1t-30.5 -1q-25 0 -74.5 2.5t-74.5 2.5q-64 0 -99 -10q-14 -4 -70 -37q-49 -28 -70 -28q-7 0 -8.5 5t-5.5 6q19 21 23 25q13 12 27 18q15 2 44 11 q10 4 25.5 18.5t24.5 18.5q8 1 23 6q10 7 27 30q20 28 27 35q22 21 169 134q17 19 52 53l35 25q22 17 25 32q0 8 2 24q-26 9 -52 19q-29 10 -55 10q-76 0 -123 -23q-16 -8 -39 -33q-26 -29 -37 -37q-10 2 -32 6q-1 11 -1 33q2 6 3 10q8 17 78 55q67 38 90 41q34 5 79 5z M2896 170q12 0 49 -10.5t40 -16.5q2 -5 -1 -12q3 -11 3 -36q-4 -26 -52 -81q-18 -20 -76 -64q-18 -20 -58 -54q-10 -3 -29 -11q-24 -19 -73 -54q-19 -11 -48 -21l-50 -16q-20 -13 -59 -33q-13 0 -39 -6q-8 -6 -25 -15q-35 -14 -155 -27l3 2q-3 3 -13 3q2 8 4 11q0 4 -1 5 q11 7 35 17q18 5 53 8t52 8q69 19 110 43l7 10q28 10 82 39q10 11 33 31q16 6 47 22q85 57 103 156q1 19 6 55q8 47 52 47z" />
<glyph glyph-name="bracketleft" unicode="[" horiz-adv-x="283" d="M1 240h1q-6 -20 -25 -54q-3 -6 -2 -28q1 -18 -10 -27q-16 -40 -46 -104q-29 -45 -59 -97q-13 -15 -13 -23q0 -2 4.5 -15t5.5 -29q1 -9 15 -12l4 -3q11 -1 30 7q10 7 31 18l5 1q7 -2 12.5 1.5l17.5 11.5l4 1q9 -6 14 -5q9 1 13 0q5 -1 11.5 -8t12.5 -7q5 0 11 3l2 1l5 1 q-5 -1 -5 0q8 7 10 5q9 4 21.5 25t10.5 29l-6 29q-7 15 -29 15q-11 0 -25.5 -3.5t-42.5 -27.5q-7 -6 -14 -19q-5 -9 -20 -15q-3 -1 -27 7q-1 1 -2.5 3t-1.5 3q-1 10 22 38v5q39 37 59 72q10 30 25 71q2 3 14 16q10 10 9 16q-2 22 4 33q10 14 19 28l6 20q14 25 14 39 q-1 9 4 25q-1 13 2 37q27 81 42 109q2 10 13 37q10 13 24 37q5 14 15 24q2 2 3.5 6.5t4.5 8.5t7 25q4 6 9 20l6.5 39.5t21.5 42.5q5 7 4 21q-1 22 -1 21q5 10 13 31q7 35 -7 71l3 4q0 31 7 39q3 2 8 7q1 0 17 5q12 3 15 2q11 -6 9 -16q-2 -13 1 -19q12 -24 21 -27 q13 -4 25 -4q21 0 39 15l27 28q8 7 10 29q3 21 -3 24q-7 7 -6 8q2 2 5 -2l-6 3q-4 2 -9 2q-6 0 -17 -6.5t-17 -6t-30 -6.5l-4 1q-2 5 -9 11q-4 3 -12 1l-3 2q-5 6 -19 18q-14 8 -26 7l-5 -3q-8 -1 -24 -12l-39 -40q-9 -10 -7 -27q-3 -40 -11 -96l-18 -74q3 -10 -14 -37 q-21 -34 -23 -39q3 -12 -15 -53q-28 -65 -37 -82q-23 -63 -57 -143q-3 -32 -22 -90z" />
<glyph glyph-name="backslash" unicode="\" horiz-adv-x="560" d="M127 855l10 9q10 -26 11 -64.5t6.5 -47.5l16.5 -27q2 -14 11 -37q7 -5 18 -16l4 -5q1 -17 4 -21q6 -8 12 -15q1 -9 6 -25q21 -51 67 -110q15 -13 42 -40q4 -11 15 -30q8 -4 21 -17q5 -6 8.5 -20t5.5 -18q10 -19 50 -69q16 -13 40 -40l3 -5l-2 -2q3 -8 11 -24 q14 -15 58 -83l35 -27q3 -14 15 -34q15 -24 18 -34l-3 -7q3 -33 8 -43q2 -5 26 -35q2 -4 6 -10l-3 -7q1 -15 3.5 -26.5t2.5 -13.5q0 -3 -24 -44q-11 1 -31 13q-6 12 -20 64q-12 43 -31 68q-6 8 -19 15.5t-17 11.5q-6 8 -11 28t-11 28q-9 6 -25 21q-4 9 -16 25l-1 1 q-9 12 -37 43q-2 -4 -15.5 22.5t-15.5 50.5q0 3 -6.5 6t-8 5t-5.5 24l-3 4q-7 5 -19 18l-4 7q-1 19 -13 34.5l-24 30.5q-10 12 -21.5 38t-20.5 38q-14 13 -36 38q-41 63 -57 113q-3 4 -7 15q-1 4 2.5 11t3.5 10q0 6 -8 13q-11 10 -12 11q-14 18 -14 39q0 3 2 21q1 13 0 23 q-4 10 -10 29zM154 993q0 -10 -5 -27q-7 -21 -8 -25q4 -7 4 -18t-8 -44l-9 2q-2 1 -7 6.5t-13 28t-5 28.5l-9 6q-15 -15 -48 -44q-17 -11 -20 -11q-2 0 -3 1q-2 9 13 49l4 5q8 3 22 11q8 6 18.5 27t19.5 28.5t21 7.5q33 0 33 -31z" />
<glyph glyph-name="bracketright" unicode="]" horiz-adv-x="283" d="M276 544h-1q6 19 10 28q7 17 15 25q3 6 2 29q-1 17 10 27q16 40 46 104q29 45 59 97q12 15 12 23q0 2 -4 15t-6 29q-1 9 -15 12l-3 3q-11 1 -30 -7q-10 -7 -31 -18l-5 -2q-6 2 -14 0q-5 -5 -17 -12l-3 -1q-9 6 -14 5q-9 -1 -13 0q-5 1 -11.5 7.5t-12.5 6.5q-5 0 -11 -2 l-3 -1l-4 -1q5 1 5 0q-8 -7 -10 -5q-9 -4 -21.5 -25t-10.5 -29l6 -29q7 -15 29 -15q11 0 27 4q13 3 41 27q7 6 14 19q5 9 20 15q3 1 27 -7q1 -1 2.5 -3t1.5 -3q1 -10 -22 -38v-5q-39 -37 -59 -72q-10 -30 -25 -71q-2 -3 -13 -14.5t-10 -17.5q2 -22 -4 -33q-10 -14 -19 -28 q-1 -6 -6 -20q-14 -25 -14 -39q1 -9 -4 -25q1 -12 -2 -37q-27 -81 -42 -109q-2 -10 -13 -37q-10 -12 -25 -37q-6 -15 -14 -24q-1 -4 -7 -14q-1 -1 -9 -26q-3 -7 -8 -20q-3 -19 -5 -38q-5 -21 -23 -44q-5 -7 -4 -21q1 -22 1 -21q-5 -10 -13 -31q-7 -35 7 -71l-4 -4 q0 -31 -6 -39q-1 -1 -3.5 -3t-4 -3t-17.5 -6q-12 -3 -15 -2q-11 6 -9 17.5t-1 17.5q-12 24 -21 27q-14 4 -25 4q-22 0 -37.5 -14.5l-29.5 -28.5q-11 -10 -11 -37q0 -14 5 -16q7 -7 6 -8q-2 -2 -5 2l6 -3q4 -2 9 -2q6 0 17 6.5t17 7.5q6 -2 30 5l4 -1q2 -5 9 -11q4 -3 12 -1 l3 -2q5 -7 18.5 -16.5t25.5 -8.5l6 3q7 1 23 12q5 6 38 40q10 10 9 27q3 40 10 96q12 53 19 74q-3 10 14 37q21 34 23 39q-2 11 14 53q24 61 38 82q23 63 57 143q3 32 22 90z" />
<glyph glyph-name="asciicircum" unicode="^" horiz-adv-x="292" d="M287.5 547q0.5 -2 0.5 -3q5 -4 12 -9q12 -10 17 -19q1 -6 6 -18q7 -3 18 -10q3 -7 11 -22q4 -2 12 -5q5 -2 10.5 -11.5t7.5 -11.5q15 -10 33 -33q4 -14 -36 -14q-36 0 -42 5q-2 4 -9 14q-17 9 -43 30q2 5 -5 14q-4 2 -13 5q-4 2 -5.5 12.5t-12.5 15.5q-14 7 -18 7 q-3 0 -6.5 -4t-9.5 -7q-19 -10 -45 -40q-10 -9 -22 -24q-2 -6 -16 -22t-22 -21q-10 -1 -26 -4q-1 2 -6 2q-2 1 0 5l4 5q3 9 14 29l16 13q3 6 13 18q4 3 12.5 8t11.5 7l2 5q24 13 66 40q14 14 29 27q23 21 34 21q4 0 5.5 -1.5t2 -3.5z" />
<glyph glyph-name="underscore" unicode="_" horiz-adv-x="281" d="M315 -86q-5 0 -13 4t-12 5q-6 1 -15 -1t-13 -2q-6 0 -17 9q-2 0 -6 -3t-7 -3q-4 0 -8 6.5t-9 6.5q-4 0 -9.5 -5.5t-10.5 -4.5q-2 0 -5.5 3t-6.5 3h-1q-12 -8 -23 -4q-3 0 -11 -3t-12 -3l-11 4l-9 -5l-7 4l-11 -2q-6 1 -12 7q-9 -9 -18 -9q-7 0 -15 3l-2 4q-4 0 -11 -3.5 t-11 -3.5h-3q-2 1 -3 1l-2 2q-11 -7 -30 -7q-5 0 -8 -3q-19 -17 -33 -17q-11 0 -21 23q-9 18 -11 33l10 14q3 0 7 -3t6 -3q4 0 12 2t13 2q6 0 11 -4t7 -4q4 0 9.5 4.5t9.5 4.5l10 -6q18 1 42 7q4 0 10 -4.5t9 -4.5q7 0 20 5t20 5l12 -7q3 0 7 3.5t7 3.5l8 -3q33 0 57 12 q7 -1 11 -5.5t7 -4.5t8.5 2.5t8.5 1.5q3 0 9.5 -2t9.5 -1q4 0 10 4.5t9 4.5q5 0 10.5 -7.5t9.5 -7.5q3 0 8 3t8 3q5 0 20.5 -8.5t15.5 -12.5q0 -7 -13.5 -20t-21.5 -13z" />
<glyph glyph-name="grave" unicode="`" horiz-adv-x="313" d="M218 812l1 1l-21 21l1 19q-5 10 -16 29q-7 11 -15 22t-35 22q-6 2 -12 2q-17 0 -24 -17v1l-3 -1q-2 -19 0 -24q9 -13 11 -18q2 -4 0 -23q-1 -14 10 -25q6 -3 14 -10q8 -13 26 -34q25 -19 47 -24q5 1 14 -1q6 -2 18.5 -13.5t31.5 -17.5l8 4l-3 10q-2 5 -21.5 25.5 t-31.5 51.5z" />
<glyph glyph-name="a" unicode="a" horiz-adv-x="292" d="M295 387h1q21 -6 25 -10.5t6 -28.5q3 -30 -4 -39q-14 -21 -16 -25q0 -7 -3 -20.5t-10.5 -22t-14.5 -17.5q-2 -9 -10 -26q-2 -3 -15 -13q-9 -6 -9 -15q2 -6 5 -18q1 -10 -7.5 -25.5t-7.5 -24.5q1 -15 14 -26t28 -11q5 0 12.5 4.5t11.5 4.5q1 0 15 -11q0 -8 -3 -24 q-3 -5 -11 -8q-11 -5 -13.5 -6.5t-8 -11t-13.5 -10.5q-17 -13 -43 -13q-17 0 -37 12.5t-30 12.5q-20 0 -60 -16l-5 -5l-10 -2q-68 -5 -73 46q4 11 7 35q-1 12 8 25q13 19 14 23q5 23 20 66q7 8 20 26q2 6 7 19q4 7 19 16t16 11q11 22 34 45q28 27 46 26q5 0 21.5 5t19.5 6 q19 15 54 46zM107 140h1v-5q-1 -3 -1 -5q-16 -8 -31 -30.5t-13 -39.5q1 -7 14 -18.5t20 -11.5q31 0 40 12q6 10 12 19q10 5 20 11t15.5 17t4.5 32t2 30q0 1 16 32q9 19 7 45t-23 26q-20 0 -53 -45.5t-31 -68.5z" />
<glyph glyph-name="b" unicode="b" horiz-adv-x="317" d="M670 1137q17 0 37.5 -11.5t26.5 -25.5q1 -6 4 -18q1 -2 7 -7.5t5 -13.5q-3 -33 -23 -58q-23 -27 -54 -27q-6 0 -25.5 4t-30.5 4q-15 0 -42 -2q-30 -3 -41 -3h-2h-3q-23 0 -24 -9q0 -1 -1 -2l-67 -43q-42 -28 -62 -52q-6 -3 -12 -3q-3 0 -6.5 1t-4.5 1q-4 0 -6 -24.5 t-7 -35.5q-4 -6 -12 -17q-12 -27 -38 -78q-6 -6 -15 -20q-4 -12 -14 -36q-9 -10 -20 -32q0 -4 1 -12.5t1 -11.5q-1 -7 -12 -19.5t-14 -36.5q0 -2 -25.5 -67t-28.5 -69q-9 -14 -9 -15q0 -8 -1 -13l6 -6q10 -3 34 -3q12 0 18 11.5t14 11.5q20 0 39 -21t17 -41 q-1 -10 -10.5 -27.5t-10.5 -27.5t-9.5 -28t-9.5 -27t-13.5 -22.5t-13.5 -26.5t-21 -43.5t-32 -29.5q-3 -7 -10.5 -19.5t-38.5 -32.5q-26 -18 -28 -29h-2q-8 -4 -15.5 -16.5t-16.5 -18.5q-14 -9 -44 -9q-21 0 -30 17q-7 13 -5 36q3 33 16 55q21 35 26.5 48.5t10 45.5t11.5 48 q11 13 31 42q4 13 13 38q6 9 16 29q2 20 10 57q5 14 24 38q13 17 16 55q1 14 7.5 22.5t8.5 13.5q2 19 11 55q5 15 39 75q26 45 29 80q1 13 12 29q17 23 18.5 25.5t19.5 46.5q12 27 27 45q6 7 18 14q17 8 21 11q7 9 24 25q12 5 33 19q16 26 49 65q12 2 33 14q3 7 10 21l27 18 q6 8 21 22q13 3 37 13q53 34 81 34zM85 194l-1 -3l-6 -7q-2 -5 -3 -21q-1 -6 -9.5 -21t-10.5 -29l-5 -4l-1 -8q-1 -6 5.5 -12t12.5 -6q7 0 15 8q5 6 11 12q12 4 32 18q20 23 44 73q3 10 14 31q1 3 1 18q5 4 11 24q3 36 -35 36h-7q-23 -21 -47 -48q-1 -9 -7 -27l-11 -12.5 t-3 -21.5z" />
<glyph glyph-name="c" unicode="c" horiz-adv-x="254" d="M257 397h1q2 0 15.5 -2.5t22.5 -2.5l8 -1l3 -5q13 -3 23 -17.5t10 -29.5v-2l-28 -29q-13 -10 -35 -10q-7 0 -24.5 -2.5t-27.5 -2.5l-8 -1q-18 -6 -47 -24q-3 -6 -9 -17l-49 -58q-2 -3 -4 -10.5t-4 -11.5l-14 -9q0 -1 -2 -26q-2 -19 -10 -23q0 -46 5.5 -52.5t49.5 -6.5 q5 0 12.5 5.5t8.5 6.5q14 4 39 16q5 7 17 19q8 3 22 12q1 1 5.5 7.5t7.5 6.5l5 -1l2 1q-4 -28 -19 -63q-18 -3 -54 -26q-32 -21 -51 -21q-9 0 -22 -11.5t-31 -11.5q-27 0 -47 22.5t-20 50.5q0 10 6.5 25t6.5 27t10.5 24.5t10.5 20.5q0 4 -2.5 11.5t-2.5 11.5q0 11 17.5 24.5 t19.5 21.5t7 23q4 7 17 16.5t16 13.5l40 50q7 3 20 11q6 10 22 25q13 4 40 14q2 1 9 6t12 5z" />
<glyph glyph-name="d" unicode="d" horiz-adv-x="371" d="M802 1077h-1q7 0 26 -1h25q28 1 53 -43l6 -2q0 -8 2 -21l12 -28q2 -6 -1 -40q-1 -15 -30 -37q-11 5 -48 5h-46q-2 0 -8.5 6t-18.5 6t-36 -3t-36 -3t-65.5 -38t-64.5 -51q-5 -11 -18 -30q-11 -5 -25 -15q-1 -2 -3 -17q-1 -11 -12 -19q-13 -11 -16 -16q-1 -8 -6 -23 l-22.5 -35.5t-13.5 -42.5q-1 -7 -12 -18.5t-13 -28.5q0 -2 -22 -64.5t-24 -66.5q-10 -9 -21 -31q0 -4 1 -10.5t1 -10.5q-1 -9 -12.5 -18.5t-13.5 -27.5q-5 -13 -11 -41q-1 -8 -7 -19q-9 -14 -10.5 -20t-4.5 -43q-1 -18 -37 -72t-39 -102l-1 -4q3 -4 9 -10q44 7 49 10 q16 10 19.5 11.5t23.5 4.5l5 -6v-1l-1 -10q-9 -4 -31 -15q-5 -7 -16 -18q-5 -4 -35.5 -15t-37.5 -11q-17 0 -33 22t-35 22q-9 0 -38.5 -15.5t-56.5 -15.5q-11 0 -16 2.5t-18 27t-12 30.5q1 11 12 29t13 34q0 4 14.5 32t17.5 31q17 5 37 34l29 46q12 9 34 29q5 10 18 26 l41 21q9 8 29 21q18 6 36 11q21 9 31 25q3 10 8 29q3 6 13 20q7 9 8 24q1 12 12.5 22t13.5 33q1 11 13.5 31t13.5 36q1 13 14 26q15 17 18 24q2 12 8 36l17 26q2 8 9 25q5 2 11 16l15 23q7 16 25 47q9 8 25 26q6 12 19 36q4 5 29 31t30 29q14 12 44 34q14 5 38 17 q9 17 44 48q39 34 57 34zM70 92h1q-3 -27 31 -28q19 0 55 25.5t37 42.5q10 9 26.5 51t18.5 59q3 28 -27 28q-16 0 -60 -43q-40 -40 -50 -60q-2 -12 -10 -36q-10 -12 -22 -39z" />
<glyph glyph-name="e" unicode="e" horiz-adv-x="298" d="M241 393h-1q9 0 23 -14l3 1q1 0 4.5 -7t4.5 -8q2 -11 -3 -30q-3 -15 -7 -30q-2 -10 1.5 -16t6.5 -12q8 -2 13 -2l15 6q0 -4 -0.5 -12t-1.5 -12q-4 -18 -14 -25q-14 -3 -31 -20h-6q-4 -7 -15 -18h-8q-14 -8 -51.5 -18.5t-48.5 -16.5q-11 -10 -35 -29q-11 -15 -17 -50 l-1 -6q20 -11 26 -11q18 0 59 28t44 43q-1 7 0 19q3 19 50 19q22 0 18 -13q-2 -11 -10 -18t-16 -13q-9 -13 -26 -49q-2 0 -7 1h-8h-7l-37 -23l-8 -10q-10 -4 -29 -13l-34 -25q-14 -8 -44 -8q-53 0 -53 31q0 5 1 11l47 98v16q1 6 20 33.5t21 38.5q1 8 12.5 18t13.5 22 q1 8 8 12q12 8 13 9q3 9 14 26q5 6 20 12.5t19 13.5l13 22q5 6 23.5 17.5t25.5 11.5zM143 235v-1q-4 -29 16 -29q26 0 19 1l19.5 20t11.5 20q2 14 -5 26t-21 12q-32 0 -40 -49z" />
<glyph glyph-name="f" unicode="f" horiz-adv-x="320" d="M477 677q20 0 32 -5l25 -10q11 0 30 -6q4 -2 26 -26t23 -28q9 -16 8 -42q5 -25 -1 -37q-1 -2 -16 -15.5t-17 -13.5q-16 0 -16 14q-1 5 3.5 12.5t4.5 11.5q-1 6 -11 31.5t-13 27.5q-10 1 -29 5q-10 4 -18 12q-3 4 -30 4q-4 0 -14 1.5t-16 0.5q-12 0 -21 -8t-28 -8h-4 l-4 -5q-12 -2 -34 -11q-5 -5 -15 -14q-6 -1 -15 -5.5t-15 -16.5q-5 -8 -25 -15q-16 -6 -35 -61q-7 -10 -20 -32q-1 -9 -6 -26q-2 -4 -24 -31q-17 -21 -16 -36q3 -32 45 -32q10 0 15 1l8 7h3q6 0 15 -5.5t13 -5.5q7 0 16 7q3 0 7 -2.5t5 -2.5l1 -8q1 -5 -11.5 -20.5 t-17.5 -15.5q-4 0 -12 5.5t-14 5.5q-7 0 -13 -7.5t-11 -9t-52 -1.5q-15 0 -22 -6l-16 -18q-6 -21 -3 -67q0 -6 -9.5 -24.5t-9.5 -19.5l2 -13q1 -5 -8 -11t-10 -9q-2 -4 1 -29v-6l-3 -3v-2q-15 -15 -17 -25q-1 -14 -3 -29q-2 -9 -11 -20q-7 -7 -5 -29q1 -9 -9 -18 q-12 -12 -14 -16q-1 -14 -6 -42q-4 -5 -10 -15q-2 -13 -11 -33q-4 -2 -11 -7q0 -6 -4 -17q-5 -3 -13 -11q-9 -15 -29 -45q-10 -6 -26 -23q-2 -7 -10 -21q-6 -5 -20 -9.5t-18.5 -9t-11.5 -13.5q-24 -26 -39.5 -35t-50.5 -19l-5 -5q6 1 -19 1q-7 0 -14 -7.5t-16 -7.5 q-5 0 -14.5 3t-14.5 3l-7 -1l-4 -4q-5 -1 -23 1q-7 0 -26 -6.5t-37 -8.5h-6l-4 -5q-3 -1 -8.5 1t-7.5 2q-4 0 -10 -2.5t-9 -2.5q-6 0 -11 3t-8 4q-7 0 -21 3q-5 1 -33 29.5t-28 32.5l-3 33q0 5 5.5 12t4.5 16q0 6 2 7l6 3q0 7 5 20q1 2 42 19l5 -1l3 -4q21 -17 49 -35l3 -6 q12 -2 35 -11q7 -4 26 -30q16 -21 31 -21q8 0 19 7.5t20 7.5q5 0 13.5 -1.5t12.5 -1.5q16 0 75 21q50 18 70 28q5 11 19 29q9 3 24 13t31 32.5t15 36.5q6 10 10.5 29t8.5 27q9 9 21 29q0 12 2 33q1 5 13 37q9 25 8 39q-1 9 7.5 22t7.5 27q0 8 11 39l4 1q1 5 0 18 q-1 9 7 23.5t6 39.5v6h3q1 12 6 33l5 2l-1 7q0 6 -10 9t-12 5q-14 27 -14 33q-1 14 31 26q37 13 39 16q12 25 31 59q8 7 20 22q2 12 11 35q5 4 13 11q4 5 8.5 16.5t7.5 16.5q10 8 25 25q5 13 20 35q10 4 27 16q4 4 16 25q9 15 24 24q13 4 36 14q6 3 26 26q12 15 40 15 q4 0 18 6.5t28 6.5z" />
<glyph glyph-name="g" unicode="g" horiz-adv-x="300" d="M298 427q5 -1 12 -6q2 -8 9 -24q2 -3 25 -23q15 -14 15 -29l-1 -5l-5 -8v-15q0 -17 -23 -20q-32 -3 -36 -6v-2q-5 -2 -6.5 -10t-3.5 -10q-6 -5 -16 -17q-1 -9 -7 -25q-4 -4 -11 -12q-1 -9 -7 -25q0 -1 -9 -8q-3 -4 -3 -12q0 -10 9 -10q7 0 19 5.5t18 5.5h13q0 -10 1 -14 l-109 -93q-2 -14 -9 -40q-4 -9 -21 -25q-7 -6 -7 -55q0 -7 -10 -32.5t-14 -31.5q-14 -7 -27 -51q-15 -49 -24 -60v-20v-5q-7 -9 -7 -14q0 -4 2.5 -10.5t2.5 -9.5q0 -8 -8 -15q-12 -9 -14 -12q-2 -13 -11 -37q-12 -13 -34 -41q-1 -2 -12 -40q-6 -8 -17 -24q-3 -16 -14 -47 q-5 -7 -17 -12q-15 -6 -18.5 -9.5l-10.5 -10.5q-11 -7 -30.5 -21.5t-23.5 -23.5q-4 -14 -8 -18q-6 -7 -21 -14t-20 -11q-21 -17 -51 -39q-7 -4 -54 -22q-50 -19 -55 -19q-10 0 -22 -8t-17 -10q-18 1 -52 -3l-29 -12t-30 -6q-37 0 -54.5 6.5t-42.5 31.5q-4 9 -4 44q0 20 3 22 l8 8q0 8 5 26q7 6 20 20q1 7 7 19q20 17 47 46q1 9 9 25q3 5 15.5 9t16.5 10q1 7 7 20q5 10 60 58q21 26 70 74q10 6 29 19l30 30q20 20 32 23q6 0 19 3q6 3 9 25q39 11 53 39q5 10 14 15.5t11 10t8 13.5l57 40q5 3 12 12.5t12 13.5l49 36q3 6 11 16q9 4 23 16q11 15 11 43 q0 16 -9 27t-9 18q0 36 9 58q5 6 12 19q1 3 -2 24q0 10 14 23q19 15 21 19q8 17 25 49q5 3 13 11q2 8 10 21l9 5q8 17 38.5 44t48.5 30q8 -1 22 2l8 11q19 19 42 37zM176 268h-1q-1 -2 -47 -40q-26 -23 -26 -56q0 -6 -11.5 -20t-11.5 -38q0 -3 -2.5 -8.5t-2.5 -9.5 q0 -18 28 -18q17 0 39 26t22 42q0 7 7 16.5t8 14.5v24q0 5 8.5 18t8.5 23q0 11 -8 26l-8 -1zM-20 -105l-80 -79q-7 -2 -20 -7q-4 -3 -15 -13t-16 -14q-10 -7 -22.5 -25t-19.5 -24l-95 -62q-79 -72 -109 -102q-10 -16 -33 -47q-16 -14 -62 -74q-6 -5 -13 -18q-12 -14 -12 -36 q0 -61 51 -61q11 0 34 1t35 1t32 10q27 13 30 14q12 2 36 9q9 7 30 19q10 0 31 2q6 6 21 16q14 4 39 16q17 19 52 53q17 12 55 49q8 9 15 31.5t14 30.5q6 5 16 18q3 12 12 35q6 5 16 19q0 9 3 28q3 8 12 16q6 6 6 31q0 11 8.5 21.5t8.5 28.5q0 4 3 13t3 16t9.5 21.5 t11.5 19.5q10 31 11 61q5 8 10 17q9 17 9 35t-14 18q-5 0 -51.5 -44.5t-51.5 -43.5z" />
<glyph glyph-name="h" unicode="h" horiz-adv-x="355" d="M209 323l18.5 12.5t11.5 14.5q4 3 15 3.5t15 2t22 15.5q12 10 32 10q31 0 23 -1q15 -8 17 -26q0 -4 -25 -51t-23 -65q0 -5 -8.5 -19t-7.5 -29q1 -8 -5 -13t-6 -7v-7q11 -7 15 -11q7 -7 8 -16q2 -14 -12 -32l-84 -79q-2 -4 -7 -11q-2 -1 -6.5 -1.5t-6.5 -1.5 q-19 14 -21 38q-2 22 19 31.5t18 35.5q-1 13 7 24q12 19 13 20q1 13 9 37q12 8 27 28q1 5 -1 22v10q16 16 15 27q0 5 -4 15h-1l-7 2q-3 0 -9 -2.5t-10 -1.5q-3 0 -9.5 2.5t-10.5 2.5l-5 -1q-32 -38 -53 -48q-2 -3 -5 -14t-6 -14q-6 -3 -21 -22l-13 -39q-5 -13 -14 -23 q-5 -5 -5 -16q0 -8 2 -26q1 -15 -1 -22q-5 -5 -16 -17q-10 -20 -21 -39q-16 -30 -25 -30q-27 6 -24 51q6 12 13 38q-2 13 -1 40q0 7 3 15l5 3l16 23t9 23q-2 11 -3 34v3l6 8l2 21q0 4 8.5 16t10.5 36q1 11 13 25q15 18 17 25.5t9 24.5q6 4 15 15q2 3 3 8.5t2 7.5q5 5 13 17 q1 11 9 32q9 7 24 23q2 11 9 31q5 5 12 16q1 7 6 20q9 7 28 55l3 11l18 8q6 4 15 18q8 11 22 17q5 11 17 32q13 9 37 28q14 18 48 49l18 9l51 46q11 4 30 14q2 2 5 8t4 7l37 25h15q8 0 31 11t36 11l30 -3q8 0 17.5 5t11.5 5q9 0 19 -7q14 -10 17 -11q19 -4 53 -19 q6 -11 23 -29q8 -1 20 -8q2 -2 15 -56q1 -3 4 -8.5t3 -10.5q-1 -12 -12 -48t-17 -45h-12q-3 0 -5 6l-2 6l-10 24q-1 5 1 30q1 14 -19 40t-33 32l-31 6q-17 9 -53 19q-11 0 -32.5 -6t-33.5 -6t-27 -11q-19 -14 -25 -16q-9 0 -26 -6q-5 -6 -16 -17q-10 -3 -28 -14 q-3 -8 -13 -20q-15 -7 -31 -13q-22 -10 -33 -27q-3 -12 -15 -35h-5q-5 -9 -52 -38l-3 1q-4 -15 -16 -44q-9 -7 -24 -23q-6 -15 -22 -42q-10 -10 -28 -32q-3 -10 -12 -29q-7 -6 -16 -23q0 -3 1 -8.5t1 -8.5q-4 -5 -11 -16q-1 -9 -5 -28q-7 -8 -19 -26q-10 -25 -10 -31 q0 -9 7 -13z" />
<glyph glyph-name="i" unicode="i" horiz-adv-x="173" d="M200 513q13 0 24 -13t12 -26q1 -9 -8 -16.5l-17 -14.5l-7 -1q-13 0 -34 21l-2 10q-1 9 11 24.5t21 15.5zM181 384h1q10 0 20 -16t10 -26q0 -7 -14.5 -22.5t-16.5 -22.5q2 -7 -2 -22l-7 -15q-1 -14 -18 -44l-23 -39q-4 -7 -19.5 -51.5t-15.5 -49.5q3 -24 32 -24q22 0 33 8 q1 1 4.5 8t7.5 7q3 0 9 -3q0 -8 -4 -25q-4 -7 -18 -12q-19 -6 -22.5 -8t-21.5 -21q-12 -14 -25 -14q-5 0 -10.5 4.5t-6.5 5.5q-10 3 -20 6.5t-15 11.5q-15 26 -17 38q-1 7 1 44q4 2 11 8q3 10 12 30l26 39q2 3 21 24q14 16 15 27q-1 7 1 21q1 5 8 18q4 9 3 24q0 -3 7 21 q15 38 18 42q9 14 36 28z" />
<glyph glyph-name="j" unicode="j" horiz-adv-x="474" d="M237 117l15 40q10 16 29 50q2 9 9 28q10 9 22 31q1 6 3 16q0 4 1 5q3 6 35 45q33 30 89 37q0 -1 -5 -24.5t-54 -85.5l-15 -25q-11 -18 -26 -64q-12 -34 -23 -69q-8 -15 -20 -49q-1 -11 -4 -29l-15 -40q-2 -12 -10 -38q-6 -12 -17 -40l-3 -25q-6 -10 -18 -35 q-4 -17 -17 -49q-1 -2 -8.5 -10.5t-7.5 -12t-0.5 -6.5t-1.5 -4q-1 -7 -21 -29q-24 -28 -26 -31q-14 -25 -50 -70l-26 -15l-69 -55q-41 -35 -72 -51q-11 -3 -35 -13q-22 -17 -68 -44q-52 -21 -110 -21q-42 0 -70 13q-7 3 -16.5 14t-15.5 15q-10 1 -27 8q-5 4 -5.5 14.5 t-1.5 12.5q33 -18 67.5 -35t77.5 -17q54 0 88 20q6 6 20 17q20 7 56 24q11 10 34 28q26 13 73 45q6 11 22 33q14 11 39 36q5 14 19 41q12 12 32 40q6 21 22 61q14 21 33 67q1 9 4 28q2 14 18.5 47.5t19.5 51.5q4 45 10 95q3 2 20 24z" />
<glyph glyph-name="k" unicode="k" horiz-adv-x="428" d="M637 1092v-1q34 0 58 -22l42 -49l1 -5q0 -74 -78 -74q-18 0 -27 -5q-13 -6 -20 -8q-62 -14 -107 -14q-7 0 -26 -13t-25.5 -13t-8.5 -3q-3 -6 -4 -7h-4q0 -1 -8 -26q-5 -16 -22 -27v-5q-14 -6 -37 -24q-1 -9 -8 -27q-10 -6 -13 -15q-5 -17 -6 -18q-10 -9 -23 -32v-22 q0 -9 -8 -21q-10 -15 -12 -21q0 -12 -4 -34q-3 -10 -11 -21q-5 -7 -5 -30q0 -9 -9 -22q-10 -18 -12 -22q-11 -39 -35 -110q-14 -33 -14 -39q0 -17 19 -32.5t37 -15.5q26 0 49.5 38t54.5 38q13 0 37.5 -30.5t24.5 -45.5q0 -11 -10 -19t-22 -8q1 0 -22.5 8t-41.5 8 q-8 0 -24 -3l-2 -5q-18 -8 -23 -11q-11 -7 -18 -18l-5 -2q-2 -7 -1 -9q0 -4 2 -12.5t2 -13.5q0 -3 -1.5 -9.5t-1.5 -10.5q0 -7 7.5 -17.5t8.5 -15.5q-1 -16 6 -45q15 -17 39 -60q6 -4 12 -4q27 0 54.5 40.5t38.5 40.5q9 0 7 -10q0 -22 -17 -48q-22 -31 -25 -41 q-2 -5 -16.5 -13t-22.5 -34q-5 0 -20.5 -2t-24.5 -2q-31 0 -43 27q-8 26 -17 52q-3 8 -14.5 18t-14.5 15q-6 10 -8 25t-18 33h-6l-10 1l-10 -20q-3 -2 -19 -10l-6 5q7 28 25 37q14 7 14 36q0 47 -22 49h-6q-9 -16 -21 -50q0 -16 -5 -45q-3 -8 -13 -16.5t-14 -20.5 q-2 -6 -14.5 -20.5t-12.5 -28.5q0 -22 32 -22q18 0 32 9q21 15 27 17l3 3q10 0 13 -10t5 -19q-10 -5 -29 -16l-29 -23t-32 -16q-8 0 -23 -3q-4 -1 -11 -7.5t-15 -6.5q-5 0 -14.5 3t-14.5 3q-3 0 -10 -1t-11 -1q-23 0 -23 50l1 7q1 9 47.5 44t51.5 43q10 16 20 26q0 8 5 22 q4 4 11 13q2 12 8 37q10 15 25 48q3 17 13 50q6 6 16 21q3 8 3 32q0 19 13 34t13 47q0 5 4 15t4 20q0 6 8 20.5t8 33.5q0 5 5.5 14t5.5 22q0 4 5.5 21.5t5.5 32.5t10 24q13 13 16 19q2 12 10 35q16 10 22 32q7 27 10 31q7 4 21 15q4 10 13 29q10 10 27 32q2 7 8 18 q11 5 29 21q2 9 10 24q28 36 45 40q4 6 14 19q10 8 31 23q16 19 50 54l18 9q3 5 11 10q6 0 18 1q5 0 12.5 4t11.5 4z" />
<glyph glyph-name="l" unicode="l" horiz-adv-x="172" d="M630 989v1q31 0 54 -33q1 -1 18 -5q12 -3 12 -11q0 -5 -3 -11q1 -4 13 -22q6 -9 6 -30q0 -5 -2 -22q-42 -26 -92 -25q-6 0 -18 -6l-2 -1q-4 0 -13 3t-14 3q-8 0 -65 -16t-65 -22t-25 -16q-13 -3 -27.5 -7t-23.5 -13v-4q-7 -4 -19.5 -24.5t-13.5 -28.5t-14 -19t-15 -16 q-7 -25 -26 -67q-6 -4 -15 -14q0 -9 -5 -28q-10 -7 -24 -24q0 -13 -6 -39q-7 -7 -17 -25q0 -7 -2 -22l-13 -22q-3 -17 -14 -49q-1 -2 -8 -10q-3 -4 -3 -12t-5 -14t-6 -9q-1 -7 -5 -19q-3 -6 -14 -16q-5 -4 -5 -26q0 -14 -18 -41l-5 -2q-2 -17 -17 -54l-5 -3q0 -6 -1 -17.5 t-10 -29t-9 -27.5q0 -20 13 -20q4 0 13 3t14 3q4 0 16 -5l3 -15q-3 -4 -32 -27t-31 -24q-10 -1 -30 -5q-10 -8 -36 -17q-4 0 -15 2l-6 18q0 7 7.5 16t8.5 13q6 21 21 58q7 6 18 20q0 13 5 37q6 5 14 17l24 70q0 11 14 25.5t14 30.5q0 7 6.5 19.5t7.5 15.5q1 9 6 28 q5 6 14 19q1 10 6 27q3 5 9 16q3 18 12 53q7 12 17 36q1 6 2 18q10 10 26 32q1 10 6 29q9 13 23 42q0 11 5 34q3 7 14.5 16.5t14.5 15.5q1 11 8 33q8 5 22 16q6 10 19 30q12 8 32 26q2 13 15 32q9 2 24 10q1 6 6 18q1 -1 2 0t0 2q11 7 26 25.5t16 18.5q5 3 25 5q15 2 21 14 h4q19 28 52 46t66 18z" />
<glyph glyph-name="m" unicode="m" horiz-adv-x="469" d="M201 387h-1q16 0 20 -15q7 -21 10.5 -23.5t10.5 -8.5q33 4 59 26q25 19 34 19q42 0 52 -62q3 -17 20 -17q3 0 7 2h-3q13 6 37 19l2 5q8 0 21.5 14t26.5 14q-1 0 29 -10l1 -4q7 -9 9 -22q1 -5 -3 -10.5t-4 -7.5q1 -9 -1 -27q-2 -7 -12.5 -15.5t-13.5 -12.5q-4 -16 -16 -45 q-5 -3 -13 -13q-3 -11 -10 -31q-1 -1 -15 -23q-11 -16 -9 -23l3 -6q-7 -7 -11 -33q3 -19 19 -20q5 0 8.5 4.5t6.5 4.5q8 0 15 -3h1l5 -2l-1 -2l2 -5l-1 -1q-1 -9 -19 -14q-12 -4 -24 -7q-5 -3 -15 -17q-7 -10 -27 -10q-25 0 -30 29q-1 7 10 28l16 28q1 15 6 44q3 12 14 27 q13 19 16 25q1 10 7 28q6 5 15 16q4 12 13 37q1 1 5 7q4 3 3 7q0 1 -11 17q-3 -1 -11 1q-1 0 -35 -22.5t-37 -25.5q-2 -9 -22 -24q-5 -5 -8 -19.5t-7.5 -18t-11.5 -11.5q0 -5 -3 -16q-9 -6 -13 -17q-4 -15 -7 -19q-7 -4 -19 -13q-2 -9 -8 -26q-6 -4 -16 -16q-1 -3 -6 -39 q-3 -24 -24 -29l-15.5 10t-9.5 15q-2 9 3.5 24.5t3.5 24.5q0 2 6 7.5t6 7.5q3 10 12 29q8 5 18 17q-1 12 2 35q1 3 29 33q23 25 23 58q0 10 -2 21q-3 18 -19 18q-35 0 -72 -34q-5 -9 -18 -26q-7 -3 -20 -12q-1 -12 -7 -35q-4 -4 -10 -13q-1 -8 -4 -23q-5 -8 -14 -24 q0 -9 -3 -26q-8 -5 -10 -12q-2 -10 -4 -13q-9 -8 -24 -27l-10.5 -41t-26.5 -21q-9 0 -23 2q-4 6 -10 20q-1 4 14.5 45t21.5 46t16 17q-1 12 2 36l23 24q18 20 18 47q0 8 -1 17q-5 11 -12 34q-2 11 4 30l10 31q1 6 30 24t37 18z" />
<glyph glyph-name="n" unicode="n" horiz-adv-x="407" d="M82 -19v1q-11 0 -26.5 15.5t-17.5 26.5q0 1 18 30t17 40q0 2 18 27.5t16 48.5q-1 8 2.5 10.5l7.5 5.5q15 18 24 32q1 11 7 32q4 3 11 11q10 15 18 47l-6 10l-12 5l-3 5q-8 2 -12 2q-20 0 -28 -21q-4 -1 -12 -5q-1 -1 -6 -5.5t-9 -4.5l-9 5q-1 7 1 19q2 6 11 11q13 7 14 8 l35 33q14 11 49 11l-1 1q1 0 4 1h4q20 0 24 -16l2 -31.5t10 -22.5h11q10 0 19 9t11 18q4 3 15 3.5t16 2t22 15.5q12 10 32 10q31 0 23 -1q15 -8 17 -26q0 -4 -25 -51t-24 -65q0 -5 -8.5 -19.5t-7.5 -29.5q1 -8 -4.5 -12.5t-5.5 -6.5v-8q11 -7 16 -12t6 -14q1 -12 -11 -32 l-84 -79q-2 -4 -7 -11q-4 0 -14 -3q-19 14 -21 38q-2 22 19 31.5t18 35.5q-1 13 7 24q14 19 14 20q1 13 8 36q12 8 27 29v22q0 7 -1 10q16 16 16 27q0 5 -4 15h-1l-7 2q-3 0 -9 -2.5t-10 -1.5q-3 0 -9.5 2.5t-10.5 2.5l-5 -1q-32 -38 -54 -48q-3 -7 -10 -20q-10 -7 -28 -26 q0 -14 -6 -43q-5 -13 -14 -23q-5 -5 -5 -16q0 -8 2 -26q1 -15 -1 -22l-17 -17q-10 -20 -21 -39q-16 -30 -25 -30z" />
<glyph glyph-name="o" unicode="o" horiz-adv-x="272" d="M228 398h1q6 0 18.5 -2.5t19.5 -2.5q15 0 19 -24q2 -17 3 -35l6 -8q1 -6 1 -19t-5 -35t-5 -39t-4 -26l-14 -23q-3 -10 -13 -29q-5 -4 -14 -13q-2 -10 -8 -29q-9 -8 -27 -26q-63 -93 -116 -93q-17 0 -46.5 24t-29.5 39q0 3 7 34t10 35l10 13q1 8 2 22q6 6 14 20q1 8 6 25 q6 9 15 26q1 7 6 21q8 7 22 21q16 23 44 58q9 5 24 18q18 29 19 31q14 17 35 17zM214 294q-28 0 -37 -13l-17 -33q-15 -14 -43 -47l-6 -3q-3 -19 -11 -51l-16 -31q-12 -23 -12 -29q0 -9 14 -25t23 -16q36 0 46 19l10 28q5 3 16 9q15 11 18 38q5 36 8 42q5 11 17 25 q5 6 10 44l-2 4v-1v26q-3 14 -18 14z" />
<glyph glyph-name="p" unicode="p" horiz-adv-x="314" d="M233 427h1q18 0 17 -11q0 -6 -2.5 -13t-2.5 -14q0 -16 26 -21q46 -8 48 -9q26 -10 26 -40q0 -10 -9.5 -21t-11.5 -16q-14 -37 -14 -43q0 -13 -22 -32l-26 -22q0 -8 -4 -24q-4 -7 -18 -12t-17.5 -11t-9.5 -18q-21 -26 -33 -54l5 -5t10 -4q8 0 28 4.5t23 8.5l9 12q7 2 20 8 l23 23l9 -5q1 -13 -6 -31q-6 -1 -18 -5q-3 -4 -10 -10q-16 -6 -46 -21q-9 -10 -29 -27q-7 -3 -19 -10q-4 -5 -14 -13q-9 -3 -25 -3q-27 0 -34 5q-3 2 -8 12q-4 7 -11 7q-4 -1 -14 -4q-1 -9 -5 -25l-5 -3l-16 -35q0 -10 -5 -31q-4 -9 -24 -31q-12 -13 -12 -40q0 -6 -22 -46 t-22 -59q0 -5 1 -15t1 -14q0 -14 -18.5 -46.5t-18.5 -30.5v-12q6 0 16.5 -1t15.5 -1q19 0 69 39q10 4 28 14l3 4q13 5 37 19q8 9 17.5 18.5t19.5 9.5q4 0 7 -3.5t5 -4.5v-14q0 -17 -36 -35q-48 -23 -49 -24l-89 -75q-15 -3 -46 -13q-6 -3 -34 -27q-19 -16 -49 -16 q-3 0 -17 -7.5t-36 -7.5q-9 0 -19 -8q-12 -11 -17 -13q-12 0 -36 -5q-4 -4 -12 -11q-3 -1 -9 -1t-9 -1t-15.5 -9.5t-17.5 -8.5q-6 0 -20.5 3t-22.5 3q-7 0 -19 -3t-18 -3q-4 0 -11.5 3t-11.5 2h-2l-7 -5h-12l-29 1q-4 0 -22.5 16.5t-19.5 20.5q0 10 14 27t23 17q4 0 13 -3 t14 -3t9 3t7 3t9.5 -4t10.5 -4q2 0 8.5 4t11.5 4q4 0 11.5 -4t12.5 -3q5 0 18.5 5.5t19.5 5.5q15 0 44 1q16 0 29.5 9t21.5 11q12 0 33 5q6 5 18 13q10 2 28 10q3 7 13 18q3 2 10 4t10 5q43 26 43 77q0 6 7.5 10.5t9.5 6.5q1 6 5 18q11 9 24 34q0 7 1 21q0 9 10.5 21 t12.5 18q-1 13 5 36q2 3 10 10t8 14q-1 13 0 17q0 9 12 22.5t12 21.5q0 4 -3.5 13t-2.5 14v3l4 5q7 25 17 40t12.5 23.5t3.5 24.5q0 21 1 28t10 22t9 24q0 4 -2 12t-2 13q0 7 11.5 18.5t11.5 38.5q0 6 9.5 33.5t9.5 47.5q0 9 -2 18l1 5h3q5 3 25.5 28.5t23.5 31.5q1 3 6 8 t5 10q0 16 25 16q9 0 23 11.5t25 11.5zM132 194h1q0 -6 -7 -15.5t-7 -15.5q0 -4 3 -11.5t2 -11.5l1 -2q-20 -17 -20 -36q0 -5 3.5 -15t7.5 -10h11q8 17 23 39q9 2 25 10q4 9 13 26q8 3 21 13q2 10 9 27q4 6 26 24q18 15 21 25q-1 5 0 15q0 4 2.5 11.5t2.5 11.5 q0 9 -11.5 16.5t-20.5 7.5q-8 0 -13 -4q-8 -6 -9 -7q-8 -1 -23 -7q-2 -4 -8 -10q-9 -4 -26 -16q-27 -25 -27 -65z" />
<glyph glyph-name="q" unicode="q" horiz-adv-x="329" d="M332 420l5 1q5 0 10 -12.5t5 -19.5q0 -8 -9 -31l-4 -4v-12q0 -10 -9 -22q-14 -16 -15 -19q-3 -14 -10 -43q-1 -3 -3.5 -7.5t-2.5 -9t-8 -8.5l-12 -5v-2q0 -3 -4 -6.5t-5 -4.5q-1 -6 -4 -15q-11 -9 -29 -31q-1 -7 -6 -23q-7 -7 -20 -24q-7 -13 -11 -44l-7 -9q2 6 2 -12 q0 -6 -3 -17.5t-3 -18t-6.5 -11t-6.5 -15.5q-2 -5 -13 -18q-8 -9 -8 -19t-11.5 -26t-11.5 -35q0 -8 -8 -20t-9 -18l-3 -18l-5 -4q0 -5 1.5 -14.5t0.5 -14.5q0 -9 -7 -22q-9 -17 -10 -20q-1 -12 -7 -33l-9 -10q-4 -12 -15 -33q-8 -6 -20 -21q-9 -21 -24 -44q-4 0 -11 -3 q0 -6 -5 -17l-13 -9q4 -14 9 -22l11 -1q4 0 8 4.5t5 5.5q15 9 31 12q28 6 31 7t12.5 10.5t25.5 8.5l4 -1l4 -4q-34 -52 -47 -60q-6 -1 -19 -4q-8 -4 -25 -19q-9 -9 -34 -9q-7 0 -15 -7q-11 -11 -13 -12t-38.5 -15.5t-37.5 -13.5q-9 -2 -35 -3q-18 0 -46.5 -15.5t-48.5 -14.5 q-38 -23 -65 -23q-13 0 -41 4l-6 5h-7q-7 0 -19.5 -2t-18.5 -2q-11 0 -28 13q2 13 4 17q3 9 10 13q28 17 123 17q11 0 32 10t43 10q11 0 16 4q11 7 13 8q19 4 54 15q11 5 44 35.5t42 43.5q2 8 10 22q10 9 30 29q7 12 29 35l1 6q-2 8 -2 13q0 8 7.5 24.5t7.5 29.5 q0 5 5.5 12.5t6.5 9.5q2 14 9 40q1 3 9 14q7 8 7 15q0 3 -1.5 8.5t-1.5 7.5q0 4 6 9.5t7 9.5q0 14 5 41l18 28q13 20 13 40q0 28 -42 26q-8 0 -30 23.5t-22 32.5q0 12 5.5 28t5.5 25q0 4 6.5 9.5t6.5 22.5q0 9 7.5 14.5t9.5 8.5q1 8 7 23q11 5 16 14q7 17 9 19q22 18 56 50 q10 16 35 44q12 8 24 8q4 0 10.5 -3t10.5 -3q2 0 8.5 4t10.5 5q5 13 12 16.5t10 7.5q3 16 44 40zM159 237l1 -1q-12 0 -17 -17q-5 -21 -9 -24l-20 -17h-5q-7 -11 -2 -25q-7 -13 -14 -40q0 -13 4.5 -17t9.5 -9q11 2 36 5q11 2 26.5 32t15.5 45q0 2 1 5v4q20 13 20 34 q0 -7 -4 21l13 7q-5 16 -11 16q-9 0 -17.5 -9.5t-27.5 -9.5zM227 -284l7 -5q-3 -7 -7 -24q0 -12 -26.5 -35.5t-42.5 -23.5q-4 0 -12 2q5 34 81 86z" />
<glyph glyph-name="r" unicode="r" horiz-adv-x="357" d="M220 396q7 0 12.5 -10t5.5 -17q0 -12 -7 -20t-7 -16q0 -9 6 -14.5t16 -5.5q13 0 26.5 19.5t28.5 19.5q32 0 53 -37q-3 1 21 1q6 0 8 -3t4 -3q-18 -38 -39 -38h-1q-6 8 -27 18t-32 10q-18 0 -38 -28q-24 -35 -31 -40q-1 -9 -6 -26q-6 -12 -17 -32q-4 -8 -18.5 -21 t-19.5 -22q-1 -9 -7 -25q-1 -2 -8.5 -8.5t-7.5 -9.5l1 -6l-17 -14q-3 -3 -36 -40q-24 -27 -39 -32q-11 17 -11 37q0 21 10 30l22 21t6 15q3 7 12 12q2 11 7 32q2 7 17 35q12 23 12 37q0 10 13 25t13 26q-1 18 -18 18q-4 0 -10 -2l-2 -4q-12 -8 -18.5 -18t-7.5 -11 q-9 -1 -24 -7.5t-22 -24.5q-11 -24 -14 -28q-10 -4 -27 -15q-11 -16 -30 -35h-8l-7 10q4 4 2 7q18 15 50 48q6 11 20 30q10 6 28 21q2 6 7 16q9 5 24 16q3 7 12 20q41 36 63 43q7 12 22 30z" />
<glyph glyph-name="s" unicode="s" horiz-adv-x="390" d="M312 390v1l15 -6q33 -6 39 -11t9 -37q0 -3 4 -8.5t4 -9.5q1 -7 -10.5 -19t-18.5 -12q-8 0 -18.5 11t-19.5 11q-7 0 -30 -15q8 -19 9 -40q3 -6 7 -17q1 -4 -2.5 -9t-3.5 -9q2 -27 2 -28q3 -7 6 -21q1 -8 -4.5 -13.5t-6.5 -8.5q0 -11 -6 -32q-10 -19 -52 -61v-5 q-2 -2 -7 -5t-7 -5l1 -5q-38 -42 -61 -42q-3 0 -9.5 2.5t-10.5 2.5q-5 0 -13.5 -5t-13.5 -5t-14.5 3.5t-14.5 3.5q-3 0 -10 -1t-11 -1h-18q-11 1 -18 1q-8 17 -17 51q4 7 5 35q0 4 32 49h4q5 1 13.5 -2.5t13.5 -3.5t8 -5q4 -8 5.5 -9t6.5 -2t7 -3q2 -5 7 -14q6 0 15 -3 q3 -2 16 -17q8 -10 30 -10q57 -1 75 73q1 5 9.5 16.5t7.5 18.5q-6 6 -15 50q-5 18 -12 53q2 11 3 43q-1 15 11 23q19 12 21 16.5l6 13.5q1 3 15.5 12.5t16.5 9.5z" />
<glyph glyph-name="t" unicode="t" horiz-adv-x="311" d="M285 543h-1q18 0 18 -14q0 -13 -20.5 -55t-30.5 -46v-27q19 -4 47 -11v-9l1 -4q-5 -8 -39 -52q-7 -3 -34 -3q-19 0 -28.5 -11.5t-22.5 -14.5q-4 -4 -6.5 -16.5t-4.5 -16.5q-5 -3 -12 -11q-3 -10 -12 -30q-5 -4 -16 -14q-3 -6 -6.5 -19.5t-7.5 -19.5q-1 -1 -14 -17 q-9 -11 -9 -20q1 -20 1 -15q0 -7 -9.5 -16t-9.5 -20q0 -16 16 -19t31 -4q18 30 44 30q16 0 16 -11q0 -20 -30 -32l-45 -16q-5 -3 -17 -20q-9 -12 -23 -12q-30 0 -41 10t-11 39q0 41 5 58q4 9 15.5 20.5t19.5 29.5q4 8 9 35q3 16 20 34q5 7 14 23q5 12 8 37q2 29 5 39 q8 17 23 53q1 13 9 38q3 5 39 32q8 6 18 21t17 20l23 16l22 26q13 15 29 15z" />
<glyph glyph-name="u" unicode="u" horiz-adv-x="309" d="M319 393h1q11 0 26.5 -16t16.5 -27q0 -1 -18 -30t-17 -40q0 -2 -18 -27.5t-16 -48.5q1 -8 -2.5 -10.5l-7.5 -5.5q-15 -18 -24 -32q-1 -11 -7 -32q-4 -3 -10 -11q-8 -13 -19 -47l6 -10l13 -4l3 -5q8 -2 11 -2q20 0 28 21q4 1 12 5q1 1 6 5.5t9 4.5l9 -5q1 -6 -1 -20 q-2 -6 -11 -11q-13 -7 -14 -8l-35 -33q-14 -11 -49 -11l2 -1q-1 0 -4 -1h-4q-20 0 -23 16t-4.5 32t-8.5 22l-11 1q-10 1 -19.5 -8t-11.5 -19q-4 -3 -15 -3.5t-15 -2t-22 -15.5q-12 -10 -32 -10q-33 0 -24 1q-15 8 -16 26q0 4 25 51t23 64q0 5 8.5 19.5t7.5 29.5 q-1 8 4.5 12.5t5.5 6.5v8q-11 7 -16 12t-6 14q-1 12 11 32q6 10 90 94q1 1 3 5.5t5.5 6t12.5 2.5q19 -14 21 -37q2 -22 -22 -39t-21 -43q1 -13 -7 -24q-13 -19 -14 -21q-1 -13 -8 -36q-12 -8 -27 -29v-22q0 -7 1 -10q-16 -16 -15 -26l3 -15h2l6 -3q3 0 9.5 2.5t10.5 2.5 t10.5 -2.5t9.5 -2.5l4 1q32 38 54 48q3 7 11 20q11 7 27 26q3 7 3 21.5t3 20.5q5 13 14 23q5 5 5 16q0 8 -2 27q-1 14 3.5 20.5t14.5 17.5q10 20 21 39q16 30 25 30z" />
<glyph glyph-name="v" unicode="v" horiz-adv-x="217" d="M283 397l1 -1q16 0 16 -20q0 -7 -4 -28l-1 -5l3 -5q3 -26 -12 -47q-7 -4 -20 -14q-8 -12 -32 -33q-9 -17 -32 -49q-6 -3 -18 -12q-3 -7 -11 -19q-9 -7 -25 -24l-16 -27l-24 -22q-7 -15 -30 -39q-1 -6 -7 -17q-2 -3 -7.5 -6t-7.5 -6q-3 -9 -10 -20l-30 -24l-12 -2 q-2 3 -8 7q5 15 17 47l6 5l17 58q4 12 2 25q-1 6 1.5 12t2.5 8q0 5 -5 11q0 41 5 59q9 23 22 69l1 8q-12 6 -13 6q1 0 -17 -6l-7 1q-3 0 -12 -23q-5 -3 -15 -27q-3 -6 -3 -8q-32 -12 -30 -12l-11 1q-2 22 3.5 42.5t23.5 39t24 35.5l46 12l6 5q11 1 31 2l8 5q9 2 26 2 t26.5 -6.5t19.5 -6.5q9 0 24.5 6.5t25.5 6.5l4 1q8 8 29.5 21.5t28.5 13.5zM166 339q-23 -16 -50 -45q0 -6 -2 -20l-2 -5l-6 -5q-1 -7 -6 -22q-4 -8 -11 -24q3 -6 0 -34q-2 -9 -4 -39q-1 -33 4 -33q13 0 39 39q24 34 28 50q2 9 26.5 28t33.5 51q1 4 1 8q0 6 -5.5 19t-5.5 23 q-14 1 -40 9z" />
<glyph glyph-name="w" unicode="w" horiz-adv-x="491" d="M182 391v1q18 0 15 -26v-29q1 -9 -5 -15t-12 -11q-10 -12 -16 -27t-11 -29q-6 -5 -15 -19q0 -12 -7 -35q-8 -8 -23 -26q-3 -14 -15 -41l-18 -25q-13 -20 -13 -27q0 -5 13 -25q55 14 79 33l22 21q10 3 27 13q41 32 49 44q5 8 7 24.5t5 23.5q1 3 9 11q5 6 5 13q0 8 -7.5 21 t-7.5 21q0 6 14 26q24 35 34 45q16 15 52 30l3 -4t3 -13q0 -15 -13.5 -35.5t-13.5 -32t-9 -21t-11 -15.5q-1 -11 -7 -33q-3 -6 -14 -15t-15 -16q-1 -10 -7 -29l-11 -14q-3 -4 -14 -44l-1 1v-4q7 -21 15 -21q3 0 26 8.5t25 10.5q5 7 16 19q18 8 49 32q5 13 19 37h4l29 33 l22 109q4 6 15.5 10.5t15.5 7.5q5 19 30 19l6 -1q3 -7 3 -16q0 -13 -8 -31q-9 -24 -11 -31q0 -12 -7 -32q-12 -7 -21 -26t-9 -34q0 -9 -11 -17q-15 -12 -17 -14q-5 -6 -18 -58q-4 -8 -4 -14q0 -5 20 -9l-1 -1h2q18 2 27 12l9 -1q-2 -14 -3 -27q-4 -12 -20 -14 q-10 -1 -38 -22q-33 -24 -41 -28h-2q-19 0 -19 28q0 25 7 32l-3 7l1 2l-5 4q-2 1 -6.5 2t-6.5 1q-18 0 -27 -5q-4 -5 -13.5 -14.5t-26.5 -20.5q-23 -14 -28.5 -19t-18.5 -14q-6 -3 -22 -5q-25 0 -28.5 26.5t-15.5 26.5q-11 0 -17 -10q-9 -13 -13 -16q-11 -3 -32 -10 q-6 -3 -27 -20q-16 -13 -30 -13q-26 0 -28 32q-3 40 -10 46q-11 -3 -33 -12l-2 7q10 21 15 27q10 16 22 20v4h3q29 29 57 65q7 8 11 24q7 24 7 24.5t9 14.5q6 9 6 16q0 5 -1 17t-1 18l-24 2q0 20 6 49q5 3 14.5 10.5t31.5 22.5q19 3 55 13z" />
<glyph glyph-name="x" unicode="x" horiz-adv-x="423" d="M138 394h1q7 0 13 -5q10 -8 11 -8q10 0 27 -5q4 -2 7.5 -11t7 -11t11.5 -8q0 -1 8 -26q4 -16 24 -16q28 0 60.5 36.5t47.5 36.5q16 0 29.5 -20t13.5 -41q0 -16 -10.5 -28t-26.5 -12l-6 1q-9 16 -41 16q-18 0 -46 -14q-32 -15 -36 -32q-7 -15 -17 -46q2 -19 -5 -61l-1 -6 l18 -63l-1 -3q6 -3 8 -2q22 0 60 38.5t44 38.5q8 0 4 -13q-11 -32 -59 -74.5t-51 -51.5q-18 0 -37 -10q-13 0 -23.5 8.5t-10.5 20.5q0 5 1 9q2 7 0 12q-3 7 -3 9q2 11 1 31q-1 5 -7 16t-6 19q0 3 1.5 16.5t0.5 19.5q-1 9 -7 8l-11 -1q-11 -7 -29 -25q-3 -5 -9 -13 q-7 -3 -21 -12q-7 -10 -23 -29q-5 -3 -15 -13q-2 -3 -5 -10t-7 -11t-16 -8.5t-14.5 -6.5t-11.5 -14q-6 -7 -13 -7h-2q-5 0 -18 -7t-20 -7q-11 0 -16 9q-4 9 0 21q10 29 28 52q23 27 47 27q4 0 15 5t15.5 6t15 1t30 12.5t27.5 14.5q11 11 29 26q5 1 14 4q11 9 19 35l3 37 q1 34 1 33q-1 13 -15 23q-8 7 -17.5 14t-21.5 7q-37 0 -51 -45q-3 -9 -14.5 -20.5t-19.5 -11.5q-15 0 -5 29q9 25 16 32q5 3 15 10l45 45q31 29 50 29z" />
<glyph glyph-name="y" unicode="y" horiz-adv-x="382" d="M225 50q-1 -9 -5 -27q-5 -6 -14 -19q-1 -10 -6 -27q-3 -5 -9 -16q-4 -18 -13 -53q-7 -12 -16 -37q-1 -6 -3 -17q-9 -10 -26 -32q-1 -10 -6 -29q-9 -13 -23 -43q0 -12 -4 -33q-3 -7 -14.5 -16.5t-14.5 -16.5q-1 -11 -8 -32q-7 -5 -22 -17q-6 -10 -19 -29q-12 -8 -33 -26 q-2 -13 -14 -32q-9 -2 -24 -10q-1 -6 -6 -18q-1 1 -2 0t0 -2q-11 -7 -26 -25.5t-16 -18.5q-5 -3 -25 -5q-15 -2 -21 -15h-5q-19 -28 -51.5 -46t-65.5 -18q-31 0 -55 33q-1 1 -18 5q-12 3 -12 11q0 4 3 10q-1 3 -13 22q-6 10 -6 31q0 10 3 21q42 26 92 26q7 0 17 6h3 q4 0 12.5 -3t13.5 -2q7 0 64 16t67 20q7 7 25 18q18 3 51 19l-1 5q7 4 20 24.5t14 28.5t13.5 19t14.5 16q8 25 27 67q6 4 14 14q0 10 5 27q10 6 25 24q1 13 5 40q7 7 18 24q0 7 2 23l12 22q3 17 15 49l8 10q3 3 3 13q0 7 4.5 12.5t5.5 8.5q1 7 6 19l-21 -6q-26 -7 -29 -27 q-4 -3 -15 -3.5t-15 -2t-22 -15.5q-13 -10 -33 -10q-31 0 -23 1q-15 8 -17 26q0 4 25 51t24 64q0 5 8.5 19.5t7.5 29.5q-1 8 4.5 12.5t5.5 7.5v7q-11 7 -16 12.5t-6 14.5q-1 12 11 32q6 10 90 94q2 5 7 11q5 1 13 2q20 -15 22 -37t-22 -39t-21 -43q1 -13 -7 -24 q-14 -19 -14 -20q-1 -12 -8 -37q-12 -8 -27 -28v-22q0 -7 1 -10q-16 -16 -15 -27l3 -15h2l6 -2q3 0 9 2.5t10 1.5q3 0 10 -2.5t11 -2.5l4 1q32 38 54 48q3 7 10 20q11 8 28 26q0 14 6 43q5 13 14 23q5 5 5 16q0 8 -2 26q-1 14 2 22l16 16q10 20 21 39q16 30 25 30 q11 0 26.5 -15.5t17.5 -26.5q0 -1 -18 -30t-17 -40q0 -2 -18 -27.5t-16 -48.5q1 -8 -2.5 -10.5l-7.5 -5.5q-15 -18 -24 -32q-1 -11 -7 -32q-4 -3 -12 -13q0 -7 -14.5 -33t-15.5 -30z" />
<glyph glyph-name="z" unicode="z" horiz-adv-x="257" d="M292 437q21 0 21 -26l-1 -8l-4 -6q-6 -38 -13 -50l-29 -40l-4 -2q-4 -16 -16 -47q-4 -8 -25 -24q-17 -14 -20 -27q-1 -6 -10 -15t-11 -15q-4 -13 -12.5 -21.5t-11.5 -14.5q-1 -9 -6 -25q-9 -6 -22 -21q-19 -37 -20 -78q0 -8 -10.5 -20t-10.5 -21.5t-13 -31.5 q-9 -6 -10 -13q1 7 1 -16q0 -7 -6.5 -17t-7.5 -14q0 -8 -2 -23q-3 -10 -22 -26q-15 -12 -15 -43v-7l-5 -6l1 -11q0 -4 -5.5 -8t-6.5 -6q0 -9 -6 -26q-2 -3 -13 -10t-11 -14v-8l16 -8q2 2 5 7t5 7t7.5 2.5t7.5 2.5l5 10q6 1 17 8q4 10 18 26q8 2 22 10v5q9 7 16 20t13.5 16.5 t20.5 10.5q6 4 11.5 16t8 15t16.5 13q10 6 10 15q0 4 -2 12l4 4v1h3q2 1 3 1q15 0 15 -12q0 -16 -18 -40q-14 -19 -29 -37q-2 -3 -19 -14q-12 -8 -12 -20q0 -2 1 -7.5t1 -8.5q0 -8 -8 -13t-16 -9q-8 -13 -28 -35q-23 -17 -59 -49q-7 -16 -24 -39q-10 -7 -37.5 -18.5 t-37.5 -19.5q-9 -13 -26 -30q-18 -7 -49 -24q-4 -6 -12 -16q-6 -1 -17 -13q-6 -4 -20 -6.5t-20 -6.5l-5 -6q-5 -1 -15 -5q-5 -5 -16 -13q-12 -1 -34 -10q-9 -9 -29 -22q-13 -2 -40 -8q-10 -5 -32 -12l-46 -9l-5 -4q-7 1 -22 1q-14 1 -40.5 -7.5t-41.5 -8.5q-45 -12 -65 -12 q-7 0 -22.5 3t-27.5 3q-8 0 -18.5 10t-10.5 19q0 8 20 33t26 24q12 -3 23 -3q23 0 39 10.5l16 10.5h42q23 0 34 5t32 5q9 0 21.5 8t18.5 8.5t18 3.5l5 4q6 -1 18 -1l30 6l4 5q-5 0 27 -4q12 0 27 15.5t41 15.5q11 0 33.5 17t28.5 28q3 1 18 1l9 1l-1 2q21 10 33.5 25.5 l24.5 31.5q4 3 11 11q0 5 4 15q5 1 13 4.5t18 19.5t15 20l13 31q4 5 11 15q1 8 5 24q6 11 24 21q10 5 10 36q0 17 23 40q2 4 -1 17q0 6 11 37q12 35 14 42l8 8q2 12 7 31q1 2 6.5 8t4.5 11v7q-10 5 -17 6q-5 1 -13 0q-11 -1 -17 -1q-19 0 -19 14q0 13 23 30q21 14 37 18 q5 3 8.5 12t4.5 11q6 9 30 26q21 15 27 30q1 6 4 18q12 8 24 32q0 1 -9 15q-9 3 -12 3q-4 0 -8 -3q-6 -6 -7 -6q-27 -14 -44 -31q-20 -19 -25 -22q-12 -2 -35 -7q-1 0 -33 -13l-1 8q0 9 13.5 16.5t15.5 9.5q2 12 11 34q4 7 17 12.5t17 9.5l35 39q22 24 41 35q9 2 26 7 q18 12 60 29l19 11q7 14 15 28q15 25 31 25z" />
<glyph glyph-name="braceleft" unicode="{" horiz-adv-x="478" d="M157 589v-1q1 -5 -2 -17q-4 -15 -4 -17q2 -12 -4 -40q-1 -10 -12 -27q-2 -4 2 -10.5t4 -9.5q0 -4 -3.5 -8t-20.5 -31q-2 -4 -19.5 -24.5t-17.5 -21.5q-4 -4 -5.5 -6t-2 -3t-0.5 -3l2 -6q3 -19 4 -47q-1 -12 -6 -31l2 -4q0 -4 -11 -11.5t-12 -11.5q5 -6 -6 -26 q-15 -29 -26 -41q-6 -13 -19 -34q-4 -3 -10 -9q-2 -7 -8 -19q-7 -7 -16 -22q0 -6 -8 -19q-4 -3 -9 -8t-5.5 -11.5t-1.5 -8.5q-6 -7 -15 -22q1 -5 -1 -14q-1 0 -2.5 -1t-1.5 -2q-3 -3 -1 -16q2 -15 2 -17q-4 -35 -3 -37q4 -4 11 -12q11 -24 44 -69l20 -12q6 -11 24 -32 q22 -17 69 -30q31 -9 59 -9q6 0 19 2.5t20 2.5q3 0 11 -1t12 -1l21 9h-68q-35 1 -66 9q-40 11 -54 26q-1 3 -5 10q-11 6 -29 21q-2 6 -8 18q-13 10 -29 31q1 6 2 17q0 3 -4.5 11t-3.5 12q3 7 8 21q-1 7 0 21q7 9 17 29q1 11 12 32q7 7 13.5 12t10 23.5t10.5 26.5 q21 24 38 34q7 3 7 17q0 9 5 19q8 6 19 18q4 7 11 12q1 2 4.5 5t5.5 15q0 -4 6 8q0 5 -1.5 9.5t-1.5 5.5q0 6 14 16q2 1 2 4q0 2 -3.5 6t-3.5 6q0 3 4 8t4 7q0 15 -16 33q5 0 14 3q13 11 18 35q1 9 1 19l-11 3q29 18 40 33q0 5 3 15q1 2 9.5 7.5t6.5 7.5q-5 7 -5 11t6 9.5 t9 10.5q0 3 1 10q8 10 6 13q-1 1 0 3q0 2 -1.5 4.5t-0.5 10.5q1 3 -3.5 9t-4.5 9q4 12 9 19q8 11 8 14q0 -1 -6 7.5t-9 28.5q-1 7 8.5 25.5t7.5 25.5q-1 4 -4 13q-2 6 3 16q4 7 8 15q0 10 3 30q7 7 17 21q1 7 6 20q9 7 24 22q2 6 11 18l53 31q6 7 21 19l43 21q4 4 12 9 q25 15 73 26q37 8 73 9h68q-2 4 -13 9q-4 1 -13.5 -0.5t-12.5 -1.5q-6 0 -17.5 2.5t-18.5 2.5q-26 0 -64 -9q-55 -13 -92 -31l-47 -30q-9 -4 -27 -13q-22 -12 -50 -34q-37 -29 -45 -33.5t-21 -13.5q-3 -3 -23 -37l-15 -17q-11 -13 -10 -17q0 -1 1 -1v-2q1 -2 -3.5 -6.5 t-4.5 -5.5q0 -7 -2 -22q0 -1 -5 -10q-3 -5 -2 -10q2 -3 4 -9q1 -4 -3 -10t-4 -8q2 -7 1 -22q0 -2 -4 -9t-3 -10q1 -1 2.5 -4t1.5 -5z" />
<glyph glyph-name="bar" unicode="|" horiz-adv-x="416" d="M462 833l12 -3q-14 -24 -42 -49t-32 -34.5t-12 -30.5q-9 -10 -21 -32q1 -8 -1 -23l-2 -6q-13 -12 -14 -16q-2 -10 -4 -19l-15 -21q-26 -48 -43 -121q0 -20 -6 -58q-5 -10 -13 -31q1 -9 1 -27q-2 -8 -11 -19t-11 -16q-23 -51 -26 -93q1 -15 -2 -45l-2 -5h-3l-12 -23 q-4 -31 -11 -49q-8 -25 -17 -49l2 -43q-8 -10 -17 -35t-16 -35l-7 -2q-23 -23 -28 -34q-2 -4 -11 -41q-1 -4 -4 -11l-7 -3l-29 -30q-2 -1 -47 -9q-11 27 -10 34q0 -4 30.5 40.5t39.5 81.5q2 9 0 24t-1 22q2 10 14.5 26t14.5 25q-1 11 1 33q4 9 10 28v2q3 14 9 55q-4 0 8 27 t29 42q3 2 2 8q-2 8 -1 10q0 2 14 20l2 5q0 9 1 26l2 8q14 14 19.5 32.5t9.5 37.5q3 14 16 39.5t15 43t8 49.5q25 77 53 115q1 5 6 15q3 3 13 6t11 10.5l3 23.5q5 23 24 37l33 25q5 9 16 25zM596 915h-1q-3 -15 -21.5 -23.5l-34.5 -16.5q-7 -17 -52 -34l-5 6q0 6 1 9 q2 9 14 29.5t19 21.5l-1 11q-22 2 -64 10q-24 6 -21 11q4 5 44 21h8q4 -1 13.5 -6t17.5 -5t23.5 3.5t23.5 3.5q17 0 28.5 -12t7.5 -29z" />
<glyph glyph-name="braceright" unicode="}" horiz-adv-x="478" d="M487 589v-1l-18 -34q-1 -1 -27 -40q-10 -21 -6 -27q-1 -4 -12 -11.5t-11 -11.5q1 -3 2 -4q-1 -12 -5 -32q3 -22 3 -46q2 -4 2 -6v-3q0 -2 -3 -4t-4 -4.5t-18.5 -23t-19.5 -24.5l-18 -31q-5 -3 -5 -7q0 -3 4 -9.5t2 -10.5q-7 -5 -13 -26q-5 -33 -3 -41q0 -2 -4 -16t-3 -18 q3 -10 3 -9q1 -3 -2.5 -10t-3.5 -9q-1 -4 0.5 -11.5t1.5 -10.5t-4 -9t-3 -10q3 -10 3 -9q1 -4 -2.5 -10t-3.5 -9q1 -7 -2 -22q0 -2 -4.5 -7t-3.5 -7q0 -1 1 -1v-2q1 -3 -11 -16q-14 -16 -15 -17q-6 -12 -24 -37q-7 -4 -19 -12q-29 -24 -95 -69q-10 -4 -27 -12 q-15 -11 -48 -32q-34 -17 -91 -30q-38 -9 -64 -9q-7 0 -18.5 2.5t-17.5 2.5q-3 0 -12 -1t-13 -1l-15 9h68q36 1 73 9q48 11 73 26q4 3 12 10l44 21q6 6 21 18q20 10 52 31q3 6 10 17q10 7 25 23q1 7 6 21q7 7 18 21q0 10 2 29l8.5 17t2.5 15q-1 4 -4 11q-2 7 7.5 25.5 t8.5 25.5q-3 20 -9 29t-6 8q0 2 8 14q5 7 9 19q1 3 -3.5 9t-4.5 9q2 8 -1 12q-1 1 0 3q0 2 -1 3q-1 2 6 14q0 3 2 8t8 11t6 9q0 4 -4 11q-2 3 7 9t10 7q-1 5 2 15q9 14 39 33q-5 0 -11 3q-1 3 -1 6q0 12 10.5 31.5t10.5 18t13 1.5q-17 19 -15 33q0 3 4 8t4 7t-3.5 6t-3.5 6 t2 3q14 10 14 16q0 1 -1.5 5.5t-0.5 9.5q0 2 3 5t3 5q0 11 2 13t7.5 6.5t9.5 11.5q8 6 19 18q5 10 5 19q0 14 7 17q17 9 38 33q6 7 10 25.5t11 25.5q5 4 13 13q6 6 9 15q3 15 4 16q7 10 16 30v21q4 6 8 20q1 4 -3.5 11.5t-4.5 10.5q2 6 2 18q-2 7 -13 16q-15 14 -16 15 q-1 7 -8 19q-10 7 -28 21q-1 4 -5 9q-14 15 -54 26q-31 8 -66 9h-69q6 4 22 9q4 0 12 -1t12 -1q7 0 19.5 2.5t18.5 2.5q72 0 127 -40l25 -30q7 -4 19 -13q13 -12 24 -34q15 -28 20 -35q5 -3 9 -11t2 -19q-2 -17 -2 -19q3 -14 0 -34l-1.5 -1t-2.5 -2q0 -5 -1 -12l-15 -22 q1 -6 -6 -20q-4 -3 -10 -9q-1 -6 -7 -18l-17 -22q-1 -7 -8 -19q-1 -1 -4.5 -4t-5.5 -5z" />
<glyph glyph-name="asciitilde" unicode="~" horiz-adv-x="463" d="M452 865l-27 -34q-12 -6 -20 -6q-10 0 -10 12q1 27 -10.5 50t-25.5 24q-5 0 -13 -4t-12 -4q-5 0 -13.5 3.5t-13.5 3.5q-9 0 -26 -13q-21 -17 -26.5 -19.5t-11.5 -1t-11 -0.5l-26 -18q-19 -4 -49 -20q-6 -6 -18 -15q-15 -7 -29 -4q-1 0 -7 6q-2 3 -13 -2q-30 -14 -29 -14 q-3 0 -6.5 4t-7.5 5q-5 -1 -13 0q-15 9 -14 49q2 57 53 121l7 -3q-4 -38 -4 -56q0 -23 1 -28.5t19 -15.5q15 -8 34 -8q33 0 114 37l63 32q6 3 17 8q11 -1 36 2q45 13 44 13q9 0 16 -5.5t18 -45.5q3 -10 5 -29z" />
<glyph glyph-name="exclamdown" unicode="&#xa1;" horiz-adv-x="470" d="M83 -10h1q-1 6 5.5 15.5t7.5 14.5q-2 9 -1 28q2 8 11 19t11 16q21 46 25 89q-1 16 3 48l2 6l3 -1l12 24q3 19 27 97l-1 44q8 10 17 34.5t16 34.5l7 3q23 23 28 34q2 4 11 41q2 4 4 11l7 3l29 30q2 1 47 8q11 -26 9 -33q0 4 -30 -39q-31 -46 -39 -84q-2 -10 0 -24 q2 -15 1 -21q-2 -10 -14.5 -26.5t-13 -26.5t-2.5 -32q-4 -9 -10 -27v-2q-3 -14 -9 -55q4 0 -8 -27t-29 -43q-3 -2 -2 -8q2 -8 1 -10q0 -2 -14 -20l-2 -4q-1 -4 0 -13q0 -9 -1 -14l-3 -7q-13 -12 -18 -33q-7 -30 -10 -36.5t-24 -19.5t-36 -13q-17 0 -18 19zM402 666v1 q26 10 36 21l14 22q11 13 30 39l4 4q-1 10 0 26q1 3 -3 23q-4 13 -29 13q-3 0 -6 -1q-35 -14 -43 -21q-3 -6 -7.5 -10.5t-13.5 -11.5q-11 -11 -10 -24q3 -19 1 -23q-3 -7 -11 -18q-3 -5 -1 -24l3 -1l-1 1q7 -19 25 -19q5 0 12 3z" />
<glyph glyph-name="cent" unicode="&#xa2;" horiz-adv-x="261" d="M225 333q23 -11 23 -39v-5l-21 -22q-12 -8 -31 -8q-6 0 -18.5 -2t-18.5 -2l-4 -1q-12 -4 -32 -16q-1 -4 -6 -11t-18 -23q-7 -7 -17 -21l-1 -3q-1 -3 -5 -12l-8 -5q0 -13 -9 -35q0 -27 2 -29t31 -2q1 0 4 1l3 3q14 3 37 20q6 9 17 13q3 1 6 4l2 3q5 8 12 8h3l16 4 q-5 -9 -14 -37q-4 -20 -9 -25q-16 -20 -50 -30q-21 -6 -23 -20l-1 -2l-2 -14q-3 -20 -11 -29q-15 -17 -17 -20q0 -10 -17 -31q-5 -11 -30 -3q-1 0 -3 1q-15 4 -15 16q0 7 9 27q1 2 6 9q3 4 15 31q5 0 7 13q-18 5 -30.5 22.5t-12.5 36.5q0 8 5 19.5t5 19t9 21.5l2 3q4 4 4 7 q0 -7 -4 17q0 12 14 23t14.5 15.5t4.5 15.5q3 6 12.5 12.5t12.5 9.5q12 18 39 42l3 2q3 1 10 11t23 14q4 1 11 3q5 10 12 27q1 0 4 7q13 27 30 55l26 2l7 -15v-20v-7q-1 -4 -1 -7l-1 -2l-2 -15q-2 -17 -9 -25z" />
<glyph glyph-name="sterling" unicode="&#xa3;" horiz-adv-x="567" d="M24 -238h-1q-4 0 -24 10l2 11q11 7 57 26q36 16 53 33q11 11 23 31l21 33q21 27 58 83q5 8 48 116q11 22 25 70q2 15 1 23q-3 16 -65 16q-48 0 -120 -9l-1 13q72 27 132 26q5 0 18 -1t20 -1q16 0 22.5 5t13.5 11l3 1q4 6 8 26q2 14 15 36q16 29 18.5 38.5t9.5 31.5 q11 21 31 63q3 12 13 36q8 8 21 24q3 12 13 33q11 14 30 43q3 10 11 27l7 3q5 11 19 30q11 7 31 23q24 27 79 74q15 5 41 20q4 5 11 12q10 3 29 11q23 15 71 39q10 2 30 7q9 7 26 18q25 5 75 19q5 4 15.5 9.5t29.5 6.5q25 3 31 4q14 6 41 14h9q11 0 28.5 -5t24.5 -6 q24 -3 50.5 -5.5t44.5 -10.5q9 -4 18 -15l15 -18q12 -10 30 -34q3 -13 10 -40q6 -7 13 -23q3 -15 -1 -39q-5 -33 -29 -74l-24 -3q0 1 2 4q0 1 -5 3q16 48 16 99q0 40 -13 64l-28 26q-3 8 -14 21q-37 26 -119 26q-103 0 -206 -40q-9 -7 -29 -17q-12 -2 -36 -10 q-12 -10 -37 -27q-7 -1 -21 -6q-6 -7 -21 -20q-12 -5 -35 -17q-10 -12 -33 -34q-6 -2 -16.5 -10.5t-21.5 -29.5q-12 -24 -19 -32q-12 -11 -32 -37q-3 -7 -6.5 -20.5t-6.5 -19.5q-5 -11 -22.5 -30.5t-23 -33.5t-12 -45.5t-13.5 -46.5q-8 -10 -22 -30q-7 -14 -13 -42.5 t-12 -41.5l-14 -19v-8q1 -4 2 -2l-1 -7q16 -5 42 -6l43 -3v-18q-33 -18 -34 -18q-7 -3 -37 -2q-20 0 -27 -7q-1 -1 -5 -12q-10 -12 -25 -37q-1 -13 -5 -37q-2 -12 -11 -26q-13 -20 -15 -24q-6 -19 -23 -56q-8 -7 -24 -24q-10 -16 -29 -49q-18 -27 -51 -83q5 -5 9.5 -10 t17.5 -5q8 0 24 2.5t24 2.5q11 0 33.5 -5t34.5 -5q8 0 23 4t21 5q19 2 113 4q29 1 45 0q6 0 20.5 -1.5t22.5 -1.5q12 4 38 10q-6 -1 33 -1q11 0 25.5 7t20.5 8q21 3 41 5q26 3 41 12q9 5 24 22t15.5 24.5t1.5 20.5q0 4 2 7.5t36 20.5t39 17h15q1 -6 1 -17q-1 -4 -10 -11.5 t-11 -21.5q-2 -9 -8.5 -14t-13.5 -9q-6 -9 -20.5 -21.5t-36 -20.5l-41.5 -15q-14 -8 -43 -22q-66 -25 -116 -26q-7 0 -20 1t-19 1q-8 0 -24.5 -3.5t-25.5 -3.5q-3 0 -11 2t-12 1l-3 1q-20 -10 -56 -11q-16 0 -47 2t-45 2q-8 0 -25 -1.5t-25 -1.5q-39 0 -116 2q-9 2 -29 5 q-19 0 -45 -15q-31 -19 -40.5 -21t-27.5 -5q-22 -7 -18 -7z" />
<glyph glyph-name="currency" unicode="&#xa4;" horiz-adv-x="258" d="M187 771h1q4 0 13.5 -1t14.5 -1q11 0 15 -12l2 -18l4 -4q2 -4 0 -9q0 -6 -3.5 -17.5t-3.5 -19.5q0 -11 -14 -24q-3 -6 -9 -15q-2 -2 -5.5 -3.5t-4.5 -2.5q-1 -5 -6 -16q-7 -4 -20 -13q-48 -46 -89 -46q-13 0 -34.5 12t-20.5 20q0 2 5.5 17.5t6.5 17t4 3.5t3.5 4.5t3 7.5 t9.5 12q1 4 4 12q4 5 12 14q0 4 4.5 9t14.5 12q12 11 35 28l18 8q23 25 40 25zM176 719h1q-21 0 -28 -7t-14 -15q-11 -7 -31 -25l-4 -1q-2 -9 -9 -25q-21 -31 -21 -30q0 -5 10.5 -13t17.5 -8q26 0 34 10l8 14q2 1 6 2t5 2q11 6 14 19q4 17 7 20.5t13 13.5q3 3 7 22l-2 2 l-1 -1q0 14 0 13q-1 7 -13 7z" />
<glyph glyph-name="yen" unicode="&#xa5;" horiz-adv-x="1266" d="M1067 892h-1q17 0 17 -15q0 -7 -3.5 -16.5t-9.5 -16.5l-11 -9l-6 -9q-3 -7 -9 -23q-12 -27 -56 -91q-20 -23 -51 -70q-2 -11 -11 -34q-9 -9 -24 -28q-9 -16 -30 -49q-11 -12 -31 -37q-27 -37 -92 -164q-14 -21 -38 -64q-4 -9 -4 -16q0 -18 23 -17q4 0 12 1l1 4 q27 11 59 35l56 41q18 10 50 32q5 7 17 21q21 11 55 35q3 6 12 16l10 4l3 9q14 9 36 7l-2 -2q2 -2 2 -6q-3 -8 -16 -16q-18 -11 -20 -12q-17 -19 -56 -51q-11 -4 -35 -17q-3 -10 -10 -13q-13 -6 -14 -7q-9 -11 -31 -33q-14 -12 -38 -25l-39 -22q-6 -6 -19 -16 q-21 -7 -63 -24q-23 -13 -45 -27q-26 -15 -47 -15q-30 0 -30 22q0 27 52 96q19 19 50 65l9.5 25t17 25l21.5 17q12 18 39 53q8 7 20 20q5 9 9 14q4 16 16 51q8 19 34.5 55t34.5 55q7 23 24 68q6 14 15 23q13 13 17 19q22 31 38 65q1 3 -2 5.5t-3 5.5q-11 0 -34 -4 q-6 -2 -25 -15t-27 -13q-7 0 -9.5 4t-3.5 4q15 12 47 32q21 10 53 18q47 12 52 13.5t23 10.5q13 6 21 6zM979 168v-1q17 31 47 94q9 21 12 37q1 8 -2 16.5t-3 13.5q0 8 6 19.5t16 34.5l2 4l-3 12l2 6q6 19 25 36q23 22 29 31q4 5 28 60q10 22 28 41q25 26 31 35q3 6 9 17 q3 7 14.5 17.5t14.5 13.5q4 8 14 24q8 6 20 16q8 10 13 28q7 15 18 25q16 14 21 20q4 10 16 28q11 7 30 23q16 19 61 57q4 -1 15 -12q7 -12 2 -25q-1 -3 -28 -36l-61 -84q-4 -6 -52 -61q-34 -40 -43 -59l-9 -26q-4 -9 -13 -18q-12 -11 -15 -15.5t-12 -25.5q-7 -17 -22 -49.5 l-43 -93.5q-12 -28 -16 -45q1 -9 0 -28q-9 -39 -32 -90q-47 -105 -162 -216q-64 -61 -217 -142q-1 -3 -3.5 -7t-48 -34t-48.5 -31q-14 0 -42 -3l-13 -8q-2 -5 -9 -12q-43 -26 -52 -27q-18 -3 -37 -12t-25 -10q-14 2 -42 2q-6 -1 -18.5 -5.5t-19.5 -4.5h-7l-10 4l-5 -1 q-11 -1 -32 -10.5t-32 -9.5h-3q-9 5 -27 11q-18 -2 -27 -2q-25 0 -38 7q-19 9 -27 11q-1 0 -32 3q-19 2 -28 9t-15 24q-7 23 -10 28q-9 13 -17 27.5t-5 32.5l1 7q-5 5 -6 11q1 10 0 30q-5 14 -13 44q-5 35 -3 42q0 1 2 49q1 17 4 29.5t18 29.5t19 24q3 12 10 34q8 9 23 30 q6 20 27 54q14 9 40 29l21.5 24.5t21.5 14.5q29 4 40 17.5t21 14.5h27v1q-1 1 -1 4l2 -5q2 1 2 3l53 9q17 2 36.5 -6t28.5 -7q49 6 76 -18q6 -12 22 -33q4 -4 24 -13q13 -5 15 -23q7 -17 17 -52q1 -10 -3 -15q-6 -8 -7 -11l-3 -23q-5 -18 -28 -53q-26 -39 -39 -41 q-8 -1 -23.5 -14.5t-25.5 -14.5q-23 2 -66 0q-9 -1 -17 -1q-66 0 -77 77q-2 12 -2 21q0 20 13 31q23 21 28 29l4 2q16 6 44 13q8 1 26.5 -9.5t31.5 -8.5q5 -8 11 -24q1 -12 -8.5 -32.5t-7.5 -31.5q4 -27 40 -23l10 3l4 6q37 21 42.5 28t12.5 45q1 5 8 24q5 11 2 29 q-3 24 -11 38q-3 6 -13 12t-13 10q-4 15 -23 35q-10 -2 -18 3t-14 4q-17 -2 -31 5q-4 0 -18 -4t-47 -9q-11 -2 -29.5 7t-29.5 7q-15 -2 -28 -19t-20.5 -17.5t-22.5 -3.5q-17 -19 -52 -46q-14 -3 -39 -14q-4 -3 -21.5 -32t-19.5 -35l-2 -1q0 -11 -2 -32l-21 -36 q-3 -7 -10.5 -42t-6.5 -40q7 -20 19 -62q2 -11 12 -26q8 -11 5 -18l-1 -1q4 -3 9 -10l40 -49q26 -28 52 -34q12 0 36 -4q3 -1 18 -9q11 -5 21 -4q17 2 37 1q21 -2 32 -1q23 7 70 17q22 3 46 12.5t35 11.5q16 0 48 2q16 3 27 16q7 1 19 6q5 7 19 18q8 4 24.5 6.5t22.5 7 t17 15t38 26.5t39 26q4 7 15 17q12 3 34 13q17 10 57.5 47t49.5 51q19 32 46 58q21 19 39 63z" />
<glyph glyph-name="section" unicode="&#xa7;" horiz-adv-x="1266" d="M980 168v-1q17 31 47 94q9 21 12 37q1 8 -2 16.5t-3 13.5q0 8 6 19.5t16 34.5l2 4l-3 12l2 6q6 19 25 36q23 22 29 31q4 5 28 60q10 22 28 41q25 26 31 35q3 6 9 17q3 7 14.5 17.5t14.5 13.5q4 8 14 24q8 6 20 16q8 10 13 28q7 15 18 25q16 14 21 20q4 10 16 28 q11 7 30 23q16 19 61 57q4 -1 15 -12q7 -12 2 -25q-1 -3 -28 -36l-61 -84q-4 -6 -52 -61q-34 -40 -43 -59l-9 -26q-4 -9 -13 -18q-12 -11 -15 -15.5t-12 -25.5q-7 -17 -22 -49.5l-43 -93.5q-12 -28 -16 -45q1 -9 0 -28q-9 -39 -32 -90q-47 -105 -162 -216q-64 -61 -217 -142 q-1 -3 -3.5 -7t-48 -34t-48.5 -31q-14 0 -42 -3l-13 -8q-2 -5 -9 -12q-43 -26 -52 -27q-18 -3 -37 -12t-25 -10q-14 2 -42 2q-6 -1 -18.5 -5.5t-19.5 -4.5h-7l-10 4l-5 -1q-11 -1 -32 -10.5t-32 -9.5h-3q-9 5 -27 11q-18 -2 -27 -2q-25 0 -39 7q-18 9 -27 11l-31 3 q-19 2 -28 9t-15 24q-7 23 -10 28q-9 13 -17 27.5t-5 32.5l1 7q-5 5 -6 11q1 10 0 30q-5 14 -13 44q-5 35 -3 42q0 1 2 49q1 17 4 29.5t18 29.5t19 24q3 12 10 34q8 9 23 30q6 20 27 54q14 9 40 29l21.5 24.5t21.5 14.5q29 4 40 17.5t21 14.5h27v1q-1 1 -1 4l2 -5q2 1 2 3 l53 9q17 2 36.5 -6t28.5 -7q49 6 76 -18q6 -12 22 -33q4 -4 24 -13q13 -5 15 -23q7 -17 17 -52q1 -10 -3 -15q-6 -8 -7 -11l-3 -23q-5 -18 -28 -53q-26 -39 -39 -41q-8 -1 -23.5 -14.5t-25.5 -14.5q-23 2 -66 0q-9 -1 -17 -1q-66 0 -77 77q-2 12 -2 21q0 20 13 31 q23 21 28 29l4 2q16 6 44 13q8 1 26.5 -9.5t31.5 -8.5q5 -8 11 -24q1 -12 -8.5 -32.5t-7.5 -31.5q4 -27 40 -23l10 3l4 6q37 21 42.5 28t12.5 45q1 5 8 24q5 11 2 29q-3 24 -11 38q-3 6 -13 12t-13 10q-4 15 -23 35q-10 -2 -18 3t-14 4q-17 -2 -31 5q-4 0 -18 -4t-47 -9 q-11 -2 -29.5 7t-29.5 7q-15 -2 -28 -19t-20.5 -17.5t-22.5 -3.5q-17 -19 -52 -46q-14 -3 -39 -14q-4 -3 -21.5 -32t-19.5 -35l-2 -1q0 -11 -2 -32l-21 -36q-3 -7 -10.5 -42t-6.5 -40q7 -20 19 -62q2 -11 12 -26q8 -11 5 -18l-1 -1q4 -3 9 -10l40 -49q26 -28 52 -34 q12 0 36 -4q3 -1 18 -9q11 -5 21 -4q17 2 37 1q21 -2 32 -1q23 7 70 17q22 3 46 12.5t35 11.5q16 0 48 2q16 3 27 16q7 1 19 6q5 7 19 18q8 4 24.5 6.5t22.5 7t17 15t38 26.5t39 26q4 7 15 17q12 3 34 13q17 10 58 46.5t49 50.5q19 32 46 59q20 19 39 63z" />
<glyph glyph-name="dieresis" unicode="&#xa8;" horiz-adv-x="502" d="M155 988q-26 -10 -34 -21.5l-15 -22.5q-11 -12 -31 -39l-4 -3q1 -10 0 -27q-3 -8 4 -22q2 -5 14.5 -10t19.5 -2q35 14 43 21q3 5 7.5 10t13.5 11q11 11 10 24q-3 19 -1 23q3 7 11 19q4 4 2 24l-3 1v-2q-7 19 -25 19q-5 0 -12 -3zM424 988q-26 -10 -34.5 -21.5 t-15.5 -22.5q-11 -12 -30 -39l-4 -3q1 -10 -1 -27q-3 -8 4 -22q4 -13 29 -13q3 0 6 1q35 14 43 21q3 5 7.5 10t13.5 11q11 11 10 24q-3 19 -1 23q2 6 11 19q3 4 1 24l-3 1v-2q-7 19 -24 19q-6 0 -12 -3z" />
<glyph glyph-name="copyright" unicode="&#xa9;" horiz-adv-x="614" d="M300 785l9 -2v-9q0 -8 -18 -21l-25 -17q-10 -8 -34.5 -44t-31.5 -51q-1 -9 -6 -28q-4 -4 -13 -14q-10 -23 -32 -67q-5 -4 -12 -14q0 -13 -5 -41q-4 -5 -11 -15q0 -5 -3 -16q-10 -10 -10 -23q0 -6 2 -19t2 -20q0 -8 -4.5 -28t-4.5 -38q0 -9 -3 -28.5t-3 -29.5 q0 -9 3.5 -25.5t3.5 -29.5q0 -8 6 -15q8 -11 9 -14q1 -10 8 -29t32 -36l43 -27q5 -5 16 -11q7 -2 19 -2h5q12 0 18 -2q3 -1 18 -8q11 -5 20 -5q4 0 31.5 12.5t33.5 16.5q8 8 26 21q9 1 25 4v3q5 2 25.5 19t22.5 20q2 11 8 32.5t31 46.5q-1 -6 -1 17q0 7 12 19.5t12 24.5 q0 9 -8.5 23t-8.5 23v38q3 12 3 14q-7 10 -7 23q0 5 -5.5 11t-4.5 15q-4 6 -14 9q-13 3 -16 5q-26 3 -26 26q0 13 9 13q14 0 20 -10q9 -15 13 -18q10 -4 28 -14q23 -19 23 -59q0 -7 8.5 -21.5t8.5 -28.5v-42q-1 0 -3 -2q1 -1 4 -1h-4q1 -3 2.5 -10t1.5 -11q0 -9 -10 -19 t-10 -33q0 -8 -8.5 -18.5l-16.5 -19.5q-6 -12 -19 -35q-6 -8 -19 -16q-17 -10 -20 -12q-6 -8 -21 -21q-9 -3 -27 -12q-11 -13 -39 -34q-13 -5 -40 -6t-32.5 -4t-21.5 -8q-6 0 -18 3.5t-18 3.5q-4 0 -12 -1.5t-12 -1.5q-5 0 -10 4l-10 5q-17 1 -47 11q-5 3 -10 13t-8 13 q-11 6 -29 21q-2 12 -9 35q-5 6 -12.5 19.5t-24.5 41.5l-1 3q-1 9 5 26.5t6 26.5l-1 4l-4 7l-1 6q-1 6 1 16t2 13q0 6 -2.5 17.5t-2.5 17.5q0 5 5 21t5 31q0 2 7.5 22t7.5 21q5 4 12 14q3 8 2 20l-2 20q0 2 19 41t22.5 42.5t12.5 11.5q4 16 16 44q14 12 37 40q5 12 17 35 q14 20 40 36q4 1 13 4q5 3 14 17t26 24zM365 460v1q2 0 13 -2t18 -2l6 -1l2 -5q11 -2 19 -13.5t8 -23.5v-2q-20 -21 -22 -22q-10 -8 -29 -8q-6 0 -19.5 -2t-21.5 -2l-7 -1q-14 -5 -37 -19q-2 -5 -6 -14l-41 -46q-1 -6 -6 -18l-12 -6q0 -1 -1 -22q-1 -15 -8 -19 q0 -37 4.5 -42t40.5 -4q5 3 17 9q11 3 32 13q3 6 13 16q6 2 16 7q12 12 11 12h4l1 1q-3 -23 -15 -52q-14 -2 -41.5 -18.5t-42.5 -16.5q-7 0 -17.5 -10t-24.5 -10q-22 0 -38 18.5t-16 40.5q0 8 5.5 19.5t5.5 21t8.5 19.5t8.5 16q0 4 -2.5 10.5t-2.5 9.5q0 9 14 19.5t17 16.5 q0 7 4 19l27 24l34 40q5 3 14 9q5 8 18 19q11 3 31.5 11.5t17.5 8.5z" />
<glyph glyph-name="ordfeminine" unicode="&#xaa;" horiz-adv-x="303" d="M312 767l1 1q21 -6 25 -11t6 -29q3 -30 -4 -39q-15 -20 -16 -24q0 -7 -3.5 -21t-11 -22.5t-14.5 -17.5q-2 -9 -9 -25q-2 -3 -15 -13q-9 -7 -9 -16q4 -24 4 -17q1 -10 -7.5 -25.5t-7.5 -25.5q1 -16 14 -26.5t29 -9.5q5 0 12 4t11 4q5 0 9.5 -5t5.5 -5q1 -8 -2 -25 q-3 -5 -11 -8q-13 -5 -15 -6.5t-7 -11t-13 -9.5q-17 -13 -43 -13q-17 0 -37 12t-30 12q-21 0 -60 -16l-5 -5l-11 -1q-27 -2 -46 7q-24 12 -26 38q-1 19 10 44q9 20 19 40q5 23 20 66q3 5 10.5 13t9.5 13l7 18q4 7 19 16t16 11q11 22 34 45q28 27 46 27q4 0 20 5t20 5 q19 15 55 46zM123 511q-16 -8 -31 -30.5t-13 -39.5q1 -7 14 -18.5t20 -11.5q31 0 40 13q7 9 13 19q10 5 20 11t15.5 16.5t4.5 31.5t2 30l16.5 34t6.5 44q-2 25 -24 25q-25 0 -54.5 -47.5t-29.5 -76.5zM193 244l1 -1q-3 6 -5.5 12t-14.5 6q-6 0 -19 -4.5t-20 -4.5 q-5 0 -13.5 7t-13.5 7t-13.5 -2.5t-12.5 -2.5h-23q-66 0 -66 32q0 13 17 25q24 17 88 18q19 0 45 -4q8 -1 38 -10q24 -7 39 -7q13 0 24 4q9 11 22 10q8 0 11 5q7 9 9 11q19 17 60 16q17 -1 26 -2q19 -2 23 -8q1 -9 5 -28q-39 -32 -58 -32q-5 0 -13 1.5t-12 1.5q-10 0 -16 -7 t-8 -8t-27 -1q-7 0 -15 -3q-4 -7 -8 -9q-1 -6 -18 -18t-26 -12q-7 0 -6 8z" />
<glyph glyph-name="guillemotleft" unicode="&#xab;" horiz-adv-x="813" d="M64 347q-3 -2 -20 -19h1q2 -2 3.5 -7t3.5 -7q6 -1 16 -6t23 -13q27 -18 47 -26q16 -3 45 -12q9 -9 29 -24q18 -5 49 -20l14 -14q6 -6 27 -14q26 -10 32 -13q2 -1 40 -27q23 -16 43 -21q6 -2 11 -2q24 0 24 34q0 38 -13.5 46.5t-22.5 10.5t-13 4q-14 7 -35.5 27.5 t-36.5 27.5q-13 0 -37 12q-4 6 -13 15q-5 5 -31.5 11t-38.5 19q-17 18 -17 22q0 2 9.5 4.5t16.5 7.5q22 16 101 30q5 1 32 9q21 6 31 6q14 0 53.5 8.5t50.5 15.5q4 3 6.5 13t5.5 13q-2 1 -7 8q-2 2 -11 0l-13 -3q-24 1 -72 -4q-11 -4 -34 -11q-15 0 -44 -6q-12 -7 -38 -19 l-12 -1q-33 -20 -99 -53q-14 -5 -52 -7q-33 -1 -54 -15zM361 340h-1q-6 -6 -20 -18h1q2 -5 7 -15q6 -1 17 -4q10 -6 22 -14q27 -17 48 -27q16 -3 44 -12q9 -8 29 -23q18 -5 50 -20q3 -1 14 -15q6 -6 27 -14q26 -9 30.5 -11.5t40.5 -27.5q24 -16 44 -22q6 -2 11 -2 q24 0 24 34q0 38 -13.5 46.5t-22.5 10.5t-13 4q-14 7 -36 28t-37 28q-13 0 -37 11l-13 16q-5 5 -31.5 11t-38.5 19q-17 18 -17 22q0 2 8 4q12 3 19 8q23 15 100 30q5 1 32 9q21 6 31 6q14 0 53.5 8.5t50.5 15.5q4 3 6.5 12.5t6.5 12.5q-2 1 -7 8q-2 2 -11 1q-13 -3 -14 -3 q-24 1 -72 -4q-11 -4 -33 -11q-14 -1 -44 -7q-12 -7 -38 -19h-12q-33 -20 -99 -53q-13 -5 -52 -7q-33 -1 -54 -16z" />
<glyph glyph-name="logicalnot" unicode="&#xac;" horiz-adv-x="507" d="M299 434q-3 -10 -15 -18q-2 -6 -2 -9q0 -5 10 -8q9 0 21 5v-9q-12 -9 -12 -14q0 -4 2 -8q8 -2 21 -7q1 4 1 12l4 4h3q2 0 4.5 -1.5t3.5 -1.5h3q24 31 24 43q0 5 -2 15l-13 -1q-5 0 -12 4t-12 4q-9 0 -29 -10zM827 800q-22 0 -48 -8.5t-36 -8.5q-4 0 -10 -2l-10 -12 q-10 -2 -33 -21.5t-26 -20.5q-8 -1 -23 -7l-2 -14q-11 -8 -26 -22q-24 -26 -57 -56q-3 -5 -4 -16.5t-3.5 -16t-23.5 -15.5q-16 -9 -17 -32q2 -5 10 -13q14 8 19 8q9 -1 17 -1q5 0 18 10q16 6 45 23q6 8 20 20q9 -1 18 4.5t17.5 5.5t21 11t34.5 11l5 1q7 8 15 9.5t12 4.5 q9 10 30 27q7 3 20 11q7 7 22 20q4 0 31 29.5t30 37.5v7q0 19 -12 21q1 0 -27 0q-4 0 -13 2.5t-14 2.5zM834 881v1q46 0 56 -11q20 -21 27 -25q8 0 23 -4q1 -1 4 -7.5t21 -13.5q-14 -20 -15 -23q-3 -7 -3 -27q0 -6 -3 -11q-2 -12 -28 -29q-18 -12 -37 -23q-15 -19 -52 -52 q-10 -3 -28 -12q-5 -7 -17 -19q-14 -1 -40 -9l-7 -12q-9 -4 -26 -14q-7 -10 -26 -25q-11 -1 -33 -6q-5 -6 -68.5 -37.5t-70 -32t-9.5 -1.5l-10 -8q-9 -2 -26 -8q-10 -6 -17 -20.5l-13 -27.5q-6 -3 -15 -14q-1 -5 -2 -15q-1 -2 -13.5 -14.5t-12.5 -23.5q0 -3 1.5 -9t1.5 -10 q0 -8 -7 -13q-11 -9 -12.5 -11.5t-3.5 -9t-4 -9.5l-7 -6q0 -4 -2 -13q-2 -3 -12 -5q-6 -2 -6 -20q0 -8 -5 -13q-7 -8 -8 -11q-13 -35 -13 -63q0 -8 -10 -17q-13 -12 -15 -15q-2 -11 -13 -29q-3 2 -4 -8q-1 -11 0 -12q-7 -4 -13.5 -15t-13.5 -16q-1 -2 -1 -13q0 -4 -2 -6 l-14 -4l1 -12q6 -6 13.5 -12.5t13.5 -6.5q12 0 48 19q33 18 44 28q2 1 7.5 11t7.5 10h9l2 -11q-12 -37 -23 -50q-6 -8 -19 -14t-22 -17q-10 -3 -30 -15l-15 -3q-9 0 -18 -8t-13 -9q-5 -1 -12 0q-8 2 -11 2q-7 0 -30 -19h-10q-10 0 -28 3t-27 3q-42 0 -46 -1l-9 -7h-3 q-51 0 -51 25q0 18 15 27l29 12q8 9 27 9q2 0 44 17t45 19q10 11 33 42q0 10 4 28q8 3 21 10q5 3 8 12.5t4.5 11.5t12.5 12t11 18q0 4 -3.5 10t-3.5 9q0 5 4 12t3 16q5 4 11 12q3 8 8 24l5 4q1 3 -2 15q1 5 6.5 13t5.5 12q0 1 -3 10l-33 30h-7l2 -21l-7 -5q-1 3 -7 3l-5 7v6 q0 3 8 32q4 -1 11 -2.5t10 -2.5q2 6 4 19l10 -3v-7l7 -7q1 3 7 3l5 4v3v12q-9 5 -32 33q-21 25 -27 25q-3 0 -8.5 -2t-7.5 -2q-46 4 -47 5q-5 2 -9 11.5t-6 11.5q-14 13 -27 27t-11 37l1 4q7 12 7 28q0 3 2 11q12 8 13 12q2 10 3 11q7 13 24 24q25 15 28 18q6 8 19 22 q7 2 21 9q6 9 22 23q7 1 19 3q20 22 61 22q9 0 16 -3q26 -30 26 -36q0 -8 -5 -11q-1 -5 1 -13t2 -11q0 1 -7 -17q-10 -17 -17 -18q-12 -2 -24 -3q-9 -10 -15 -11q-9 -1 -13 -3q-9 -11 -32 -25q-4 2 -29 -11q-13 1 -21 -3.5l-17 -9.5v-10q0 -1 13.5 -10t14.5 -11q3 -1 8.5 1 t8.5 2q6 0 15 -10t16 -10t14 5h17h6l7 5q7 0 12 -5h5q36 0 65 14q36 16 43 47q8 4 20 15q2 10 9 30q6 12 25.5 29t25.5 28q1 5 5 14q7 4 19 14q4 5 23 34t19 30q8 8 29.5 17.5t26.5 14.5t13 16q8 1 23 6q9 4 20 16q9 9 18 19v14q-12 -2 -18 -4l-10 -1q-10 5 -22 17 q5 14 86 14q10 0 32.5 5.5t35.5 5.5z" />
<glyph glyph-name="registered" unicode="&#xae;" horiz-adv-x="599" d="M336 470q12 0 15 -22q0 -9 -5.5 -15t-5.5 -12q0 -16 16 -18q11 0 22 16t23 16q23 0 42 -28h17q5 0 6.5 -2.5t2.5 -2.5q-13 -31 -31 -31h-1q-4 7 -21.5 15t-25.5 8q-15 0 -30 -22q-20 -28 -25 -32q-1 -7 -5 -21q-4 -9 -14 -25q-12 -10 -31 -35q-1 -7 -5 -21 q-1 -2 -6.5 -6.5t-5.5 -6.5l1 -6q-5 -4 -13 -11q-2 -1 -29 -32q-19 -21 -31 -25q-9 16 -10 29q0 17 8 24q16 14 17 16q1 8 14 23q2 9 7 26q1 3 14 28q8 17 8 29q0 9 11 21t11 20q0 14 -15 14h-3q-3 -1 -4 -1l-2 -4q-9 -6 -14 -14t-6 -9q-7 -1 -19 -6.5t-18 -18.5l-11 -22 l-23 -12q-51 -36 -51 -71q0 -16 9 -37q1 -10 8 -29t32 -36l43 -27q5 -5 16 -11q7 -2 19 -2h5q12 0 18 -2q3 -1 18 -8q11 -5 20 -5q4 0 31.5 12.5t33.5 16.5q8 8 26 21q9 1 25 4v3q5 2 25.5 19t22.5 20q2 11 8 32.5t31 46.5q-1 -6 -1 17q0 7 12 19.5t12 24.5q0 9 -8.5 23 t-8.5 23v38q3 12 3 14q-7 10 -7 23q0 5 -5.5 11t-4.5 15q-4 6 -14 9q-13 3 -16 5q-26 3 -26 26q0 13 9 13q14 0 20 -10q9 -15 13 -18q10 -4 28 -14q23 -19 23 -59q0 -7 8.5 -21.5t8.5 -28.5v-42q-2 0 -2 -2v0l4 -1q-1 0 -4 1l-1 -1q1 -3 2.5 -10t1.5 -11q0 -9 -10 -19 t-10 -33q0 -8 -8.5 -18.5l-16.5 -19.5q-6 -12 -19 -35q-6 -8 -19 -16q-17 -10 -20 -12q-6 -8 -21 -21q-9 -3 -27 -12q-11 -13 -39 -34q-13 -5 -40 -6t-32.5 -4t-21.5 -8q-6 0 -18 3.5t-18 3.5q-4 0 -12 -1.5t-12 -1.5q-5 0 -10 4l-10 5q-17 1 -47 11q-5 3 -10 13t-8 13 q-11 6 -29 21q-2 12 -9 34q-5 6 -12.5 20t-24.5 42l-1 3q-1 9 5 26.5t6 26.5l-1 4l-4 7l-1 6q-1 6 1 16t2 13q0 6 -2.5 17.5t-2.5 17.5q0 5 5 21t5 31q0 2 7.5 22t7.5 21q5 4 12 14q3 8 2 20l-2 20q0 2 19 41t22.5 42.5t12.5 11.5q4 16 16 44q14 12 37 40q5 12 17 35 q14 20 40 36q4 1 13 4q5 3 14 17t26 24l9 -2v-9q0 -8 -18 -21l-25 -17q-10 -8 -34.5 -44t-31.5 -51q-1 -9 -6 -28q-4 -4 -13 -14q-10 -23 -32 -67q-5 -4 -12 -14q0 -13 -5 -41q-4 -5 -11 -15q0 -5 -3 -16q-10 -10 -10 -23q0 -6 2 -19.5t2 -20.5q0 -16 -10 -65q-6 -29 -6 -45 q0 -21 11 -21q16 0 60 54q5 9 16 26q8 4 22 15q1 5 6 14q7 4 19 12q2 6 10 17q34 31 51 33q6 10 17 25z" />
<glyph glyph-name="degree" unicode="&#xb0;" horiz-adv-x="258" d="M187 771h1q4 0 13.5 -1t14.5 -1q11 0 15 -12l2 -18l4 -4q2 -4 0 -9q0 -6 -3.5 -17.5t-3.5 -19.5q0 -11 -14 -24q-3 -6 -9 -15q-2 -2 -5.5 -3.5t-4.5 -2.5q-1 -5 -6 -16q-7 -4 -20 -13q-48 -46 -89 -46q-13 0 -34.5 12t-20.5 20q0 2 5.5 17.5t6.5 17t4 3.5t3.5 4.5t3 7.5 t9.5 12q1 4 4 12q4 5 12 14q0 4 4.5 9t14.5 12q12 11 35 28l18 8q23 25 40 25zM176 719h1q-21 0 -28 -7t-14 -15q-11 -7 -31 -25l-4 -1q-2 -9 -9 -25q-21 -31 -21 -30q0 -5 10.5 -13t16.5 -8q27 0 35 10l8 14q2 1 6 2t5 2q11 6 14 19q4 17 7 20.5t13 13.5q3 3 7 22l-2 2 l-1 -1q0 14 0 13q-1 7 -13 7z" />
<glyph glyph-name="plusminus" unicode="&#xb1;" horiz-adv-x="960" d="M1142 717q0 -5 -4.5 -15.5t-4.5 -25.5q0 -8 -7 -13q-10 -8 -11 -9q-2 -10 -12 -26q-7 -7 -24 -8q-12 0 -25 -1q-10 -7 -49 -14q-12 0 -28 -10t-15 -21q-2 -2 -8 -3t-9 -3q-8 -5 -17.5 -21.5t-16.5 -21.5q-5 -1 -13 -7l-3 -9q-8 -5 -21 -17q-1 -5 -6 -15q-5 -3 -15 -12 q-6 -16 -24 -47q-13 -13 -34 -41q-7 -20 -24 -59q-1 -1 -25 -36q-15 -22 -15 -39q0 -8 -7.5 -18.5t-7.5 -24.5t-14 -34q-17 -23 -18.5 -32t-4.5 -24q-1 -3 -6 -14t-5 -17q0 -4 14 -29q2 -1 2.5 -4t1.5 -3q16 0 38.5 8t30.5 8q9 0 26 -4.5t25 -4.5q10 0 17 4.5l23 15.5 q14 3 39 15q6 7 18 18q1 -1 4 -1l7 1q7 -7 14 -33q0 -23 -14 -53l-27 -50q-8 -14 -19 -44q-1 -10 -7 -29q-3 -4 -12 -7t-12 -5q-5 -8 -17 -24q-14 -10 -41 -32q-5 -10 -18 -28q-6 -9 -19 -18q-19 -13 -22 -16q-5 -8 -17 -21q-12 -4 -32 -15q-10 -5 -22 -16q-15 -15 -20 -19 q-15 -6 -44 -19l-24 -24q-28 -23 -53 -29q-8 -1 -23 -4q-11 -7 -36 -18q-16 0 -47 -5q-8 -6 -26 -15q-13 0 -39 -5q-10 -4 -19 -15q-5 -6 -44 -6q-14 0 -42 -2t-42 -2q-37 0 -58 4q-6 1 -20 6q-7 3 -28 3q-17 0 -25 8q-14 13 -19.5 14.5t-16.5 3.5q-15 5 -40 29.5t-25 37.5 q0 1 12 32q9 24 14 29q9 11 30 11q18 0 32 -14q20 -20 24 -22q4 -14 21 -35q13 -3 37 -9q10 -10 33 -24q8 -2 62 -1q10 0 24.5 -5.5t23.5 -5.5q24 0 43 3q11 5 32 13q23 -1 68 6q6 4 18 11q22 7 64 25q12 9 35 25q24 8 71 29q5 6 18 15q5 0 15 3q5 5 14 15q13 6 36 20 q7 10 23 26q5 1 12 6l6 12q18 9 48 36q3 8 11 23q7 6 18 21q1 6 0 10q0 8 11.5 13.5t13.5 9.5q1 1 15 43q-1 1 -6 13q-75 9 -131 8q-11 -2 -33 -9q-1 0 -13 -8q-5 -4 -18 -4q-25 0 -38 19t-13 44q0 28 19.5 47.5t19.5 34.5q0 38 -6 48q-3 1 -10 6h-12l-2 -1q-11 -2 -22 -20 l-16 -27q-21 -26 -47 -35q-5 0 -15 -3q-4 -7 -15 -17q-2 -2 -8 -3.5t-9 -3.5q-6 -10 -12 -12q-12 -3 -15 -6l-12 -12q-32 -20 -59 -26q8 1 -25 1q-10 0 -25 -10t-23 -11q-14 0 -41 -2q-7 -5 -37 -10q-5 0 -15 -6.5t-19 -5.5l-9 6q-10 0 -29 3q-9 5 -26 11q-17 0 -48 7 q-7 10 -26 27q-16 5 -38 20q-7 13 -13 56q0 2 6.5 14t6.5 25q0 18 33 35q29 15 50 15q31 0 37 -20.5t11 -41.5q5 -11 35.5 -43t39.5 -34q3 -1 9 -1q9 0 35 15l3 7h6q5 0 14.5 -3.5t15.5 -3.5q8 0 22.5 7t20.5 8q24 0 71 6q5 4 18 12q15 3 43 15q5 9 18 23q8 2 23 9 q8 10 27 27q12 5 30 20q1 7 5 21q10 7 27 23l12 33q3 7 23 23q16 13 16 24q0 5 -3 11.5t-4 9.5q-4 0 -12 1.5t-12 0.5h-2l-9 -6h-3q-25 0 -50 42q-11 6 -34.5 5.5t-33.5 2.5q-21 7 -39 30q-2 6 -9 17q-13 6 -32 24q-6 12 -2 48q0 31 18 55q4 3 9 8q1 3 1 29q0 32 34 52 l58 31q8 6 19 23.5t20 23.5t27 10.5t25 7.5q12 10 39 27q17 4 50 14l2 6q6 4 18.5 8t17.5 7l3 7q-4 -1 28 -1q13 0 40 7.5t41 7.5q6 0 16 -2t15 -2q7 0 13 4.5t12 4.5q8 0 15.5 -5.5t16.5 -5.5q8 0 25 2t26 2q13 0 17 -7q7 -10 11 -12q12 0 33 -1t30 -15t17 -28l6 -1 q30 -30 30 -36zM962 689l-1 12q-16 9 -40 41q-14 19 -59 19q-13 0 -29.5 -12t-34.5 -12q-8 0 -22 2t-21 2q-28 1 -49 -20q-1 -3 -6 -8q-7 0 -21 -3q-44 -13 -68 -29q-3 -2 -7 -9t-6.5 -9t-6.5 -2t-6 -1q-18 -12 -26 -24q-2 -7 -10 -20q-9 -5 -23 -18q-17 -23 -16 -59 q0 -6 -5.5 -16.5t-5.5 -18.5q0 -6 1 -9l6 -5q0 -10 2 -30q2 -4 9 -12t7 -15q9 -2 26 -8q5 -3 17 -18q9 -11 22 -11q7 0 19.5 5.5t20.5 5.5q6 0 17 -3t15 -3q5 -42 25 -42q6 0 8 1q6 1 14 14t10 15q10 5 26 18l3 12q7 6 18 20q4 10 15 29q2 3 27 25q18 17 18 28q0 8 12 16 q10 5 19 11q8 12 27 32q9 4 20 15q2 7 0 24q0 6 3 12q18 4 37.5 23t18.5 35z" />
<glyph glyph-name="acute" unicode="&#xb4;" horiz-adv-x="313" d="M150 812v1q9 8 20 21l-1 19q5 7 9.5 15.5t7.5 13.5l15 22.5t34 21.5q6 3 12 3q16 0 24 -18v1l3 -1q2 -19 0 -24q-9 -13 -11 -18q-2 -4 0 -23q1 -14 -10 -25q-5 -3 -14 -10q-8 -13 -26 -34q-25 -19 -47 -24q-5 1 -12.5 -1t-19.5 -13.5t-31 -17.5l-9 4l3 10q2 5 21.5 25.5 t31.5 51.5z" />
<glyph glyph-name="mu" unicode="&#xb5;" horiz-adv-x="1258" d="M914 824v-1q8 0 15.5 -5.5t16.5 -5.5q8 0 25 2t26 2q13 0 17 -7q7 -10 11 -12q12 0 33 -1t30 -15t17 -28l6 -1q30 -30 30 -36q0 -5 -4.5 -15.5t-4.5 -25.5q0 -8 -7 -13q-10 -8 -11 -9q-2 -10 -12 -26q-7 -7 -24 -8q-12 0 -25 -1q-10 -7 -49 -14q-12 0 -28 -10t-15 -21 q-2 -2 -8 -3t-9 -3q-8 -5 -17.5 -21.5t-16.5 -21.5q-5 -1 -13 -7l-3 -9q-8 -5 -21 -17q-1 -5 -6 -15q-5 -3 -15 -12q-6 -16 -24 -47q-13 -13 -34 -41q-7 -20 -24 -59q-1 -1 -25 -36q-15 -22 -15 -39q0 -8 -7.5 -18.5t-7.5 -24.5t-14 -34q-17 -23 -18.5 -32t-4.5 -24 q-1 -3 -6 -14t-5 -17t14 -28q6 -2 8 -2q11 0 26 13l22 21q9 8 17 24q11 23 13 26q7 7 18 20q1 6 6 19q7 10 25 24.5t24 21.5q3 6 12 18q15 9 41 33q4 12 15 34q9 10 23 29q1 2 1.5 6.5t1.5 6.5q4 6 18.5 13t18.5 14t10 19q18 16 48 54q2 8 8 24q9 6 26 20q3 3 16 24v8 q3 5 13 9t13 7.5t8 10.5q11 6 33 20l21 27q11 9 32 29q3 7 12 18q19 9 50 35q6 18 23 45q5 0 13 2q4 6 11 15q10 4 30 15q9 12 29 29q6 3 13 3q10 0 28 -6l1 -11q0 -16 -10 -30l-6 -3q0 -5 -2 -14q-3 -5 -15 -9q-16 -5 -18 -6q-9 -5 -20 -21t-18.5 -20t-19.5 -12 q-2 -6 -7.5 -16.5t-21.5 -21.5q-20 -13 -24 -17q-4 -9 -15 -25q-18 -14 -47 -46q-4 -6 -6 -22t-6 -22q-9 -5 -24 -18q-9 -18 -29 -51q-17 -13 -44 -44q-3 -14 -13 -35q-3 -1 -7 -6q-31 -38 -31 -76q0 -14 -13.5 -30t-13.5 -33q0 -12 -10.5 -24t-11.5 -19v-24q0 -8 -7.5 -20 t-7.5 -19q0 4 3 -15t6 -25q6 -10 22 -10t38.5 8t30.5 8q9 0 25.5 -4.5t24.5 -4.5q10 0 17.5 4.5t23.5 15.5q14 3 39 15q6 7 18 18q1 -1 3 -1l8 1q5 -7 9 -14.5t4 -18.5q0 -23 -14 -53l-26 -50q-8 -14 -19 -44q-1 -10 -7 -29q-3 -4 -12 -7t-12 -5q-5 -8 -17 -24 q-14 -10 -41 -32q-5 -10 -18 -28q-6 -9 -20 -18q-19 -14 -22 -16q-5 -8 -16 -21q-12 -4 -33 -15q-10 -4 -22 -16q-15 -15 -20 -19q-15 -6 -44 -19q-7 -9 -23 -24q-26 -22 -53 -29q-8 -1 -23 -4q-11 -7 -37 -18q-16 0 -46 -5q-9 -6 -27 -15q-13 0 -38 -5q-10 -4 -20 -15 q-4 -6 -43 -6q-14 0 -42 -2t-42 -2q-38 0 -59 4q-5 1 -19 6q-8 3 -29 3q-17 0 -25 8q-13 13 -18.5 14t-18.5 5t-38.5 28.5t-25.5 37.5q0 9 13 32q9 24 13 29q9 11 30 11q18 0 32 -14q20 -20 24 -22q4 -14 21 -35q13 -3 37 -9q10 -10 33 -24q8 -2 63 -1q10 0 24 -5.5t23 -5.5 q24 0 43 3q11 5 33 13q23 -1 68 6q5 4 17 11q22 7 65 25l35 25q24 8 71 29q5 6 18 15q5 0 15 3q5 5 14 15q12 6 35 20q7 10 24 26q4 2 11 6l6 12q18 9 48 36q3 8 12 23q7 6 17 21q1 3 1 10.5t11.5 13t13.5 9.5q1 1 15 43q-1 1 -6 13q-72 9 -120 9q-35 0 -68 -4 q-11 -1 -41 -9q-25 -6 -41 -6q-19 0 -35 10t-16 28q0 11 18 23l26 15q13 8 33 36q14 19 25 55q15 47 20 58q1 2 24 38q16 25 16 39q-1 18 -13 18q-8 0 -14 -9q-9 -13 -11 -14q-11 -3 -29 -18q-1 -7 -7 -19t-27 -26t-28 -22q-15 -18 -20 -35q-1 -5 -4 -15q-7 -4 -18 -15 q-1 -9 -8 -26l-30 -27q-9 -13 -29 -35q-6 -3 -17 -9q-7 -9 -24 -24q-11 -2 -33 -9q-1 0 -13 -8q-5 -4 -18 -4q-25 0 -38 19t-13 44q0 28 19.5 47.5t19.5 34.5q0 38 -6 48q-3 1 -10 6h-12l-2 -1q-11 -2 -22 -20l-16 -27q-21 -26 -47 -35q-5 0 -15 -3q-4 -7 -15 -17 q-2 -2 -8 -3.5t-9 -3.5q-6 -10 -12 -12q-12 -3 -15 -6l-12 -12q-31 -19 -57 -26q-1 1 -27 1q-10 0 -25 -10t-23 -11q-14 0 -41 -2q-7 -5 -37 -10q-5 0 -15 -6.5t-19 -5.5l-9 6q-10 0 -29 3q-9 5 -26 11q-17 0 -47 7q-8 10 -27 27q-16 5 -38 20q-7 13 -13 56q0 2 6.5 14 t6.5 25q0 18 33 35q29 15 50 15q31 0 37 -20.5t11 -41.5q5 -11 35.5 -43t39.5 -34q3 -1 9 -1q9 0 35 15l3 7h6q5 0 14.5 -3.5t15.5 -3.5q8 0 22.5 7t20.5 8q24 0 71 6q5 4 18 12q15 3 43 15q5 9 18 23q8 2 23 9q8 10 27 27q12 5 30 20q1 7 5 21q10 7 27 23l12 33q3 7 23 23 q16 13 16 24q0 5 -3 11.5t-4 9.5q-4 0 -12 1.5t-12 0.5h-2l-9 -6h-3q-25 0 -50 42q-11 6 -34.5 5.5t-33.5 2.5q-21 7 -39 30q-2 6 -9 17q-13 6 -32 24q-6 12 -2 48q0 31 18 55q4 3 9 8q1 3 1 29q0 32 34 52l58 31q8 6 19 23.5t20 23.5t27 10.5t25 7.5q12 10 39 27 q17 4 50 14l2 6q6 4 18.5 8t17.5 7l3 7q2 -1 28 -1q13 0 40 7.5t41 7.5q6 0 16 -2t15 -2q7 0 13 5t12 5zM799 738l-1 -1q-7 0 -21.5 2t-21.5 2q-28 1 -49 -20q-1 -3 -6 -8q-7 0 -21 -3q-44 -13 -68 -29q-3 -2 -7 -9t-6.5 -9t-6.5 -2t-6 -1q-18 -12 -26 -24q-2 -7 -10 -20 q-9 -5 -23 -18q-17 -23 -16 -59q0 -6 -5.5 -16.5t-5.5 -18.5q0 -6 1 -9l6 -5q0 -10 2 -30q2 -4 9 -12t7 -15q9 -2 26 -8q5 -3 17 -18q9 -11 22 -11q7 0 19.5 5.5t20.5 5.5q6 0 17 -3t15 -3q5 -42 25 -42q6 0 8 1q6 1 14 14t10 15q10 5 26 18l3 12q7 6 18 20q4 10 15 29 q2 3 27 25q18 17 18 28q0 8 12 16q10 5 19 11q8 12 27 32q9 4 20 15q2 7 0 24q0 6 3 12q18 4 37.5 23t18.5 35l-1 12q-16 9 -40 41q-14 19 -59 19q-13 0 -29.5 -11.5t-33.5 -11.5zM749 804zM371 8h-2h2z" />
<glyph glyph-name="paragraph" unicode="&#xb6;" d="M354 814l12 -3v-12q0 -11 -23 -26l-33 -21q-12 -10 -43 -55.5t-38 -62.5q-2 -12 -9 -35q-5 -6 -14 -18q-12 -29 -41 -84q-6 -5 -15 -17q0 -17 -5 -51q-6 -6 -15 -19q0 -7 -3 -20q-13 -13 -13 -30q0 -8 2.5 -24t2.5 -25q0 -10 -5.5 -35t-5.5 -47q0 -12 -4 -35.5t-4 -35.5 q0 -11 4 -32t4 -38q0 -10 7 -19q11 -14 12 -17q2 -12 10.5 -36t39.5 -46q2 -1 55 -32q6 -6 21 -15q17 0 52 -4q3 -1 22 -11q13 -6 24 -6q5 0 39 15.5t42 20.5q10 10 33 26q11 1 32 6l-1 3q6 3 32.5 24.5t30 27t4.5 19.5t3 19q4 11 21 35l17 23q1 4 -1 23q0 8 15.5 23 t15.5 30q0 12 -10.5 29t-10.5 28q1 33 0 48q4 11 3 17q-8 13 -9 29q0 7 -6 14.5t-5 17.5q-5 8 -18 11q-18 5 -21 7q-7 10 -26 24q-10 4 -38 4q-18 0 -28 -5l-24 -12q-37 -13 -43 -19t-21 -45l-6 -5v-11q0 -36 28 -35q11 0 29.5 12t30.5 12q-5 0 26 -7q0 -13 13 -30t13 -26 q0 -4 -4 -18t-4 -26v-5l-27 -36q-12 -14 -48 -14q-88 0 -89 82q0 10 -4 32.5t-4 34.5q0 10 10.5 27t10.5 25q0 13 34 44q32 28 49 35q8 1 24 5q2 1 10 9q4 4 14 4q9 0 26.5 -3.5t27.5 -3.5q17 0 25 -12q11 -19 16 -22q12 -5 35 -18q29 -25 28 -73q0 -9 11 -27.5t11 -35.5 q0 -61 -1 -53h-1q-1 -1 -2 -1q0 -2 5 -2h-5q4 -36 4 -28q0 -10 -11.5 -22t-11.5 -41q0 -10 -12 -26l-20 -23q-7 -15 -25 -44q-7 -10 -23 -19q-21 -12 -25 -15q-8 -10 -27 -27q-11 -3 -32 -14q-14 -18 -49 -44q-15 -7 -49.5 -7.5t-41.5 -3.5q-23 -10 -28 -10q-7 0 -21.5 3.5 t-22.5 3.5q-5 0 -15 -1.5t-16 -1.5t-13.5 5t-10.5 6q-20 2 -58 15q-7 4 -13 16t-10 16q-14 7 -36 26q-5 7 -8 21q-3 19 -4 23q-6 8 -15.5 24.5l-30.5 51.5l-1 4q-1 11 6 33t7 33v5l-6 9l-1 6q-1 7 2 20.5t3 19.5q0 7 -4 21t-4 21t6.5 26.5t6.5 37.5q0 3 9 27t13 28.5 t12 16.5q3 10 2 25l-2 24q0 2 23.5 51.5t26.5 53.5q7 4 18 15q6 8 10.5 27.5t10 28t23 24t23.5 24.5q5 15 20 44q19 26 48 44q7 1 19 6q6 4 17 21.5t32 30.5zM1297 1160q11 0 30 -17.5t19 -28.5q0 -30 -13 -65q-13 -30 -25 -61q0 -9 -6 -26l-12 -9q-1 -13 -8 -37 q-5 -10 -18 -21q-17 -14 -21 -20q-3 -10 -13 -26q-5 -1 -16 -6q-13 -12 -40 -32q-5 -3 -16 -7t-16 -7q-4 -7 -15 -19q-19 -10 -54 -40q-18 -5 -44 -14q-10 -9 -33 -24q-10 -1 -32 -5q-11 -4 -27 -17.5t-24 -17.5t-25 -6q-13 -2 -25 -12l-9 -1q-12 0 -12 9l15 45.5t15 55.5 q0 16 -12 33q-17 24 -18.5 30t-7.5 17q-4 6 -23 17q-22 12 -26 15q-5 8 -18 21q-9 6 -64.5 15t-70.5 9q-20 0 -68.5 -14.5t-68.5 -14.5q-16 0 -40 -15.5t-39 -14.5q-1 -4 -1 12v2q11 12 32 29q17 3 49 15q5 6 19.5 18t48 22t40.5 15l8 1q15 2 41 -1q32 -5 41 -5q4 0 12 -1 l9 -6q8 -1 21 0q17 1 22 1q41 0 94 -50t61 -90q0 2 -1 -38q-1 -31 2 -38q1 -2 22 -26h2q13 0 36.5 11.5t37.5 11.5h5q7 8 21 15q18 10 23 14q9 12 29 32l32 12l26 24q8 3 23 11q6 6 12 18q6 16 9 20q10 8 25 26q2 3 3.5 10t3.5 10l8 7q5 9 21 63l6 6q1 4 1 12 q0 14 -11.5 38.5t-11.5 38.5q0 9 4 25.5t9 19.5q4 0 11 3q1 1 16 15q9 8 20 8z" />
<glyph glyph-name="uni2219" unicode="&#xb7;" d="M-45 213q-6 16 -6 31q0 59 73 89q23 9 42 9q7 0 28 -2q17 -3 32 -1q4 1 21 6q13 4 21 3q10 -5 30 -12q11 -2 32.5 2.5t31.5 2.5q10 -5 29 -13q12 2 36 0q11 -9 36 -21q6 -2 24 -4l22 24q13 8 36 27q10 17 32 49q18 16 50 52l9 20q10 9 27 28q11 18 35 52q15 11 38 35 q4 6 15 46q4 15 13 29q10 14 13 21q5 19 18 49h3q3 1 31 23t30.5 25.5t6.5 10.5l40 17q6 -4 17 -12q-7 -25 -26 -71q-7 -8 -18 -25q-11 -30 -40 -89q-8 -7 -21 -24q0 -5 -2.5 -16.5t-20.5 -38.5t-22 -40q-1 -8 -5 -24q-2 -9 -10 -19q-10 -14 -12 -18q-7 -18 -23 -55 q-3 -7 -25 -42q-48 -77 -58 -120q-6 -25 -4 -30q-34 -128 -42 -145q-2 -4 -10 -24q-7 -26 -39 -48l-56 -32l-6 -8h-3h-14q0 3 -2 18q-2 10 0 18q8 13 22 40q14 40 53 116q15 19 38 57l21 63q-11 1 -27 2t-17 2.5t-6 7.5q-12 11 -50 15q-7 -8 -22 -22l-129 -93 q-13 -13 -42 -35q-21 -7 -60 -29q-8 -10 -28 -27q-21 -8 -63 -29q-8 -9 -27 -24q-10 -2 -30 -7q-27 -19 -70 -38h-4q-4 1 -5 1q-7 0 -23 -9.5t-21 -10.5l-30 -3q-22 -13 -67 -33q-18 -5 -49 -5q-87 0 -78 34q3 10 21 20q25 15 26.5 16.5t19.5 22.5q12 14 23 16q3 1 9 1 q8 -3 29 -9t70 -6q64 0 96 10q12 8 36 20q16 3 48 12q8 6 25 16q17 5 49 20q15 13 45 36q10 3 28 12q22 13 52 39q46 39 49 42q27 17 76 55l1 3q-6 0 -16.5 11t-17.5 11q-6 0 -29 -9q-9 -4 -18 -4q-7 0 -19 4t-19 4t-14 -2q-10 -7 -31 -19q-7 -3 -22 -1t-23 -2l-8 -4l1 -3 q-11 -10 -16 -24.5t-9 -18t-23 -11.5q-11 -6 -17 -21l-9 -4l2 -3q-33 0 -39 3q-3 11 -31.5 15t-37.5 26zM425 300q23 -5 43 -17q27 -16 37 -20l3 3q20 29 48 90q1 5 1 9q0 3 -14 22q-6 0 -22 -4q-8 -4 -31 -30q-25 -29 -33 -35q-11 -5 -32 -18z" />
<glyph glyph-name="ordmasculine" unicode="&#xba;" horiz-adv-x="308" d="M255 769l1 1q6 0 18 -2.5t19 -2.5q15 0 19 -24l4 -36l5 -8q1 -3 1.5 -9t0.5 -9q0 -13 -5 -35t-5 -39.5t-4 -26.5l-15 -23q-3 -10 -12 -29q-5 -4 -14 -13q-1 -10 -9 -28q-10 -8 -26 -27q-63 -93 -116 -93q-17 0 -46.5 24t-29.5 39q0 -6 15 69q4 4 11 13q1 8 2 22 q6 7 15 20q1 9 5 25q6 8 16 26q1 8 5 22q8 7 22 21q15 23 45 57q9 5 24 18q18 29 19 31q14 17 35 17zM240 666q-28 0 -37 -13l-17 -33q-15 -14 -43 -47l-5 -3q-3 -19 -11 -51l-16 -31q-12 -23 -12 -29q0 -9 14 -25t22 -16q36 0 46 19q5 14 11 28q6 3 15 9q15 11 19 38 q5 37 8 43q5 11 17 25q5 6 10 43l-2 5l-1 -2v26q-3 14 -18 14zM164 243l1 -1q-3 7 -6 13t-14 6q-7 0 -20 -4.5t-19 -4.5q-5 0 -13.5 7t-12.5 7q-5 0 -14 -2.5t-13 -2.5l-23 -1q-29 -1 -47.5 8.5t-18.5 24.5q0 13 17 25q24 17 88 17q24 0 45 -3q10 -1 39 -10q23 -7 38 -7 q12 0 24 3q8 11 22 11q8 0 12 4q7 10 8 11q20 17 60 17q41 0 49 -11q1 -9 5 -27q-39 -32 -58 -33q-5 0 -13 1.5t-12 1.5q-10 0 -14 -6q-7 -8 -9 -9t-28 -1q-7 0 -15 -3q-4 -6 -7 -9q-1 -6 -18 -18t-27 -12q-7 0 -6 8z" />
<glyph glyph-name="guillemotright" unicode="&#xbb;" horiz-adv-x="842" d="M512 347h-1q3 -6 8 -19h-2q-5 -5 -17 -14q-6 -1 -20 -6t-33 -13q-39 -18 -67 -26q-18 -3 -53 -12q-15 -9 -46 -24q-22 -6 -65 -20q-6 -2 -22 -14q-28 -9 -79 -27q-39 -20 -118 -48q-7 -2 -12 -2q-11 0 -11 9q0 13 23.5 40t36 31.5t44.5 14.5q18 7 55 27.5t58 27.5 q13 0 44 12q9 6 26 15q9 5 39 11t52 19q34 20 34 24q0 1 -8 3t-11.5 7.5t-35.5 16.5q-28 10 -41 13q-5 1 -26 9q-17 6 -27 6q-15 0 -48.5 8t-39.5 16q-2 3 3 13t4 13l14 8q4 2 11 0l10 -3q25 1 70 -4q8 -4 26 -11q14 0 38 -6q8 -7 25 -19l11 -1q11 -7 29.5 -26.5t31.5 -26.5 q10 -5 48 -6q31 -1 42 -16zM811 347h-1q3 -6 8 -19h-2q-5 -5 -17 -14q-6 -1 -20 -6t-33 -13q-39 -18 -67 -26q-18 -3 -53 -12q-15 -9 -46 -24q-22 -6 -65 -20q-6 -2 -22 -14q-28 -9 -79 -27q-39 -20 -118 -48q-7 -2 -12 -2q-11 0 -11 9q0 13 23.5 40t36 31.5t44.5 14.5 q18 7 55 27.5t58 27.5q13 0 44 12q9 6 26 15q9 5 39 11t52 19q34 20 34 24q0 1 -8 3t-11.5 7.5t-35.5 16.5q-28 10 -41 13q-5 1 -26 9q-17 6 -27 6q-15 0 -48.5 8t-39.5 16q-2 3 3 13t4 13l14 8q4 2 11 0l10 -3q25 1 70 -4q8 -4 26 -11q14 0 38 -6q8 -7 25 -19l11 -1 q11 -7 29.5 -26.5t31.5 -26.5q10 -5 48 -6q31 -1 42 -16z" />
<glyph glyph-name="threequarters" unicode="&#xbe;" horiz-adv-x="416" d="M462 833l12 -3q-14 -24 -42 -49t-32 -34.5t-12 -30.5q-9 -10 -21 -32q1 -8 -1 -23l-2 -6q-13 -12 -14 -16q-2 -10 -4 -19l-15 -21q-26 -48 -43 -121q0 -20 -6 -58q-5 -10 -13 -31q1 -9 1 -27q-2 -8 -11 -19t-11 -16q-23 -51 -26 -93q1 -15 -2 -45l-2 -5h-3l-12 -23 q-4 -31 -11 -49q-8 -25 -17 -49l2 -43q-8 -10 -17 -35t-16 -35l-7 -2q-23 -23 -28 -34q-2 -4 -11 -41q-1 -4 -4 -11l-7 -3l-29 -30q-2 -1 -47 -9q-11 27 -10 34q0 -4 30.5 40.5t39.5 81.5q2 9 0 24t-1 22q2 10 14.5 26t14.5 25q-1 11 1 33q4 9 10 28v2q3 14 9 55q-4 0 8 27 t29 42q3 2 2 8q-2 8 -1 10q0 2 14 20l2 5q0 9 1 26l2 8q14 14 19.5 32.5t9.5 37.5q3 14 16 39.5t15 43t8 49.5q25 77 53 115q1 5 6 15q3 3 13 6t11 10.5l3 23.5q5 23 24 37l33 25q5 9 16 25zM596 915h-1q-3 -15 -21.5 -23.5l-34.5 -16.5q-7 -17 -52 -34l-5 6q0 6 1 9 q2 9 14 29.5t19 21.5l-1 11q-22 2 -64 10q-24 6 -21 11q4 5 44 21h8q4 -1 13.5 -6t17.5 -5t23.5 3.5t23.5 3.5q17 0 28.5 -12t7.5 -29z" />
<glyph glyph-name="questiondown" unicode="&#xbf;" horiz-adv-x="603" d="M582 211l2 2q3 -24 3 -23q0 -10 -9.5 -20t-9.5 -31q0 -10 -9.5 -20.5t-16 -21.5l-20.5 -35q-7 -10 -22 -18q-19 -9 -24 -14l-13 -15q-5 -5 -17.5 -9.5t-29 -22.5t-38 -20.5t-43.5 -3.5q-7 0 -23 -8q-6 -3 -14 -3q-6 0 -17.5 3t-17.5 3q-4 0 -12 -1.5t-12 -1.5 q-6 0 -12.5 4.5t-9.5 5.5l-33 6q-19 4 -26.5 19t-22.5 22q-18 11 -22 41q-1 9 -7 16l-4 4q-8 17 -29 48q-1 12 4.5 30t5.5 28v3l-4 7q-2 13 0 23q2 13 2 15q0 5 -2.5 16.5t-2.5 17.5q0 8 5 23t5 28q0 3 7.5 24.5l7.5 21.5l11 11q4 5 3 20l-3 21q0 3 19.5 43t23.5 43.5 l13 11.5q4 15 16 44q16 13 41 47q3 10 12 28q21 25 41 36q7 0 21 11q4 5 5 9q10 16 30 27l15 -3v-14q0 -11 -19 -23q-13 -9 -27 -17q-9 -8 -33 -44t-31 -51q-1 -12 -14 -36q-4 -3 -5 -6q-10 -23 -33 -67q-6 -3 -13 -21q0 -11 -1 -22t-9 -20q-5 -5 -5 -12t-3 -12 q-9 -9 -8 -20q0 -7 2 -19.5t2 -18.5q0 -10 -5 -30t-5 -37q0 -10 -3 -28.5t-3 -27.5q0 -1 3 -25q2 -9 5 -31q0 -6 6 -14q7 -11 8 -14q2 -9 8.5 -27.5t30.5 -35.5l42 -25q2 -1 5 -4l3 -3q6 -6 27 -6q17 0 42 -11q9 -5 17 -4q8 0 62 27q8 10 34 24q5 1 15 2l-1 1q7 4 28 20.5 t22 18.5q2 11 7 32q4 11 26 42q5 7 4 12v5q-1 3 -1 4q0 9 9 18l5 4q11 11 10 21q0 8 -8.5 22t-8.5 24v38q3 9 2 12q-6 9 -5 24q0 4 -2 6q-8 10 -8 18q-3 4 -16 7.5t-18 9.5t-14 14q-8 3 -29 3q-14 0 -22 -4l-18 -9q-13 -4 -33 -15q-3 -3 -16 -34l-4 -5l-1 -5q0 -23 17 -25 q8 0 23.5 10.5t25.5 10.5q4 0 26 -8q0 -14 10 -24l3 -6q8 -10 8 -18q0 -1 -3 -16q-3 -7 -3 -20l-1 -6q-10 -10 -18 -23q-12 -19 -47 -19q-75 0 -75 70q0 9 -4 26.5t-4 26.5q0 10 9 23.5t9 18.5q0 13 29 39q27 23 41 29q8 1 22 7q8 8 17 9q8 0 22.5 -3.5t21.5 -3.5 q18 -1 24 -11q3 -7 17 -21q8 -2 24 -10q24 -21 24 -63q0 -5 8.5 -20t8.5 -30q0 -5 -1 -21q-1 -13 0 -20q0 -1 -4 -4l-2 -3q0 3 3 4l-1 1v-3zM359 739l-5 2q-3 24 1 29t12 19q2 5 -1 23q-2 12 15 29l4 2q13 13 57 38q3 1 8 1q27 0 33 -16q7 -19 4 -25q3 -10 0 -29l-5 -3 q-4 -7 -24 -30q-6 -11 -20 -31q-12 -13 -38 -24q-7 -3 -14 -3q-17 0 -27 18z" />
<glyph glyph-name="Agrave" unicode="&#xc0;" d="M425 300q23 -5 43 -17q27 -16 37 -20l3 3q20 29 48 90q1 5 1 9q0 3 -14 22q-6 0 -22 -4q-9 -4 -31 -30q-25 -29 -33 -35q-11 -5 -32 -18zM-45 213q-6 16 -6 31q0 59 73 89q23 9 42 9q7 0 28 -2q17 -3 32 -1q5 1 21 6q13 4 21 3q10 -5 30 -12q11 -2 32.5 2.5t31.5 2.5 q10 -5 29 -13q12 2 36 0q11 -9 36 -21q6 -2 24 -4l22 24q13 8 36 27q10 17 32 49q18 16 50 52l9 20q10 9 27 28q11 18 35 52q15 11 38 36q4 7 15 45q4 15 13.5 29t12.5 21q5 19 18 49h3q3 1 31 23t30.5 25.5t6.5 10.5l40 17q6 -4 17 -12q-7 -25 -26 -71q-7 -8 -18 -25 q-11 -30 -40 -89q-8 -7 -21 -24q0 -5 -2.5 -16.5t-20.5 -38.5t-22 -40q-1 -8 -5 -24q-2 -9 -10 -19q-10 -14 -12 -18q-7 -18 -23 -55q-4 -9 -25 -42q-48 -77 -58 -120q-6 -25 -4 -30q-34 -128 -42 -145q-2 -4 -10 -24q-7 -26 -39 -48l-56 -32l-6 -8h-3h-14q0 3 -2 18 q-2 10 0 18q8 13 22 40q14 40 53 116q15 19 38 57l21 63q-11 1 -27 2t-17 2.5t-6 7.5q-12 11 -50 15q-7 -8 -22 -22l-129 -93q-13 -13 -42 -35q-21 -7 -60 -29q-8 -10 -28 -27q-21 -8 -63 -29q-8 -9 -27 -24q-10 -2 -30 -7q-27 -19 -70 -38h-4q-4 1 -5 1q-7 0 -23 -9.5 t-21 -10.5l-30 -3q-22 -13 -67 -33q-18 -5 -49 -5q-87 0 -78 34q3 10 21 20q25 15 26.5 16.5t19.5 22.5q12 14 23 16q3 1 9 1q-2 0 29 -9q21 -6 70 -6q64 0 96 10q12 8 36 20q16 3 48 12q8 6 25 16q17 5 49 20q15 13 45 36q10 3 28 12q22 13 52 39q46 39 49 42q27 17 76 55 l1 3q-6 0 -16.5 11t-17.5 11q-6 0 -29 -9q-9 -4 -18 -4q-7 0 -19 4t-19 4t-14 -2q-10 -7 -31 -19q-7 -3 -22 -1t-23 -2l-8 -4l1 -3q-11 -10 -16 -24.5t-9 -18t-23 -11.5q-11 -6 -17 -21l-9 -4l2 -3q-33 0 -39 3q-3 11 -31.5 15t-37.5 26zM756 945v1l-21 21l1 19l-16 28 l-14 23q-10 11 -36 22q-6 3 -12 3q-16 0 -24 -18v0l-2 -1q-2 -19 0 -24q9 -13 11 -18q2 -4 0 -23q-2 -13 9 -24q6 -3 14 -10q8 -13 26 -34q19 -14 47 -25q5 0 15 -1q6 -2 18 -13.5t31 -17.5l8 5l-3 9q-1 6 -21 26t-31 52z" />
<glyph glyph-name="Aacute" unicode="&#xc1;" d="M425 300q23 -5 43 -17q27 -16 37 -20l3 3q20 29 48 90q1 5 1 9q0 3 -14 22q-6 0 -22 -4q-9 -4 -31 -30q-25 -29 -33 -35q-11 -5 -32 -18zM-45 213q-6 16 -6 31q0 59 73 89q23 9 42 9q7 0 28 -2q17 -3 32 -1q5 1 21 6q13 4 21 3q10 -5 30 -12q11 -2 32.5 2.5t31.5 2.5 q10 -5 29 -13q12 2 36 0q11 -9 36 -21q6 -2 24 -4l22 24q13 8 36 27q10 17 32 49q18 16 50 52l9 20q10 9 27 28q11 18 35 52q15 11 38 36q4 7 15 45q4 15 13.5 29t12.5 21q5 19 18 49h3q3 1 31 23t30.5 25.5t6.5 10.5l40 17q6 -4 17 -12q-7 -25 -26 -71q-7 -8 -18 -25 q-11 -30 -40 -89q-8 -7 -21 -24q0 -5 -2.5 -16.5t-20.5 -38.5t-22 -40q-1 -8 -5 -24q-2 -9 -10 -19q-10 -14 -12 -18q-7 -18 -23 -55q-4 -9 -25 -42q-48 -77 -58 -120q-6 -25 -4 -30q-34 -128 -42 -145q-2 -4 -10 -24q-7 -26 -39 -48l-56 -32l-6 -8h-3h-14q0 3 -2 18 q-2 10 0 18q8 13 22 40q14 40 53 116q15 19 38 57l21 63q-11 1 -27 2t-17 2.5t-6 7.5q-12 11 -50 15q-7 -8 -22 -22l-129 -93q-13 -13 -42 -35q-21 -7 -60 -29q-8 -10 -28 -27q-21 -8 -63 -29q-8 -9 -27 -24q-10 -2 -30 -7q-27 -19 -70 -38h-4q-4 1 -5 1q-7 0 -23 -9.5 t-21 -10.5l-30 -3q-22 -13 -67 -33q-18 -5 -49 -5q-87 0 -78 34q3 10 21 20q25 15 26.5 16.5t19.5 22.5q12 14 23 16q3 1 9 1q-2 0 29 -9q21 -6 70 -6q64 0 96 10q12 8 36 20q16 3 48 12q8 6 25 16q17 5 49 20q15 13 45 36q10 3 28 12q22 13 52 39q46 39 49 42q27 17 76 55 l1 3q-6 0 -16.5 11t-17.5 11q-6 0 -29 -9q-9 -4 -18 -4q-7 0 -19 4t-19 4t-14 -2q-10 -7 -31 -19q-7 -3 -22 -1t-23 -2l-8 -4l1 -3q-11 -10 -16 -24.5t-9 -18t-23 -11.5q-11 -6 -17 -21l-9 -4l2 -3q-33 0 -39 3q-3 11 -31.5 15t-37.5 26zM738 920q9 8 20 21v19q5 10 16 29 l15 22.5t34 22.5q6 3 12 3q17 0 24 -19v1l3 -1q2 -19 0 -24q-9 -13 -11 -18q-2 -4 0 -23q1 -14 -10 -25q-5 -3 -14 -9q-8 -13 -26 -35q-27 -19 -47 -24q-5 1 -12.5 -1t-19.5 -13.5t-31 -17.5l-9 4l3 10q2 5 21.5 25.5t31.5 52.5z" />
<glyph glyph-name="Acircumflex" unicode="&#xc2;" d="M425 300q23 -5 43 -17q27 -16 37 -20l3 3q20 29 48 90q1 5 1 9q0 3 -14 22q-6 0 -22 -4q-9 -4 -31 -30q-25 -29 -33 -35q-11 -5 -32 -18zM-45 213q-6 16 -6 31q0 59 73 89q23 9 42 9q7 0 28 -2q17 -3 32 -1q5 1 21 6q13 4 21 3q10 -5 30 -12q11 -2 32.5 2.5t31.5 2.5 q10 -5 29 -13q12 2 36 0q11 -9 36 -21q6 -2 24 -4l22 24q13 8 36 27q10 17 32 49q18 16 50 52l9 20q10 9 27 28q11 18 35 52q15 11 38 35q4 6 15 46q4 15 13.5 29t12.5 21q5 19 18 49h3q3 1 31 23t30.5 25.5t6.5 10.5l40 17q6 -4 17 -12q-7 -25 -26 -71q-7 -8 -18 -25 q-11 -30 -40 -89q-8 -7 -21 -24q0 -5 -2.5 -16.5t-20.5 -38.5t-22 -40q-1 -8 -5 -24q-2 -9 -10 -19q-10 -14 -12 -18q-7 -18 -23 -55q-4 -9 -25 -42q-48 -77 -58 -120q-6 -25 -4 -30q-34 -128 -42 -145q-2 -4 -10 -24q-7 -26 -39 -48l-56 -32l-6 -8h-3h-14q0 3 -2 18 q-2 10 0 18q8 13 22 40q14 40 53 116q15 19 38 57l21 63q-11 1 -27 2t-17 2.5t-6 7.5q-12 11 -50 15q-7 -8 -22 -22l-129 -93q-13 -13 -42 -35q-21 -7 -60 -29q-8 -10 -28 -27q-21 -8 -63 -29q-8 -9 -27 -24q-10 -2 -30 -7q-27 -19 -70 -38h-4q-4 1 -5 1q-7 0 -23 -9.5 t-21 -10.5l-30 -3q-22 -13 -67 -33q-18 -5 -49 -5q-87 0 -78 34q3 10 21 20q25 15 26.5 16.5t19.5 22.5q12 14 23 16q3 1 9 1q-2 0 29 -9q21 -6 70 -6q64 0 96 10q12 8 36 20q16 3 48 12q8 6 25 16q17 5 49 20q15 13 45 36q10 3 28 12q22 13 52 39q46 39 49 42q27 17 76 55 l1 3q-6 0 -16.5 11t-17.5 11q-6 0 -29 -9q-9 -4 -18 -4q-7 0 -19 4t-19 4t-14 -2q-10 -7 -31 -19q-7 -3 -22 -1t-23 -2l-8 -4l1 -3q-11 -10 -16 -24.5t-9 -18t-23 -11.5q-11 -6 -17 -21l-9 -4l2 -3q-33 0 -39 3q-3 11 -31.5 15t-37.5 26z" />
<glyph glyph-name="Atilde" unicode="&#xc3;" d="M425 300q23 -5 43 -17q27 -16 37 -20l3 3q20 29 48 90q1 5 1 9q0 3 -14 22q-6 0 -22 -4q-9 -4 -31 -30q-25 -29 -33 -35q-11 -5 -32 -18zM-45 213q-6 16 -6 31q0 59 73 89q23 9 42 9q7 0 28 -2q17 -3 32 -1q5 1 21 6q13 4 21 3q10 -5 30 -12q11 -2 32.5 2.5t31.5 2.5 q10 -5 29 -13q12 2 36 0q11 -9 36 -21q6 -2 24 -4l22 24q13 8 36 27q10 17 32 49q18 16 50 52l9 20q10 9 27 28q11 18 35 52q15 11 38 36q4 7 15 45q4 15 13.5 29t12.5 21q5 19 18 49h3q3 1 31 23t30.5 25.5t6.5 10.5l40 17q6 -4 17 -12q-7 -25 -26 -71q-7 -8 -18 -25 q-11 -30 -40 -89q-8 -7 -21 -24q0 -5 -2.5 -16.5t-20.5 -38.5t-22 -40q-1 -8 -5 -24q-2 -9 -10 -19q-10 -14 -12 -18q-7 -18 -23 -55q-4 -9 -25 -42q-48 -77 -58 -120q-6 -25 -4 -30q-34 -128 -42 -145q-2 -4 -10 -24q-7 -26 -39 -48l-56 -32l-6 -8h-3h-14q0 3 -2 18 q-2 10 0 18q8 13 22 40q14 40 53 116q15 19 38 57l21 63q-11 1 -27 2t-17 2.5t-6 7.5q-12 11 -50 15q-7 -8 -22 -22l-129 -93q-13 -13 -42 -35q-21 -7 -60 -29q-8 -10 -28 -27q-21 -8 -63 -29q-8 -9 -27 -24q-10 -2 -30 -7q-27 -19 -70 -38h-4q-4 1 -5 1q-7 0 -23 -9.5 t-21 -10.5l-30 -3q-22 -13 -67 -33q-18 -5 -49 -5q-87 0 -78 34q3 10 21 20q25 15 26.5 16.5t19.5 22.5q12 14 23 16q3 1 9 1q-2 0 29 -9q21 -6 70 -6q64 0 96 10q12 8 36 20q16 3 48 12q8 6 25 16q17 5 49 20q15 13 45 36q10 3 28 12q22 13 52 39q46 39 49 42q27 17 76 55 l1 3q-6 0 -16.5 11t-17.5 11q-6 0 -29 -9q-9 -4 -18 -4q-7 0 -19 4t-19 4t-14 -2q-10 -7 -31 -19q-7 -3 -22 -1t-23 -2l-8 -4l1 -3q-11 -10 -16 -24.5t-9 -18t-23 -11.5q-11 -6 -17 -21l-9 -4l2 -3q-33 0 -39 3q-3 11 -31.5 15t-37.5 26zM938 883l-27 -34q-12 -6 -20 -6 q-10 0 -10 12q1 27 -10.5 50t-25.5 23q-2 0 -17 -5q-4 -2 -8 -2q-5 0 -13.5 3.5t-13.5 3.5q-9 0 -26 -13q-21 -17 -26.5 -19.5t-11 -1t-11.5 -1.5q-9 -7 -26 -17q-19 -4 -49 -20q-6 -6 -18 -15q-15 -7 -29 -4q-1 0 -7 6q-2 3 -13 -2q-30 -14 -29 -14q-3 0 -6.5 3.5t-7.5 4.5 q-5 -1 -13 0q-15 9 -14 50q2 57 53 121l7 -3q-4 -38 -4 -57q0 -23 1 -30q1 -3 19 -13q15 -8 34 -8q34 0 114 37l63 32q6 3 17 7q12 0 36 3q39 12 43 12q9 0 16.5 -5.5t18.5 -45.5q3 -10 5 -29z" />
<glyph glyph-name="Adieresis" unicode="&#xc4;" d="M425 300q23 -5 43 -17q27 -16 37 -20l3 3q20 29 48 90q1 5 1 9q0 3 -14 22q-6 0 -22 -4q-9 -4 -31 -30q-25 -29 -33 -35q-11 -5 -32 -18zM-45 213q-6 16 -6 31q0 59 73 89q23 9 42 9q7 0 28 -2q17 -3 32 -1q5 1 21 6q13 4 21 3q10 -5 30 -12q11 -2 32.5 2.5t31.5 2.5 q10 -5 29 -13q12 2 36 0q11 -9 36 -21q6 -2 24 -4l22 24q13 8 36 27q10 17 32 49q18 16 50 52l9 20q10 9 27 28q11 18 35 52q15 11 38 36q4 7 15 45q4 15 13.5 29t12.5 21q5 19 18 49h3q3 1 31 23t30.5 25.5t6.5 10.5l40 17q6 -4 17 -12q-7 -25 -26 -71q-7 -8 -18 -25 q-11 -30 -40 -89q-8 -7 -21 -24q0 -5 -2.5 -16.5t-20.5 -38.5t-22 -40q-1 -8 -5 -24q-2 -9 -10 -19q-10 -14 -12 -18q-7 -18 -23 -55q-4 -9 -25 -42q-48 -77 -58 -120q-6 -25 -4 -30q-34 -128 -42 -145q-2 -4 -10 -24q-7 -26 -39 -48l-56 -32l-6 -8h-3h-14q0 3 -2 18 q-2 10 0 18q8 13 22 40q14 40 53 116q15 19 38 57l21 63q-11 1 -27 2t-17 2.5t-6 7.5q-12 11 -50 15q-7 -8 -22 -22l-129 -93q-13 -13 -42 -35q-21 -7 -60 -29q-8 -10 -28 -27q-21 -8 -63 -29q-8 -9 -27 -24q-10 -2 -30 -7q-27 -19 -70 -38h-4q-4 1 -5 1q-7 0 -23 -9.5 t-21 -10.5l-30 -3q-22 -13 -67 -33q-18 -5 -49 -5q-87 0 -78 34q3 10 21 20q25 15 26.5 16.5t19.5 22.5q12 14 23 16q3 1 9 1q-2 0 29 -9q21 -6 70 -6q64 0 96 10q12 8 36 20q16 3 48 12q8 6 25 16q17 5 49 20q15 13 45 36q10 3 28 12q22 13 52 39q46 39 49 42q27 17 76 55 l1 3q-6 0 -16.5 11t-17.5 11q-6 0 -29 -9q-9 -4 -18 -4q-7 0 -19 4t-19 4t-14 -2q-10 -7 -31 -19q-7 -3 -22 -1t-23 -2l-8 -4l1 -3q-11 -10 -16 -24.5t-9 -18t-23 -11.5q-11 -6 -17 -21l-9 -4l2 -3q-33 0 -39 3q-3 11 -31.5 15t-37.5 26zM655 988q-26 -10 -34 -21.5 l-15 -22.5q-11 -12 -31 -39l-4 -3q1 -10 0 -27q-3 -8 4 -22q2 -5 14.5 -10t19.5 -2q35 14 43 21q3 5 7.5 10t13.5 11q11 11 10 24q-3 19 -1 23q3 7 11 19q4 4 2 24l-3 1v-2q-7 19 -25 19q-5 0 -12 -3zM1004 988q-26 -10 -34.5 -21.5t-15.5 -22.5q-11 -12 -30 -39l-4 -3 q1 -10 -1 -27q-3 -8 4 -22q4 -13 29 -13q3 0 6 1q35 14 43 21q3 5 7.5 10t13.5 11q11 11 10 24q-3 19 -1 23q2 6 11 19q3 4 1 24l-3 1v-2q-7 19 -24 19q-6 0 -12 -3z" />
<glyph glyph-name="Aring" unicode="&#xc5;" d="M425 300q23 -5 43 -17q27 -16 37 -20l3 3q20 29 48 90q1 5 1 9q0 3 -14 22q-6 0 -22 -4q-9 -4 -31 -30q-25 -29 -33 -35q-11 -5 -32 -18zM-45 213q-6 16 -6 31q0 59 73 89q23 9 42 9q7 0 28 -2q17 -3 32 -1q5 1 21 6q13 4 21 3q10 -5 30 -12q11 -2 32.5 2.5t31.5 2.5 q10 -5 29 -13q12 2 36 0q11 -9 36 -21q6 -2 24 -4l22 24q13 8 36 27q10 17 32 49q18 16 50 52l9 20q10 9 27 28q11 18 35 52q15 11 38 36q4 7 15 45q4 15 13.5 29t12.5 21q5 19 18 49h3q3 1 31 23t30.5 25.5t6.5 10.5l40 17q6 -4 17 -12q-7 -25 -26 -71q-7 -8 -18 -25 q-11 -30 -40 -89q-8 -7 -21 -24q0 -5 -2.5 -16.5t-20.5 -38.5t-22 -40q-1 -8 -5 -24q-2 -9 -10 -19q-10 -14 -12 -18q-7 -18 -23 -55q-4 -9 -25 -42q-48 -77 -58 -120q-6 -25 -4 -30q-34 -128 -42 -145q-2 -4 -10 -24q-7 -26 -39 -48l-56 -32l-6 -8h-3h-14q0 3 -2 18 q-2 10 0 18q8 13 22 40q14 40 53 116q15 19 38 57l21 63q-11 1 -27 2t-17 2.5t-6 7.5q-12 11 -50 15q-7 -8 -22 -22l-129 -93q-13 -13 -42 -35q-21 -7 -60 -29q-8 -10 -28 -27q-21 -8 -63 -29q-8 -9 -27 -24q-10 -2 -30 -7q-27 -19 -70 -38h-4q-4 1 -5 1q-7 0 -23 -9.5 t-21 -10.5l-30 -3q-22 -13 -67 -33q-18 -5 -49 -5q-87 0 -78 34q3 10 21 20q25 15 26.5 16.5t19.5 22.5q12 14 23 16q3 1 9 1q-2 0 29 -9q21 -6 70 -6q64 0 96 10q12 8 36 20q16 3 48 12q8 6 25 16q17 5 49 20q15 13 45 36q10 3 28 12q22 13 52 39q46 39 49 42q27 17 76 55 l1 3q-6 0 -16.5 11t-17.5 11q-6 0 -29 -9q-9 -4 -18 -4q-7 0 -19 4t-19 4t-14 -2q-10 -7 -31 -19q-7 -3 -22 -1t-23 -2l-8 -4l1 -3q-11 -10 -16 -24.5t-9 -18t-23 -11.5q-11 -6 -17 -21l-9 -4l2 -3q-33 0 -39 3q-3 11 -31.5 15t-37.5 26zM950 1054l1 -1q4 0 13.5 -1t14.5 -1 q11 0 15 -12q1 -8 2 -17l4 -4q1 -3 1 -10q0 -6 -4 -17t-4 -19q0 -11 -13 -24q-2 -5 -10 -16q-2 -2 -5.5 -3.5l-3.5 -1.5q-1 -6 -7 -16q-7 -4 -19 -14q-48 -46 -89 -45q-12 0 -34 12t-22 19q0 2 5.5 17.5t6.5 17.5t4 4t4 3.5t1 5t2.5 6l9.5 9.5q1 4 3 11q2 2 6 7t5 8t5.5 8 t15.5 12q12 11 34 28q7 2 18 9l14 16q11 9 26 9zM940 1001q-21 0 -28 -7t-13 -15q-11 -7 -32 -25l-4 -2q-2 -9 -8 -25q-10 -12 -22 -29q0 -5 10.5 -13t17.5 -9q27 0 35 10q3 7 7 15q4 1 13.5 5.5t12.5 17.5q4 17 6 20q19 26 19 44q0 13 -14 13z" />
<glyph glyph-name="AE" unicode="&#xc6;" horiz-adv-x="2478" d="M2755 1743q23 0 29 -6q-3 -13 -69 -21q-40 -3 -81 -7l-6 14q32 6 63 13q38 7 64 7zM2516 1709q15 0 19.5 -7t6.5 -8q-25 -13 -75 -20q-60 -8 -79 -14q-29 -13 -87 -36q-26 -6 -68 -23q-4 -6 -12.5 -14.5t-25.5 -14.5q-22 -6 -27 -9q-9 -9 -30 -23q-8 0 -26 -3 q-18 -6 -67 -41q-13 -13 -40 -38q-20 -10 -59 -34q-12 -9 -26 -29q-18 -24 -25 -31q-13 -9 -37 -30q-5 -12 -20 -34q-13 -13 -37 -41q0 -1 -4 -11.5t-7 -10.5h-7q-7 -10 -19 -37.5t-23 -38.5q-8 -4 -21 -14q-6 -6 -12 -21t-10 -21q-59 -76 -111 -157q-4 -13 -18 -35 q-4 -1 -12 -6q-2 -11 -12 -31q-8 -6 -21 -22q-3 -15 -18 -37q-6 0 -17 -5q0 2 -3.5 8t-3.5 8q0 8 21 48t29.5 49t23.5 27q4 17 17 48q10 9 23 31v11q0 9 11 20q16 15 17 17q5 15 19 41q16 14 45 46q4 11 14 33q13 9 35 30q3 11 12 30q15 13 37 45q1 9 7 23q2 2 7.5 4t7.5 4 q7 11 24 30q11 5 30 18q4 4 10 14.5t10 14.5q10 5 29 16q10 13 32 37q18 8 49 30q2 2 4.5 7.5t4.5 7.5q12 3 34 11q16 14 51 38q13 3 37 12q2 1 14 10q5 4 19 4q6 0 14 9t9 10q17 5 50 20q2 1 11 9.5t12 8.5l11 -1q8 0 25.5 11t23.5 13q16 1 46 7q4 4 16 11q5 2 17 2t25 5 q17 7 23 8q-5 -1 35 -1q8 0 21.5 6t20.5 6zM2279 998q33 0 105 -19l1 -16q-37 -18 -69 -50h1l-2 -1l-9 -1l-1 1l1 1q-2 1 -4 10q0 5 8 26l-7 6q-12 0 -37 1h-38q-48 0 -71 -7q-14 -4 -31 -18q-21 -17 -28 -21q-86 -49 -86 -109q0 -23 38 -39q31 -13 58 -13q9 0 24 4.5 t22 5.5h42q10 0 28.5 2.5t27.5 2.5q23 0 22 -10q0 -1 -1.5 -5t-1.5 -5l-46 -14q-19 -6 -49 -6q-7 0 -15.5 -4.5t-12.5 -5.5l-42 1q-63 2 -104 -12q-11 -5 -22 -9q-6 -3 -26 -3q-7 0 -14 -5l-11 -8q-17 -3 -49 -15q-5 -6 -17 -15q-16 -5 -46 -18l-48 -33q-9 -3 -27 -12 q-42 -31 -106 -94q-15 -22 -47 -63q-23 -25 -66 -83q30 -10 90 -27l9 -27l-25 1l-12 -1l3 -6h-24l-7 -1l3 -8h-16q-25 0 -48 16q-2 -5 -2 -16q-1 -5 -12 -29q-9 -19 -9 -51q0 -8 3 -24t3 -24q3 -81 27 -120q9 -8 25 -24q0 -4 26 -27q13 -17 45 -43l25 -6q58 -19 79 -22.5 t81 -3.5q13 0 38 -2t37 -2q19 0 50.5 7.5t49.5 7.5q11 0 88 22q10 7 33 18q7 0 22 3q3 1 9.5 6.5t11.5 5.5h14l-5 -12q-12 -3 -60 -26q-40 -19 -60 -19q-4 0 -14 -6t-12 -7q-18 -7 -50 -13q-36 -7 -50 -11q-9 -5 -29 -12q-16 -3 -85.5 -8t-88.5 -5q-10 0 -25.5 5t-23.5 6 q-20 -2 -57 5q-28 7 -79 33q-4 7 -14 22q-6 2 -16 8q-6 9 -20 27l-43 45q-13 18 -13 61v3l-4 5q-1 4 -1 24q0 10 -6.5 29t-6.5 29q0 16 28 82q27 63 38 78q-45 10 -84 10q-40 0 -50 -7.5t-9 -43.5q0 -24 -17 -38v-24q0 -5 -4 -13t-4 -32q0 -6 -5.5 -18t-5.5 -19t4 -38t6 -36 q5 -14 17.5 -21.5t13.5 -13.5q0 -2 4 -7q-19 -10 -31 -11q20 1 -33 2q-13 0 -23 -10.5t-16 -10.5h-11l-11 7q0 6 -1.5 18t-1.5 18q0 8 6.5 20.5t6.5 21.5q0 7 -2.5 22.5t-2.5 23.5q0 17 17 47t17 48q0 5 -2 13t-2 12l9 8q-1 9 -1 26q0 6 4.5 17t4.5 17q0 5 -3.5 14t-4.5 11 l-36 13t-34 7q-22 0 -34 -13q-19 -22 -24.5 -24t-16.5 -8q1 -3 2 -11q0 -12 -12 -22t-11 -27q-4 -8 -19.5 -18t-20.5 -16q-3 -9 -13 -27q-9 -5 -27 -17q-6 -12 -24 -31q-4 0 -10.5 -3.5t-11 -13.5t-8.5 -13q-12 -3 -32 -14q-5 -4 -9 -15.5t-8 -15.5q-18 -19 -57 -36 q-60 -27 -62 -28l-28 -20q-10 -6 -40 -6q-82 1 -163 42l-6 18q7 3 18 12q3 3 13 26q7 16 24 16q14 0 31 -11q24 -14 28 -16q50 -20 117 -20q20 0 48 8.5t42 19.5q7 9 22 21q10 1 29 8q7 5 11 19t8 19q9 4 25 14q6 10 20 30q12 8 33 26q2 10 12 26q6 2 17 9q7 6 13.5 22 t11.5 22q1 1 18 14q12 8 12 17t-7 16t-8 10q-57 0 -182 -5q-154 -6 -176 -14q-6 -4 -19 -11q-16 0 -47 -4q-15 -3 -37 -14q-29 -14 -35 -16q-19 -4 -55 -15q-17 -12 -53 -29q-4 -1 -12.5 -1.5t-12.5 -2.5q-6 -9 -21 -24q-8 0 -22 -3q-7 -2 -17.5 -12.5t-15.5 -13.5 q-13 -4 -36 -15q-12 -15 -41 -42q-11 -4 -29 -15q-2 -8 -10 -23q-6 -7 -23.5 -15t-23.5 -14q-17 -15 -60 -70t-51 -72q-13 -28 -22 -72l-16 -75q8 -12 10 -41h-7q0 -5 5 -14.5t4 -14.5q0 -2 -3.5 -6.5t-3.5 -9.5l3 -15q2 -24 12 -70q11 -31 35 -61l11 -33q3 -7 17 -21.5 t14 -23.5q0 -15 -17 -28.5t-32 -13.5q-7 3 -16 3q-19 21 -42 57q-1 13 -7 40l-24 50q-10 21 -10 62q0 12 -7 33t-6 32h7q-4 10 -5 15l14 11q2 6 1.5 18.5t1.5 19.5l5 4v27v6l6 4q2 16 10 50q5 7 14 21q1 10 4 31q4 10 39.5 58.5t44.5 57.5q6 3 18 11q7 7 18 24.5t18 24.5 q13 7 27 18l4 12q7 1 19 7q3 9 12 22q9 3 26 12q6 10 21 26q8 2 23 8q7 8 22 22q12 5 35 16q20 9 59 36q38 24 60 34q29 7 84 26q10 8 30 20q6 2 18.5 1.5t18.5 1.5q23 10 70 26q17 0 51 4q151 27 272 27q71 0 92 15q12 8 23 29t11 35q0 7 6 11q10 6 11 7q5 6 8 18 q3 16 4 20q10 8 24 29q0 13 6 38q8 5 19 19q0 10 5 30q10 9 26 30l25 60q8 8 19 26q4 7 5 22.5t4 23t11 12.5q5 4 5 21q0 7 14 19.5t17 19t4.5 25t5.5 26.5t15 15q8 5 8 23q0 8 12 19t12 30q0 6 13 19.5t13 35.5q0 12 18 30.5t18 43.5q0 17 17.5 27.5t17.5 37.5q0 6 6 10 l12 8q8 9 16.5 32.5t18 32.5t19.5 17t10 25q0 13 18 34q23 27 26 32q9 25 36 68q12 6 34 22q6 14 24 37q14 3 35 16q1 9 7 26q6 11 26 27t26 25q2 10 11 26q7 10 24 19q21 11 27 16q9 15 30 41q19 11 54 37q7 14 26 37q23 13 57 42q2 3 3 8.5t3.5 9t14.5 7.5q9 3 14 20 q10 2 28 12q8 6 18 22t17 22q12 10 38 20.5t36 17.5q6 7 20 18q8 2 23 8l1 8q16 4 47 14q14 10 43 27q11 5 34.5 8.5t32 8l25.5 13.5q18 2 53 8q18 7 54 18q56 10 165 10q82 0 146 -10q21 -5 65 -11q12 0 38 -11q33 -14 37 -15q13 -1 36 -9q10 -4 24 -15q17 -14 23 -18 q12 -5 27 -15l47 -78q2 -3 2 -12q0 -50 -45 -85q-19 -15 -87 -49q-11 -9 -37 -23q-1 -1 -85 -12t-86 -11l-6 19l83 15q10 5 30 11q81 15 82 15q23 9 64 53q24 26 24 36q0 9 -7 29q-13 37 -21 45q-18 12 -35 25q-13 17 -46 45q-6 3 -74 23.5t-74 20.5h-39q-11 0 -32.5 5.5 t-31.5 5.5q-19 0 -55 -3t-53 -3q-5 0 -17 2.5t-19 1.5l-10 -1q-9 -4 -27 -11q-14 0 -43 -4q-11 -6 -36 -14l-56 -12q-33 -8 -54 -19q-7 -7 -23 -19q-18 -5 -50 -18q-8 -9 -26 -23q-18 -6 -52 -22q-10 -7 -25.5 -25t-25.5 -25q-9 -2 -26 -10q-8 -13 -28 -34l-22 -12t-13 -18 q-6 -2 -15.5 -7.5t-20.5 -24t-20 -25.5q-11 -3 -28 -15q-1 -5 -6 -14q-9 -4 -25 -15q-8 -14 -28 -38q-12 -6 -33 -21q-11 -10 -26.5 -34.5t-24.5 -33.5q-13 -8 -37 -26q-10 -20 -36 -57q-21 -12 -56 -41q-2 -10 -9 -30l-10 -5q-5 -2 -8 -15q-5 -16 -6 -17q-9 -8 -26 -27 q-1 -10 -9 -27q-7 -4 -17 -14q-5 -16 -22 -45q-8 -6 -22 -23q-4 -7 -7.5 -22.5t-6.5 -22.5q-14 -17 -37 -56q-2 -13 -9 -38q-6 -13 -44 -59q-31 -37 -31 -62q0 -9 -9 -17q-10 -11 -11 -17t-4 -21q-3 -9 -16.5 -22.5t-16.5 -22.5q0 -17 -8 -46q-15 -4 -16 -14 q-2 -15 -4.5 -18.5t-15.5 -11.5q-4 -3 -4 -23q0 -10 -9 -22q-12 -16 -14 -19q-3 -14 -12 -41q-11 -16 -31 -49q-3 -16 -13 -48q-8 -18 -35 -50t-34 -52q-1 -7 -4 -23q-14 -23 -34 -74l17 -16q8 -2 24 -2q19 0 29 3q24 42 71 60q10 -17 12 -22v-24q0 -25 44 -32q32 -2 65 -5 l44 -12q9 15 34 40q13 12 35 44t32 43q17 10 44 33q2 5 7 12q105 81 127 94q13 4 38 16q11 10 35 26q8 1 23 6q9 7 27 19l55 20q-1 3 1.5 7t2.5 6q0 3 -12 13t-12 27q0 21 32 68q7 10 21 18q22 14 23 15q10 11 34 30q16 9 31.5 22t23.5 16l26 10q7 7 21 17q33 26 84 34 q27 4 60 4zM2407 308q11 0 15 -11.5t7 -22.5q8 -7 8 -16q0 -36 -16 -66q-7 -13 -37 -53q-9 -15 -30 -45q-10 -11 -84 -66q-4 -5 -9.5 -10.5t-10.5 -4.5h-12l1 1l-1 9l2 5q28 -1 120 111q8 15 27 46q6 5 14 17q7 17 7 39q0 31 -11 61q2 6 10 6z" />
<glyph glyph-name="Ccedilla" unicode="&#xc7;" d="M415 -448h-1q-10 4 -15 15l-8 19q-4 2 -11 7q-7 9 2 46q5 13 24.5 32t24.5 32l3 12l-3 8q5 54 2 67l-6 8q2 7 2 22q-7 10 -16 33l-8 34q-4 12 -16 12t-42 -13q-16 -7 -39 -7q-7 0 -21.5 3.5t-22.5 3.5q-5 0 -15 -1.5t-16 -1.5t-13.5 5t-10.5 6q-20 2 -58 15q-7 4 -13 16 t-10 16q-14 7 -36 26q-5 7 -8 21q-3 19 -4 23q-6 8 -15.5 24.5l-30.5 51.5l-1 3q-1 12 6 34t7 33v5l-6 9l-1 6q-1 7 2 20.5t3 19.5q0 7 -4 21t-4 21t6.5 26.5t6.5 37.5q0 3 9 27t13 28.5t12 16.5q3 10 2 25l-2 24q0 2 23.5 51.5t26.5 53.5q7 4 18 15q6 8 10.5 27.5t10 28 t23 24t23.5 24.5q5 15 20 44q19 26 48 44q7 1 19 6q6 4 17 21.5t32 30.5l12 -3v-12q0 -11 -23 -26l-33 -21q-12 -10 -43 -55.5t-38 -62.5q-2 -12 -9 -35q-5 -6 -14 -18q-12 -29 -41 -84q-6 -5 -15 -17q0 -17 -5 -51q-6 -6 -15 -19q0 -7 -3 -20q-13 -13 -13 -30q0 -8 2.5 -24 t2.5 -25q0 -10 -5.5 -35t-5.5 -47q0 -12 -4 -35.5t-4 -35.5q0 -11 4 -32t4 -38q0 -10 7 -19q11 -14 12 -17q2 -12 10.5 -36t39.5 -46q2 -1 55 -32q6 -6 21 -15q17 0 52 -4q3 -1 22 -11q13 -6 24 -6q5 0 39 15.5t42 20.5q10 10 33 26q11 1 32 6l-1 3q6 3 32.5 24.5t30 27 t4.5 19.5t3 19q4 11 21 35l17 23q1 4 -1 23q0 8 15.5 23t15.5 30q0 12 -10.5 29t-10.5 28q1 33 0 48q4 11 3 17q-8 13 -9 29q0 7 -6 14.5t-5 17.5q-5 8 -18 11q-18 5 -21 7q-7 10 -26 24q-10 4 -38 4q-18 0 -28 -5l-24 -12q-37 -13 -43 -19t-21 -45l-6 -5v-11q0 -36 28 -35 q11 0 29.5 12t30.5 12q-5 0 26 -7q0 -13 13 -30t13 -26q0 -4 -4 -18t-4 -26v-5l-27 -36q-12 -14 -48 -14q-88 0 -89 82q0 10 -4 32.5t-4 34.5q0 10 10.5 27t10.5 25q0 13 34 44q32 28 49 35q8 1 24 5q2 1 10 9q4 4 14 4q9 0 26.5 -3.5t27.5 -3.5q17 0 25 -12q11 -19 16 -22 q12 -5 35 -18q29 -25 28 -73q0 -9 11 -27.5t11 -35.5q0 -61 -1 -53q-2 -1 -2 -3h1l4 -1q-1 0 -4 1h-2q4 -36 4 -28q0 -10 -11.5 -22t-11.5 -41q0 -10 -12 -26l-20 -23q-7 -15 -25 -44q-7 -10 -23 -19q-21 -12 -25 -15q-8 -10 -27 -27q-11 -3 -32 -14q-40 -28 -40 -42 q0 -10 11 -24q5 -3 12 -10q1 -11 4 -31q9 -16 21 -51q-2 -13 -4 -38l8 -12q1 -5 -1 -14t-2 -12q0 -12 1 -44q2 -27 0 -43q-1 -24 -9 -45q-4 -10 -28 -20t-34 -6zM1296 1160q11 0 30 -17.5t19 -28.5q0 -30 -13 -65q-13 -30 -25 -61q0 -9 -6 -26l-12 -9q-1 -13 -8 -37 q-5 -10 -18 -21q-17 -14 -21 -20q-3 -10 -13 -26q-5 -1 -16 -6q-13 -12 -40 -32q-11 -4 -32 -15q-4 -6 -15 -18q-19 -10 -54 -40q-18 -5 -44 -14q-10 -9 -33 -24q-10 -1 -32 -5q-11 -4 -27 -17.5t-24 -17.5t-25 -6q-13 -2 -25 -12l-9 -1q-12 0 -12 9l15 45.5t15 55.5 q0 16 -12 33q-17 24 -18.5 30t-7.5 17q-4 6 -23 17q-22 12 -26 15q-5 8 -18 21q-9 6 -64.5 15t-70.5 9q-20 0 -68.5 -14.5t-68.5 -14.5q-16 0 -40 -15.5t-39 -14.5q-1 -4 -1 12v2q11 12 32 29q17 3 49 15q5 6 19.5 18t48 22t40.5 15l8 1q15 2 41 -1q32 -5 41 -5q4 0 12 -1 l9 -6q8 -1 21 0q17 1 22 1q41 0 94 -50t61 -90q0 2 -1 -38q-1 -31 2 -38q1 -2 22 -26h2q13 0 36.5 11.5t37.5 11.5h5q7 8 21 15q18 10 23 14q9 12 29 32l32 12l26 24q8 3 23 11q6 6 12 18q6 16 9 20q10 8 25 26q2 3 3.5 10t3.5 10l8 7q5 9 21 63l6 6q1 4 1 12 q0 14 -11.5 38.5t-11.5 38.5q0 9 4 25.5t9 19.5q4 0 11 3q1 1 16 15q9 8 20 8z" />
<glyph glyph-name="Egrave" unicode="&#xc8;" horiz-adv-x="1145" d="M906 1135v1l-20 21v19q-5 10 -16 29l-15 22.5t-34 22.5q-6 3 -12 3q-17 0 -24 -19l-1 1l-2 -1q-2 -19 0 -24q9 -13 11 -18q2 -4 0 -23q-1 -14 10 -25q6 -3 14 -9q8 -13 26 -35q27 -19 47 -24q5 1 14 -1q6 -2 18 -13.5t31 -17.5l8 4l-3 10q-2 5 -21 25.5t-31 51.5z M949 999q-38 0 -61 -3q-39 -5 -83 -33q-7 -7 -22 -18q-8 -3 -25 -10q-12 -12 -39 -33l-17 -7q-10 -10 -32 -29q-17 -9 -44 -33q-3 -7 -11 -21q-7 -8 -12.5 -15.5t-8.5 -22.5q-4 -23 9.5 -35t12.5 -15q0 -1 -1.5 -4t-1.5 -5v-3q-19 -7 -55 -22q-9 -6 -27 -17q-8 -1 -23 -6 q-11 -10 -35 -27q-13 -4 -38 -16q-8 -7 -25 -18.5l-50 -32.5q-12 -14 -40 -36q-5 -1 -13 -5q-1 -4 -5 -12q-16 -10 -45 -34l-12 -20l-39 -42q-4 -9 -16 -25q-6 -3 -17 -12l-21 -36q-13 -12 -37 -37q-16 -21 -29 -54l-20 -56q-7 -11 -17 -39q-1 -7 -1 -13q0 -11 4 -25 q6 -19 7 -25q0 -10 1 -31l5 -6q-2 -9 -2 -28q3 -25 21 -46l37 -34q5 -10 20 -28q6 -2 16 -8q3 -8 15 -22q33 -24 55 -24q12 0 14 -1q5 -5 9 -7q11 -5 36 -5.5t35 -4.5q18 -7 35 -7q22 0 56 4q48 4 57 5q20 0 61 4l29 12q33 7 100 25q3 1 12.5 6.5t12.5 5.5q15 0 20 3 q13 7 17 8q8 1 24 6q19 11 60 28l5 12h-14q-6 0 -11 -5q-8 -6 -11 -7q-7 0 -21 -3q-11 -8 -33 -19h-3q-15 0 -43 -10.5t-42 -10.5h-28q-10 -5 -29 -12q-14 -3 -44 -3q-11 0 -36 1.5t-39 1.5q-44 -1 -47 -1q-30 1 -112 28q-9 1 -26 6q-10 5 -24 21.5t-20 21.5q-5 1 -14 6 q-3 7 -11 20q-10 7 -26 24q-23 39 -26 121q0 8 -3.5 24t-3.5 25q0 14 3 43q2 10 9 20t7.5 15.5t3.5 17.5q20 47 71 114q8 6 22 21q14 22 47 63q6 4 17 13q3 6 13 18t31 27q30 21 34 25t12 11l26 12q16 12 47 32q16 5 46 19l18 15l48 15q4 1 13 8q6 5 13 5q4 0 11 -1t10 -1 q8 5 26 13q38 12 105 12q39 0 42.5 1t11.5 4.5t16 3.5q20 -1 28 0q11 0 20 6q14 9 18 10q10 2 28 5q2 3 5 10q2 10 -24 10q-8 0 -27 -2t-29 -2q-35 1 -42 0q-6 -1 -19 -6t-25 -5q-21 0 -54 12q-36 13 -41 28q-3 10 -1 22q4 22 25.5 51t43.5 42q6 2 17 6l33 25t40.5 16.5 t55.5 4.5h74q1 -4 8 -6q-1 -4 -3.5 -12l-3.5 -11q-3 -10 3 -13l-1 -2q0 -1 1 0q6 0 9 1h1q28 28 43 40q9 4 26 11l-1 15q-15 6 -49 15q-24 4 -56 4zM1077 309h-1q-8 0 -8 -6q0 -1 5 -21q5 -23 5 -41q0 -16 -6 -38q-6 -6 -16 -18q-8 -15 -26 -45q-8 -6 -22 -20q-1 -4 -5 -12 q-10 -8 -28 -25q-6 -10 -21 -28q-27 -27 -44 -26q-2 -2 -2 -5q1 3 1 -9l-1 -2h12q5 0 12.5 7.5l8.5 8.5q30 20 84 66q9 15 29 45q8 8 22 25q22 34 30 75q3 16 0 26q-3 3 -6.5 11.5t-7.5 20t-15 11.5z" />
<glyph glyph-name="Eacute" unicode="&#xc9;" horiz-adv-x="1145" d="M1002 1144l-1 1q9 8 21 21l-1 19q5 10 16 29l15 22.5t35 22.5q6 3 12 3q17 0 24 -19v1l3 -1q2 -19 0 -24q-9 -13 -11 -18q-2 -4 0 -23q1 -14 -10 -25q-5 -3 -14 -9q-8 -13 -26 -35q-27 -19 -47 -24q-5 1 -12.5 -1t-19.5 -13.5t-31 -17.5l-9 4l3 10q2 5 21.5 25.5 t31.5 51.5zM948 999q-38 0 -61 -3q-39 -5 -83 -33q-7 -7 -22 -18q-8 -3 -25 -10q-12 -12 -39 -33l-17 -7q-10 -10 -32 -29q-17 -9 -44 -33q-3 -7 -11 -21q-7 -8 -12.5 -15.5t-8.5 -22.5q-4 -23 9.5 -35t12.5 -15q0 -1 -1.5 -4t-1.5 -5v-3q-19 -7 -55 -22q-9 -6 -27 -17 q-8 -1 -23 -6q-11 -10 -35 -27q-13 -4 -38 -16q-8 -7 -25 -18.5l-50 -32.5q-12 -14 -40 -36q-5 -1 -13 -5q-1 -4 -5 -12q-16 -10 -45 -34l-12 -20l-39 -42q-4 -9 -16 -25q-6 -3 -17 -12l-21 -36q-13 -12 -37 -37q-16 -21 -29 -54l-20 -56q-7 -11 -17 -39q-1 -7 -1 -13 q0 -11 4 -25q6 -19 7 -25q0 -10 1 -31l5 -6q-2 -9 -2 -28q3 -25 21 -46l37 -34q5 -10 20 -28q6 -2 16 -8q3 -8 15 -22q33 -24 55 -24q12 0 14 -1q5 -5 9 -7q11 -5 36 -5.5t35 -4.5q18 -7 35 -7q22 0 56 4q48 4 57 5q20 0 61 4l29 12q33 7 100 25q3 1 12.5 6.5t12.5 5.5 q15 0 20 3q13 7 17 8q8 1 24 6q19 11 60 28l5 12h-14q-6 0 -11 -5q-8 -6 -11 -7q-7 0 -21 -3q-11 -8 -33 -19h-3q-15 0 -43 -10.5t-42 -10.5h-28q-10 -5 -29 -12q-14 -3 -44 -3q-11 0 -36 1.5t-39 1.5q-44 -1 -47 -1q-30 1 -112 28q-9 1 -26 6q-10 5 -24 21.5t-20 21.5 q-5 1 -14 6q-3 7 -11 20q-10 7 -26 24q-23 39 -26 121q0 8 -3.5 24t-3.5 25q0 14 3 43q2 10 9 20t7.5 15.5t3.5 17.5q20 47 71 114q8 6 22 21q14 22 47 63q6 4 17 13q3 6 13 18t31 27q30 21 34 25t12 11l26 12q16 12 47 32q16 5 46 19l18 15l48 15q4 1 13 8q6 5 13 5 q4 0 11 -1t10 -1q8 5 26 13q38 12 105 12q39 0 42.5 1t11.5 4.5t16 3.5q20 -1 28 0q11 0 20 6q14 9 18 10q10 2 28 5q2 3 5 10q2 10 -24 10q-8 0 -27 -2t-29 -2q-35 1 -42 0q-6 -1 -19 -6t-25 -5q-21 0 -54 12q-36 13 -41 28q-3 10 -1 22q4 22 25.5 51t43.5 42q6 2 17 6 l33 25t40.5 16.5t55.5 4.5h74q1 -4 8 -6q-1 -4 -3.5 -12l-3.5 -11q-3 -10 3 -13l-1 -2q0 -1 1 0q6 0 9 1h1q28 28 43 40q9 4 26 11l-1 15q-15 6 -49 15q-24 4 -56 4zM1076 309h-1q-8 0 -8 -6q0 -1 5 -21q5 -23 5 -41q0 -16 -6 -38q-6 -6 -16 -18q-8 -15 -26 -45 q-8 -6 -22 -20q-1 -4 -5 -12q-10 -8 -28 -25q-6 -10 -21 -28q-27 -27 -44 -26q-2 -2 -2 -5q1 3 1 -9l-1 -2h12q5 0 12.5 7.5l8.5 8.5q30 20 84 66q9 15 29 45q8 8 22 25q22 34 30 75q3 16 0 26q-3 3 -6.5 11.5t-7.5 20t-15 11.5z" />
<glyph glyph-name="Ecircumflex" unicode="&#xca;" horiz-adv-x="1145" d="M937 1189q7 3 20 8v0q5 0 12 -3q1 -2 2 -7q5 -4 12 -9q12 -11 18 -19q0 -6 5 -18q7 -3 18 -10q3 -7 11 -22q4 -2 12 -5q5 -2 10.5 -11.5t7.5 -11.5q15 -10 33 -33q4 -14 -36 -14q-36 0 -42 5q-2 5 -8 14q-17 9 -43 30q2 5 -6 14q-4 2 -12 5q-4 2 -6 12.5t-13 15.5 q-15 7 -19 7q-2 0 -5.5 -4t-9.5 -7q-19 -10 -45 -40q-10 -9 -22 -24q-2 -6 -16 -22t-22 -21q-10 -1 -26 -4q-1 2 -6 2q-1 0 5 10q2 9 13 29l16 13q3 6 13 18q4 3 12.5 8t11.5 7l2 5q24 13 67 40q7 5 13 21q6 13 23 21zM949 998q-38 0 -61 -3q-39 -5 -83 -33q-7 -7 -22 -18 q-8 -3 -25 -10q-12 -12 -39 -33l-17 -7q-10 -10 -32 -29q-17 -9 -44 -33q-3 -7 -11 -21q-7 -8 -12.5 -15.5t-8.5 -22.5q-4 -23 9.5 -35t12.5 -15q0 -1 -1.5 -4t-1.5 -5v-3q-19 -7 -55 -22q-9 -6 -27 -17q-8 -1 -23 -6q-11 -10 -35 -27q-13 -4 -38 -16q-8 -7 -25 -18.5 l-50 -32.5q-12 -14 -40 -36q-5 -1 -13 -5q-1 -4 -5 -12q-16 -10 -45 -34l-12 -20l-39 -42q-4 -9 -16 -25q-6 -3 -17 -12l-21 -36q-13 -12 -37 -37q-16 -21 -29 -54l-20 -56q-7 -11 -17 -39q-1 -7 -1 -13q0 -11 4 -25q6 -19 7 -25q0 -10 1 -31l5 -6q-2 -9 -2 -28 q3 -25 21 -46l37 -34q5 -10 20 -28q6 -2 16 -8q3 -8 15 -22q33 -24 55 -24q12 0 14 -1q5 -5 9 -7q11 -5 36 -5.5t35 -4.5q18 -7 35 -7q22 0 56 4q48 4 57 5q20 0 61 4l29 12q33 7 100 25q3 1 12.5 6.5t12.5 5.5q15 0 20 3q13 7 17 8q8 1 24 6q19 11 60 28l5 12h-14 q-6 0 -11 -5q-8 -6 -11 -7q-7 0 -21 -3q-11 -8 -33 -19h-3q-15 0 -43 -10.5t-42 -10.5h-28q-10 -5 -29 -12q-14 -3 -44 -3q-11 0 -36 1.5t-39 1.5q-44 -1 -47 -1q-30 1 -112 28q-9 1 -26 6q-10 5 -24 21.5t-20 21.5q-5 1 -14 6q-3 7 -11 20q-10 7 -26 24q-23 39 -26 121 q0 8 -3.5 24t-3.5 25q0 14 3 43q2 10 9 20t7.5 15.5t3.5 17.5q20 47 71 114q8 6 22 21q14 22 47 63q6 4 17 13q3 6 13 18t31 27q30 21 34 25t12 11l26 12q16 12 47 32q16 5 46 19l18 15l48 15q4 1 13 8q6 5 13 5q4 0 11 -1t10 -1q8 5 26 13q38 12 105 12q39 0 42.5 1 t11.5 4.5t16 3.5q20 -1 28 0q11 0 20 6q14 9 18 10q10 2 28 5q2 3 5 10q2 10 -24 10q-8 0 -27 -2t-29 -2q-35 1 -42 0q-6 -1 -19 -6t-25 -5q-21 0 -54 12q-36 13 -41 28q-3 10 -1 22q4 22 25.5 51t43.5 42q6 2 17 6l33 25t40.5 16.5t55.5 4.5h74q1 -4 8 -6q-1 -4 -3.5 -12 l-3.5 -11q-3 -10 3 -13l-1 -2q0 -1 1 0q6 0 9 1h1q28 28 43 40q9 4 26 11l-1 15q-15 6 -49 15q-24 4 -56 4zM1077 308h-1q-8 0 -8 -6q0 -1 5 -21q5 -23 5 -41q0 -16 -6 -38q-6 -6 -16 -18q-8 -15 -26 -45q-8 -6 -22 -20q-1 -4 -5 -12q-10 -8 -28 -25q-6 -10 -21 -28 q-27 -27 -44 -26q-2 -2 -2 -5q1 3 1 -9l-1 -2h12q5 0 12.5 7.5l8.5 8.5q30 20 84 66q9 15 29 45q8 8 22 25q22 34 30 75q3 16 0 26q-3 3 -6.5 11.5t-7.5 20t-15 11.5z" />
<glyph glyph-name="Edieresis" unicode="&#xcb;" horiz-adv-x="1145" d="M804 1191h-1q-26 -10 -34 -21.5l-15 -22.5q-11 -12 -30 -39l-5 -3q1 -10 0 -27q-3 -8 4 -22q2 -5 14.5 -10t19.5 -2q35 14 43 21q4 5 8.5 10t13.5 11q11 11 10 24q-3 19 -1 23q2 6 11 19q3 4 1 24l-3 1v-2q-7 19 -24 19q-6 0 -12 -3zM1151 1191q-26 -10 -34 -21.5 l-15 -22.5q-11 -12 -31 -39l-4 -3q1 -10 0 -27q-3 -8 4 -22q2 -5 14.5 -10t19.5 -2q35 14 43 21q3 5 7.5 10t13.5 11q11 11 10 24q-3 19 -1 23q3 7 11 19q4 4 2 24l-3 1v-2q-7 19 -25 19q-5 0 -12 -3zM948 998q-38 0 -61 -3q-39 -5 -83 -33q-7 -7 -22 -18q-8 -3 -25 -10 q-12 -12 -39 -33l-17 -7q-10 -10 -32 -29q-17 -9 -44 -33q-3 -7 -11 -21q-7 -8 -12.5 -15.5t-8.5 -22.5q-4 -23 9.5 -35t12.5 -15q0 -1 -1.5 -4t-1.5 -5v-3q-19 -7 -55 -22q-9 -6 -27 -17q-8 -1 -23 -6q-11 -10 -35 -27q-13 -4 -38 -16q-8 -7 -25 -18.5l-50 -32.5 q-12 -14 -40 -36q-5 -1 -13 -5q-1 -4 -5 -12q-16 -10 -45 -34l-12 -20l-39 -42q-4 -9 -16 -25q-6 -3 -17 -12l-21 -36q-13 -12 -37 -37q-16 -21 -29 -54l-20 -56q-7 -11 -17 -39q-1 -7 -1 -13q0 -11 4 -25q6 -19 7 -25q0 -10 1 -31l5 -6q-2 -9 -2 -28q3 -25 21 -46l37 -34 q5 -10 20 -28q6 -2 16 -8q3 -8 15 -22q33 -24 55 -24q12 0 14 -1q5 -5 9 -7q11 -5 36 -5.5t35 -4.5q18 -7 35 -7q22 0 56 4q48 4 57 5q20 0 61 4l29 12q33 7 100 25q3 1 12.5 6.5t12.5 5.5q15 0 20 3q13 7 17 8q8 1 24 6q19 11 60 28l5 12h-14q-6 0 -11 -5q-8 -6 -11 -7 q-7 0 -21 -3q-11 -8 -33 -19h-3q-15 0 -43 -10.5t-42 -10.5h-28q-10 -5 -29 -12q-14 -3 -44 -3q-11 0 -36 1.5t-39 1.5q-44 -1 -47 -1q-30 1 -112 28q-9 1 -26 6q-10 5 -24 21.5t-20 21.5q-5 1 -14 6q-3 7 -11 20q-10 7 -26 24q-23 39 -26 121q0 8 -3.5 24t-3.5 25 q0 14 3 43q2 10 9 20t7.5 15.5t3.5 17.5q20 47 71 114q8 6 22 21q14 22 47 63q6 4 17 13q3 6 13 18t31 27q30 21 34 25t12 11l26 12q16 12 47 32q16 5 46 19l18 15l48 15q4 1 13 8q6 5 13 5q4 0 11 -1t10 -1q8 5 26 13q38 12 105 12q39 0 42.5 1t11.5 4.5t16 3.5q20 -1 28 0 q11 0 20 6q14 9 18 10q10 2 28 5q2 3 5 10q2 10 -24 10q-8 0 -27 -2t-29 -2q-35 1 -42 0q-6 -1 -19 -6t-25 -5q-21 0 -54 12q-36 13 -41 28q-3 10 -1 22q4 22 25.5 51t43.5 42q6 2 17 6l33 25t40.5 16.5t55.5 4.5h74q1 -4 8 -6q-1 -4 -3.5 -12l-3.5 -11q-3 -10 3 -13l-1 -2 q0 -1 1 0q6 0 9 1h1q28 28 43 40q9 4 26 11l-1 15q-15 6 -49 15q-24 4 -56 4zM1076 308h-1q-8 0 -8 -6q0 -1 5 -21q5 -23 5 -41q0 -16 -6 -38q-6 -6 -16 -18q-8 -15 -26 -45q-8 -6 -22 -20q-1 -4 -5 -12q-10 -8 -28 -25q-6 -10 -21 -28q-27 -27 -44 -26q-2 -2 -2 -5 q1 3 1 -9l-1 -2h12q5 0 12.5 7.5l8.5 8.5q30 20 84 66q9 15 29 45q8 8 22 25q22 34 30 75q3 16 0 26q-3 3 -6.5 11.5t-7.5 20t-15 11.5z" />
<glyph glyph-name="Igrave" unicode="&#xcc;" horiz-adv-x="746" d="M448 809h1l-21 21l1 19q-5 10 -16 29l-15 22.5t-35 22.5q-6 3 -12 3q-17 0 -24 -19v1l-3 -1q-2 -19 0 -24q9 -13 11 -18q2 -4 0 -23q-1 -13 10 -24q6 -3 14 -10q8 -13 26 -35q27 -19 47 -24q5 1 14 -1q6 -2 18 -13.5t31 -17.5l9 4l-3 10q-2 5 -21.5 25.5t-31.5 52.5z M681 800q-6 0 -9.5 -0.5t-28.5 -14.5q-15 -7 -39 -25q-4 -6 -12 -19q-32 -39 -60 -54q-13 -7 -42 -14l-44 -10q-36 -8 -99 -32q-4 -2 -23.5 -20t-21.5 -18q-6 0 -9 1q-25 -23 -29 -44q-2 -12 13 -12h7q23 14 70 39q5 15 22 40q11 10 60 22.5t66 12.5q10 0 12 -4q3 -7 6 -8 l-3 -20q-1 -8 -12 -22t-13 -27q-1 -9 -4 -27q-2 -8 -10.5 -22.5t-10 -23.5t-3.5 -27q-1 -9 -11 -22.5t-11.5 -25t-5 -34t-27 -63.5t-27.5 -61q0 -8 -2 -25q-1 -9 -20.5 -44.5t-26.5 -42.5q-3 -3 -9.5 -6t-8.5 -5q-4 -13 -18 -36q-24 -29 -89 -51q-59 -20 -101 -20 q-62 0 -69 63q2 13 -1 34q-2 5 -10.5 8t-10.5 5q-2 -2 -6.5 -3.5t-7 -4.5t-11 -33t-9.5 -38q0 2 -1 -6q1 -6 15.5 -19.5t21.5 -16.5q51 -24 96 -24q28 0 58 12l54 24q11 1 33 7l35 28q10 3 30 11q66 43 117 139q26 49 69 165q22 43 51 126q1 12 4 36q4 21 22 54q28 51 29 54 q4 16 19 46q14 11 39 34q25 30 28 47t-21 17z" />
<glyph glyph-name="Iacute" unicode="&#xcd;" horiz-adv-x="746" d="M489 925q9 8 21 22l-1 18q5 10 16 29l15 22.5t35 22.5q6 3 12 3q17 0 24 -19v1l3 -1q2 -19 0 -24q-9 -13 -11 -18q-2 -4 0 -23q1 -13 -10 -24q-5 -3 -14 -10q-8 -13 -26 -35q-27 -19 -47 -24q-5 1 -12.5 -1t-20 -13.5t-31.5 -17.5l-8 5l3 9q1 6 20.5 26.5t31.5 51.5z M680 800q-6 0 -9.5 -0.5t-28.5 -14.5q-15 -7 -39 -25q-4 -6 -12 -19q-32 -39 -60 -54q-13 -7 -42 -14l-44 -10q-36 -8 -99 -32q-4 -2 -23.5 -20t-21.5 -18q-6 0 -9 1q-25 -23 -29 -44q-2 -12 13 -12h7q23 14 70 39q5 15 22 40q11 10 60 22.5t66 12.5q10 0 12 -4q3 -7 6 -8 l-3 -20q-1 -8 -12 -22t-13 -27q-1 -9 -4 -27q-2 -8 -10.5 -22.5t-10 -23.5t-3.5 -27q-1 -9 -11 -22.5t-11.5 -25t-5 -34t-27 -63.5t-27.5 -61q0 -8 -2 -25q-1 -9 -20.5 -44.5t-26.5 -42.5q-3 -3 -9.5 -6t-8.5 -5q-4 -13 -18 -36q-24 -29 -89 -51q-59 -20 -101 -20 q-62 0 -69 63q2 13 -1 34q-2 5 -10.5 8t-10.5 5q-2 -2 -6.5 -3.5t-7 -4.5t-11 -33t-9.5 -38q0 2 -1 -6q1 -6 15.5 -19.5t21.5 -16.5q51 -24 96 -24q28 0 58 12l54 24q11 1 33 7l35 28q10 3 30 11q66 43 117 139q26 49 69 165q22 43 51 126q1 12 4 36q4 21 22 54q28 51 29 54 q4 16 19 46q14 11 39 34q25 30 28 47t-21 17z" />
<glyph glyph-name="Icircumflex" unicode="&#xce;" horiz-adv-x="746" d="M515 988h1q7 3 20 8v-1q5 0 12 -3q1 -1 1.5 -3t0.5 -3q5 -4 12 -9q12 -10 17 -20q1 -6 6 -17q7 -3 18 -11q3 -3 5.5 -10.5t5 -9.5t6.5 -3.5t5 -2.5q6 -8 19 -23q15 -10 33 -33q4 -14 -36 -14q-36 0 -42 5q-2 4 -9 14q-17 9 -43 30q2 5 -5 14q-4 2 -13 5q-4 2 -5.5 12.5 t-12.5 15.5q-14 7 -18 7q-3 0 -6.5 -4t-9.5 -7q-19 -10 -45 -40q-10 -9 -22 -25q-2 -6 -16 -22t-22 -20q-3 -1 -13 -2t-13 -3l-6 3q-2 1 0 5l4 5q3 9 14 29l15 13q3 6 14 18q9 5 23 15l3 5q24 13 66 40q7 5 13 21q6 13 23 21zM681 800q-6 0 -9.5 -0.5t-28.5 -14.5 q-15 -7 -39 -25q-4 -6 -12 -19q-32 -39 -60 -54q-13 -7 -42 -14l-44 -10q-36 -8 -99 -32q-4 -2 -23.5 -20t-21.5 -18q-6 0 -9 1q-25 -23 -29 -44q-2 -12 13 -12h7q23 14 70 39q5 15 22 40q11 10 60 22.5t66 12.5q10 0 12 -4q3 -7 6 -8l-3 -20q-1 -8 -12 -22t-13 -27 q-1 -9 -4 -27q-2 -8 -10.5 -22.5t-10 -23.5t-3.5 -27q-1 -9 -11 -22.5t-11.5 -25t-5 -34t-27 -63.5t-27.5 -61q0 -8 -2 -25q-1 -9 -20.5 -44.5t-26.5 -42.5q-3 -3 -9.5 -6t-8.5 -5q-4 -13 -18 -36q-24 -29 -89 -51q-59 -20 -101 -20q-62 0 -69 63q2 13 -1 34q-2 5 -10.5 8 t-10.5 5q-2 -2 -6.5 -3.5t-7 -4.5t-11 -33t-9.5 -38q0 2 -1 -6q1 -6 15.5 -19.5t21.5 -16.5q51 -24 96 -24q28 0 58 12l54 24q11 1 33 7l35 28q10 3 30 11q66 43 117 139q26 49 69 165q22 43 51 126q1 12 4 36q4 21 22 54q28 51 29 54q4 16 19 46q14 11 39 34q25 30 28 47 t-21 17z" />
<glyph glyph-name="Idieresis" unicode="&#xcf;" horiz-adv-x="746" d="M466 975q-26 -10 -34 -21.5l-15 -22.5q-11 -12 -31 -39l-4 -3q1 -10 0 -27q-3 -8 4 -22q2 -5 14.5 -10t19.5 -2q35 14 43 21q3 5 7.5 10t13.5 11q11 11 10 24q-3 19 -1 23q2 6 11 19q3 4 1 24l-2 1v-2q-7 19 -25 19q-5 0 -12 -3zM815 975q-26 -10 -34.5 -21.5 t-15.5 -22.5q-11 -12 -30 -39l-4 -3q1 -10 -1 -27q-3 -8 4 -22q2 -5 14.5 -10t19.5 -2q35 14 43 21q4 5 8.5 10t13.5 11q11 11 10 24q-3 19 -1 23q2 6 11 19q3 4 1 24l-3 1v-2q-7 19 -24 19q-6 0 -12 -3zM680 800q-6 0 -9.5 -0.5t-28.5 -14.5q-15 -7 -39 -25q-4 -6 -12 -19 q-32 -39 -60 -54q-13 -7 -42 -14l-44 -10q-36 -8 -99 -32q-4 -2 -23.5 -20t-21.5 -18q-6 0 -9 1q-25 -23 -29 -44q-2 -12 13 -12h7q23 14 70 39q5 15 22 40q11 10 60 22.5t66 12.5q10 0 12 -4q3 -7 6 -8l-3 -20q-1 -8 -12 -22t-13 -27q-1 -9 -4 -27q-2 -8 -10.5 -22.5 t-10 -23.5t-3.5 -27q-1 -9 -11 -22.5t-11.5 -25t-5 -34t-27 -63.5t-27.5 -61q0 -8 -2 -25q-1 -9 -20.5 -44.5t-26.5 -42.5q-3 -3 -9.5 -6t-8.5 -5q-4 -13 -18 -36q-24 -29 -89 -51q-59 -20 -101 -20q-62 0 -69 63q2 13 -1 34q-2 5 -10.5 8t-10.5 5q-2 -2 -6.5 -3.5t-7 -4.5 t-11 -33t-9.5 -38q0 2 -1 -6q1 -6 15.5 -19.5t21.5 -16.5q51 -24 96 -24q28 0 58 12l54 24q11 1 33 7l35 28q10 3 30 11q66 43 117 139q26 49 69 165q22 43 51 126q1 12 4 36q4 21 22 54q28 51 29 54q4 16 19 46q14 11 39 34q25 30 28 47t-21 17z" />
<glyph glyph-name="Ntilde" unicode="&#xd1;" horiz-adv-x="1016" d="M1036 905l-27 -34q-11 -6 -19 -6q-11 0 -11 13q1 27 -10.5 50t-26.5 23q-5 0 -13 -4t-12 -4q-5 0 -13.5 3.5t-13.5 3.5q-8 0 -25 -13q-21 -17 -26.5 -19.5t-11.5 -1t-11 -0.5l-26 -18q-13 -3 -38 -13l-12 -6q-3 -2 -8.5 -8t-8.5 -8q-14 -7 -29 -4q-1 0 -7 6q-2 3 -13 -2 q-30 -14 -29 -14q-3 0 -6.5 4t-7.5 5q-4 -1 -14 0q-15 9 -14 50q2 57 53 121l8 -3q-2 -19 -5 -57q-1 -21 2 -30q1 -4 19 -14q15 -8 34 -8q34 0 113 38q21 11 64 31q6 3 17 8q11 -1 36 2q45 13 44 13q9 0 16 -5.5t18 -45.5q3 -10 5 -29zM640 811v1q-14 -5 -35 -17 q0 -4 -2 -12q-1 -2 -21 -24.5t-23 -23.5h-4q-3 -9 -1 -18q2 -22 1 -30q-5 -12 -7 -50q4 -37 1 -46q-9 -11 -24 -36q-4 -18 -15 -52q-7 -9 -17 -29q0 -6 -4 -19q-11 -17 -30 -53q-4 -17 -16 -48q-9 -9 -25 -28q-10 -22 -34 -64l-54 -56q-23 -28 -73 -79q-8 -4 -23 -13 q-9 -13 -32 -36q-14 -6 -42 -20q-5 -6 -19 -15q-15 -3 -43 -13q-9 -8 -30 -20q-29 -10 -93 -10q-48 0 -71 6q-34 9 -32 9q-5 0 -9 -1q-11 -3 -17 -18q-9 -22 -9.5 -22.5t-21.5 -15.5q-15 -10 -14 -20q3 -33 91 -33q26 0 46 4q11 4 28.5 16.5t27.5 16.5q10 0 28 4 q12 10 37 21q2 0 10 -2q8 0 27 16q23 18 28 21q10 2 27 8q6 9 20 23q18 8 52 29q5 10 17 28q7 7 25 15.5t25 13.5q9 12 28 35l96 93q7 7 14.5 24t12.5 23l30 25q6 6 20 33t22 31l20 3l15.5 -12t8.5 -19q2 -18 -5 -45q-10 -38 -11 -44q-2 -15 -0.5 -44.5t0.5 -43.5 q-7 -19 -19 -55q-6 -21 -6 -58q-1 -45 -3 -59l-5 -20q-4 -11 -3 -20q6 -12 14 -36h14h3l3 8q44 31 45 32q25 22 22 48q-2 16 0 25q3 13 20 47q12 16 34 53q5 17 19 47q10 9 25 28q1 8 7 24q2 2 7.5 6t7.5 7q6 17 19 51q11 14 31 45q9 30 29 76q5 2 12 8q3 11 13 32 q10 7 25 24q1 8 6 23q4 6 16 9l18 4q6 -6 14 -17q8 -19 14 -19q2 0 11 5q14 8 19 19l24 79q6 8 14 25q1 5 1 17q-2 18 -2 27q1 5 7 20q5 12 4 21q-1 10 -6 13.5t-6 5.5q-64 -20 -86 -60q-2 -10 -9 -28q-12 -8 -30 -28q-1 -14 -8 -39q-9 -8 -26 -26q-5 -12 -20 -31 q-13 -6 -34 -24q-2 -11 -10 -32q-7 -6 -17 -21q0 -6 -3 -19q-6 -5 -14 -16q-4 -12 -13 -36q-7 -7 -18 -25q-3 -15 -12 -44q-5 -11 -19 -30t-19 -30l-10 -34q-8 -24 -20 -24q-2 0 -6.5 1.5t-6.5 1t-4.5 1.5t-7.5 8.5t-8 29.5q-4 36 16 119l9 42q0 19 4 55q1 4 6 18q4 10 3 19 q-2 8 -4 24q-2 14 5.5 41t6.5 38v8q-1 5 -1 7q-1 6 4 14t5 12q4 15 5 45t3 43q5 8 11 24q0 24 1 72z" />
<glyph glyph-name="Ograve" unicode="&#xd2;" horiz-adv-x="624" d="M494 760q-10 0 -25 -7q-21 -9 -26 -10q-8 -1 -25 -4l-31 -18q-15 -4 -45 -17q-6 -8 -20 -21q-9 -2 -26 -10q-6 -9 -21 -24q-12 -5 -32 -21q-9 -10 -18.5 -33.5t-17.5 -32.5q-8 -5 -23 -18q-6 -11 -20 -31q-10 -6 -25 -20q-4 -12 -13 -34q-9 -7 -21 -34q-3 -16 -19.5 -42 t-18.5 -40l-3 -22q-8 -13 -18 -40q-1 -14 -4 -44q-3 -13 -8 -38q0 -2 -1 -9.5t-1 -8.5q4 -16 3 -20q-1 -10 -5 -23q-2 -12 4 -22q7 -15 8 -19q0 -9 2 -27q1 -7 10 -18q2 -5 4.5 -8.5t14.5 -3.5q28 0 68 28l63 46q26 12 76 39l50 45q29 19 77 62q2 5 6 14q12 9 33 27 q3 4 5.5 12t4.5 10.5t6 4t5 2.5q7 11 21 31q14 15 39 49q9 16 18 43q10 31 16 42l18 33q6 16 10 41q10 57 -4 112q-19 73 -51 73q-20 0 -16 -1q-30 7 -24 7zM163 371q1 10 5 28q6 8 15 24q9 28 32 84q14 18 40 55q11 22 39 60q10 4 27 16q3 6 10 18q31 43 84 42 q51 -1 66 -34q1 -7 4 -21q6 -6 13 -22q-1 -10 2 -28q0 -1 4.5 -6.5t3.5 -9.5q-5 -10 -13 -30l-3 -27q-10 -18 -28 -55q-9 -33 -34 -98q-5 -11 -19 -26q-18 -20 -22 -25q-5 -11 -20 -31l-16 -13q-1 -5 -6 -15l-23 -18q-10 -13 -32 -37q-18 -18 -84 -63q-7 -7 -23 -18 q-5 -1 -14 -1q-23 0 -28 22q-1 6 -2 42q0 2 -4 50q-2 29 2 50q8 27 22 81q2 4 2 6z" />
<glyph glyph-name="Oacute" unicode="&#xd3;" horiz-adv-x="624" d="M449 916l-1 1q9 8 21 21l-1 19q5 10 16 29q7 11 15 22t35 22q6 2 12 2q17 0 24 -17v1l3 -2q2 -19 0 -24q-9 -13 -11 -18q-2 -4 0 -23q1 -13 -10 -24q-5 -3 -14 -10q-8 -13 -26 -34q-19 -14 -47 -25q-5 1 -12.5 -1t-20 -13.5t-31.5 -16.5l-8 4l3 9q1 6 21 26t32 52z M493 761q-10 0 -25 -7q-21 -9 -26 -10q-8 -1 -25 -4l-31 -18q-15 -4 -45 -17q-6 -8 -20 -21q-9 -2 -26 -10q-6 -9 -21 -24q-12 -5 -32 -21q-9 -10 -18.5 -33.5t-17.5 -32.5q-8 -5 -23 -18q-6 -11 -20 -31q-10 -6 -25 -20q-4 -12 -13 -34q-9 -7 -21 -34q-3 -16 -19.5 -42 t-18.5 -40l-3 -22q-8 -13 -18 -40q-1 -14 -4 -44q-3 -13 -8 -38q0 -2 -1 -9.5t-1 -8.5q4 -16 3 -20q-1 -10 -5 -23q-2 -12 4 -22q7 -15 8 -19q0 -9 2 -27q1 -7 10 -18q2 -5 4.5 -8.5t14.5 -3.5q28 0 68 28l63 46q26 12 76 39l50 45q29 19 77 62q2 5 6 14q12 9 33 27 q3 4 5.5 12t4.5 10.5t6 4t5 2.5q7 11 21 31q14 15 39 49q9 16 18 43q10 31 16 42l18 33q6 16 10 41q10 57 -4 112q-19 73 -51 73q-20 0 -16 -1q-30 7 -24 7zM162 372q1 10 5 28q6 8 15 24q9 28 32 84q14 18 40 55q11 22 39 60q10 4 27 16q3 6 10 18q31 43 84 42 q51 -1 66 -34q1 -7 4 -21q6 -6 13 -22q-1 -10 2 -28q0 -1 4.5 -6.5t3.5 -9.5q-5 -10 -13 -30l-3 -27q-10 -18 -28 -55q-9 -33 -34 -98q-5 -11 -19 -26q-18 -20 -22 -25q-5 -11 -20 -31l-16 -13q-1 -5 -6 -15l-23 -18q-10 -13 -32 -37q-18 -18 -84 -63q-7 -7 -23 -18 q-5 -1 -14 -1q-23 0 -28 22q-1 6 -2 42q0 2 -4 50q-2 29 2 50q8 27 22 81q2 4 2 6z" />
<glyph glyph-name="Ocircumflex" unicode="&#xd4;" horiz-adv-x="624" d="M495 918v1q6 3 20 7v0q5 0 12 -3q1 -1 1.5 -3t0.5 -3l12 -10q13 -12 18 -19q1 -6 5 -17q7 -3 18 -11q3 -3 5.5 -10.5t6 -10t11.5 -5.5q5 -2 10.5 -12t7.5 -12q15 -10 33 -33q4 -14 -35 -14q-37 0 -43 6q-2 5 -8 14q-17 9 -43 29q2 5 -6 15q-4 2 -12 5q-4 2 -6 12.5 t-13 15.5q-15 7 -19 7q-2 0 -5.5 -4t-9.5 -7q-24 -12 -45 -41q-10 -9 -22 -24q-2 -6 -16 -22t-22 -20q-3 -1 -13 -2t-13 -3l-6 3q-3 1 5 9q2 9 13 29l16 13q3 6 13 18q9 5 24 16l2 4q24 13 67 40q7 5 13 21q6 13 23 21zM494 761q-10 0 -25 -7q-21 -9 -26 -10q-8 -1 -25 -4 l-31 -18q-15 -4 -45 -17q-6 -8 -20 -21q-9 -2 -26 -10q-6 -9 -21 -24q-12 -5 -32 -21q-9 -10 -18.5 -33.5t-17.5 -32.5q-8 -5 -23 -18q-6 -11 -20 -31q-10 -6 -25 -20q-4 -12 -13 -34q-9 -7 -21 -34q-3 -16 -19.5 -42t-18.5 -40l-3 -22q-8 -13 -18 -40q-1 -14 -4 -44 q-3 -13 -8 -38q0 -2 -1 -9.5t-1 -8.5q4 -16 3 -20q-1 -10 -5 -23q-2 -12 4 -22q7 -15 8 -19q0 -9 2 -27q1 -7 10 -18q2 -5 4.5 -8.5t14.5 -3.5q28 0 68 28l63 46q26 12 76 39l50 45q29 19 77 62q2 5 6 14q12 9 33 27q3 4 5.5 12t4.5 10.5t6 4t5 2.5q7 11 21 31q14 15 39 49 q9 16 18 43q10 31 16 42l18 33q6 16 10 41q10 57 -4 112q-19 73 -51 73q-20 0 -16 -1q-30 7 -24 7zM163 372q1 10 5 28q6 8 15 24q9 28 32 84q14 18 40 55q11 22 39 60q10 4 27 16q3 6 10 18q31 43 84 42q51 -1 66 -34q1 -7 4 -21q6 -6 13 -22q-1 -10 2 -28q0 -1 4.5 -6.5 t3.5 -9.5q-5 -10 -13 -30l-3 -27q-10 -18 -28 -55q-9 -33 -34 -98q-5 -11 -19 -26q-18 -20 -22 -25q-5 -11 -20 -31l-16 -13q-1 -5 -6 -15l-23 -18q-10 -13 -32 -37q-18 -18 -84 -63q-7 -7 -23 -18q-5 -1 -14 -1q-23 0 -28 22q-1 6 -2 42q0 2 -4 50q-2 29 2 50q8 27 22 81 q2 4 2 6z" />
</font>
</defs>
</svg>
